<svg width="101" height="100" viewBox="0 0 101 100" fill="none" xmlns="http://www.w3.org/2000/svg">
<g clip-path="url(#clip0_22_2784)">
<path d="M46.5342 1.77542L2.6592 45.6153C2.09847 46.174 1.65356 46.8379 1.34998 47.569C1.04641 48.3 0.890137 49.0838 0.890137 49.8754C0.890137 50.667 1.04641 51.4508 1.34998 52.1819C1.65356 52.9129 2.09847 53.5768 2.6592 54.1356L46.5342 97.975C48.8932 100.332 52.7029 100.332 55.0615 97.975L73.458 79.5938C75.5705 77.4828 75.5705 74.0606 73.458 71.95C71.3455 69.8391 67.9205 69.8391 65.808 71.95L51.8619 85.8844C51.2748 86.4711 50.3838 86.4711 49.7967 85.8844L14.7592 50.8758C14.1721 50.2891 14.1721 49.3989 14.7592 48.8121L49.7967 13.8032C50.3838 13.2168 51.2748 13.2168 51.8619 13.8032L65.808 27.7379C67.9205 29.8489 71.3455 29.8489 73.458 27.7379C75.5705 25.627 75.5705 22.2051 73.458 20.0942L55.0635 1.71526C52.6951 -0.590988 48.8838 -0.572238 46.5342 1.77542Z" fill="url(#paint0_linear_22_2784)"/>
<path d="M46.5342 1.77547L2.6592 45.6153C2.09847 46.174 1.65356 46.838 1.34998 47.569C1.04641 48.3001 0.890137 49.0839 0.890137 49.8755C0.890137 50.667 1.04641 51.4508 1.34998 52.1819C1.65356 52.913 2.09847 53.5769 2.6592 54.1356L46.5342 97.9751C48.8932 100.332 52.7029 100.332 55.0615 97.9751L73.458 79.5938C75.5705 77.4829 75.5705 74.0606 73.458 71.9501C71.3455 69.8391 67.9205 69.8391 65.808 71.9501L51.8619 85.8845C51.2748 86.4712 50.3838 86.4712 49.7967 85.8845L14.7592 50.8759C14.1721 50.2891 14.1721 49.3989 14.7592 48.8122L49.7967 13.8032C51.2584 12.543 53.644 9.9907 57.1463 9.39305C59.7494 8.94969 62.5955 9.92625 65.6842 12.3227L55.0639 1.71492C52.6951 -0.590938 48.8842 -0.572188 46.5342 1.77547Z" fill="url(#paint1_linear_22_2784)"/>
<path d="M77.7049 67.8729C79.8174 69.9838 83.2424 69.9838 85.3549 67.8729L98.9248 54.3143C99.4855 53.7555 99.9304 53.0916 100.234 52.3605C100.538 51.6295 100.694 50.8457 100.694 50.0541C100.694 49.2625 100.538 48.4787 100.234 47.7477C99.9304 47.0166 99.4855 46.3527 98.9248 45.7939L85.2369 32.165C83.1193 30.0568 79.6932 30.06 77.5795 32.1721C75.467 34.283 75.467 37.7049 77.5795 39.8158L86.8244 49.0533C87.4115 49.64 87.4115 50.5303 86.8244 51.117L77.7049 60.2291C75.5924 62.34 75.5924 65.7623 77.7049 67.8729Z" fill="url(#paint2_linear_22_2784)"/>
<path d="M51.0174 61.9313C57.56 61.9313 62.8639 56.6318 62.8639 50.0945C62.8639 43.5573 57.56 38.2578 51.0174 38.2578C44.4747 38.2578 39.1709 43.5573 39.1709 50.0945C39.1709 56.6318 44.4747 61.9313 51.0174 61.9313Z" fill="url(#paint3_linear_22_2784)"/>
</g>
<defs>
<linearGradient id="paint0_linear_22_2784" x1="4605.89" y1="8.55711e-05" x2="8775.35" y2="2546.22" gradientUnits="userSpaceOnUse">
<stop stop-color="#4285EB"/>
<stop offset="1" stop-color="#2EC7FF"/>
</linearGradient>
<linearGradient id="paint1_linear_22_2784" x1="5165.15" y1="8.89571e-05" x2="3105.84" y2="10643.2" gradientUnits="userSpaceOnUse">
<stop stop-color="#29CDFF"/>
<stop offset="0.3786" stop-color="#148EFF"/>
<stop offset="1" stop-color="#0A60FF"/>
</linearGradient>
<linearGradient id="paint2_linear_22_2784" x1="1797.28" y1="-473.715" x2="-882.239" y2="3716.75" gradientUnits="userSpaceOnUse">
<stop stop-color="#FA816E"/>
<stop offset="0.41473" stop-color="#F74A5C"/>
<stop offset="1" stop-color="#F51D2C"/>
</linearGradient>
<linearGradient id="paint3_linear_22_2784" x1="1653.33" y1="-806.671" x2="761.77" y2="2759.7" gradientUnits="userSpaceOnUse">
<stop stop-color="#FA8E7D"/>
<stop offset="0.51264" stop-color="#F74A5C"/>
<stop offset="1" stop-color="#F51D2C"/>
</linearGradient>
<clipPath id="clip0_22_2784">
<rect width="100" height="100" fill="white" transform="translate(0.889648)"/>
</clipPath>
</defs>
</svg>
