<svg width="100" height="100" viewBox="0 0 100 100" fill="none" xmlns="http://www.w3.org/2000/svg">
<path d="M84.0031 35.097C83.8604 35.9594 83.4794 36.7647 82.9031 37.422L82.5469 37.1938C82.7965 36.6513 82.9832 36.082 83.1031 35.497L83.0031 35.3407C82.875 35.3407 82.6906 35.697 82.4906 36.3813H82.3063C82.2934 36.2668 82.2595 36.1555 82.2063 36.0532H82.1219C80.4375 40.7407 79.6813 42.9282 78.125 46.5438C77.8406 47.4813 77.5969 47.9845 77.3844 48.0845C77.3847 48.1069 77.3901 48.129 77.4001 48.1491C77.4101 48.1691 77.4244 48.1867 77.4421 48.2005C77.4598 48.2143 77.4804 48.224 77.5023 48.2288C77.5242 48.2335 77.5469 48.2334 77.5688 48.2282C77.6031 48.6965 77.4941 49.1641 77.2563 49.5688C76.9286 50.7649 76.4442 51.9123 75.8156 52.9813L75.9719 53.9657C75.9772 53.988 75.977 54.0112 75.9713 54.0334C75.9656 54.0555 75.9545 54.076 75.9391 54.0929C75.9237 54.1099 75.9044 54.1228 75.8829 54.1306C75.8614 54.1383 75.8383 54.1408 75.8156 54.1376H75.6438C75.6146 53.8668 75.5104 53.7386 75.3313 53.7532H75.2469C75.0169 54.1238 74.8481 54.529 74.7469 54.9532H74.9188C75.0164 54.9049 75.0979 54.8293 75.1534 54.7355C75.2088 54.6418 75.2359 54.5339 75.2312 54.4251L75.575 54.397L75.7594 54.4688C75.6271 54.6357 75.5516 54.8404 75.5438 55.0532L75.6281 55.2095L75.4125 55.722V55.8063C75.6413 55.7968 75.8671 55.8615 76.0563 55.9907C76.2398 55.9629 76.4149 55.8946 76.5688 55.7907C76.7688 55.7907 77.4812 55.7626 78.7375 55.7626L79.3625 55.547C80.1344 55.547 80.2469 55.547 80.925 55.5032L81.1969 55.4751L81.3406 55.3751V55.4595C81.769 55.4099 82.2026 55.4289 82.625 55.5157V55.6001L82.2406 55.6282V55.7845C82.3533 55.7749 82.4613 55.735 82.5531 55.6688C82.6531 55.6647 82.7104 55.7168 82.725 55.8251C82.546 55.8483 82.3692 55.887 82.1969 55.9407L82.025 55.8845C81.9016 55.934 81.7725 55.9676 81.6406 55.9845L81.3688 55.9282C81.3709 55.9467 81.3665 55.9653 81.3562 55.9808C81.3459 55.9962 81.3304 56.0075 81.3125 56.0126C81.3125 56.1126 81.3688 56.1688 81.4688 56.1563L81.7969 56.1282L81.6531 56.072C81.6531 56.1178 81.6813 56.1418 81.7375 56.1438L83.15 56.0157L83.75 55.9376C83.7496 55.9472 83.7511 55.9567 83.7546 55.9656C83.758 55.9745 83.7633 55.9826 83.7701 55.9894C83.7768 55.9962 83.7849 56.0015 83.7939 56.0049C83.8028 56.0084 83.8123 56.0099 83.8219 56.0095L84.0781 55.9095L84.5625 55.8657C84.9469 55.8376 84.9344 55.8095 85.7469 55.6813C85.7469 55.6376 85.7469 55.6095 85.8031 55.6095V55.6813C86.3958 55.635 86.9805 55.5154 87.5438 55.3251L87.4719 55.1532C87.2563 55.2003 87.0363 55.2244 86.8156 55.2251L85.6313 55.2813V55.197L86.2875 55.1126H86.5313L86.6594 55.0126V55.097C88.5439 55.0764 90.4186 54.8224 92.2406 54.3407C92.4688 54.3407 92.4563 54.1251 92.5969 53.7157C92.517 53.7198 92.4376 53.7003 92.3688 53.6595C91.9665 53.7615 91.5551 53.8233 91.1406 53.8438C91.0844 53.848 91.0417 53.7959 91.0125 53.6876V53.6157L91.6688 53.6438C91.9212 53.6266 92.1657 53.5483 92.3813 53.4157C92.4531 53.4595 92.325 53.5001 92.3813 53.4876H92.4969C92.5656 53.4876 92.599 53.4303 92.5969 53.3157L92.525 53.1595C92.1718 53.1619 91.8244 53.2498 91.5125 53.4157V53.3313L90.9688 53.3876C90.9688 53.2157 90.9125 53.1438 90.8406 53.1438L90.5563 53.172C90.2281 53.2001 90.0719 53.172 89.9125 53.3157C89.9125 53.2595 89.8844 53.2313 89.8563 53.2313L89.5437 53.2595L89.3594 53.3595C89.3594 53.3032 89.3313 53.2751 89.3031 53.2751L89.1875 53.3751V53.2907L88.75 53.2501H88.65V53.4063L88.8781 53.4626H89.0781C89.1528 53.5031 89.237 53.5225 89.3219 53.5188L89.5063 53.4345V53.5063C88.942 53.6475 88.3702 53.7571 87.7938 53.8345C87.7451 53.7936 87.6851 53.7685 87.6219 53.7626C87.55 53.8345 87.7063 53.7626 87.6656 53.7626C87.6438 53.7677 87.6211 53.7679 87.5992 53.7631C87.5773 53.7583 87.5567 53.7487 87.539 53.7349C87.5213 53.7211 87.5069 53.7035 87.4969 53.6834C87.487 53.6633 87.4816 53.6413 87.4812 53.6189L87.8375 53.5751L88.0813 53.647C88.3656 53.5032 88.3938 53.447 88.5375 53.4313V53.2751C87.926 53.3939 87.3042 53.4515 86.6813 53.447H86.625V53.2907C88.2375 53.0907 87.6969 53.2063 88.2375 53.047C88.2375 53.1032 88.2656 53.1313 88.2938 53.1313C88.3229 53.0999 88.3582 53.0748 88.3974 53.0576C88.4367 53.0404 88.479 53.0315 88.5219 53.0313H88.6375C89.2718 53.0565 89.9057 52.9741 90.5125 52.7876V52.8595L90.6969 52.7751H90.8688C90.8688 52.6032 91.1125 52.5907 91.1813 52.5751V52.4032C89.225 52.8032 88.7125 52.6876 88.1688 52.847V52.7751C87.9541 52.8269 87.7328 52.8458 87.5125 52.8313C87.4515 52.8481 87.397 52.883 87.3563 52.9313C87.3542 52.8751 87.3302 52.847 87.2844 52.847C87.2156 52.847 87.2406 52.8751 87.1687 52.947L87.2844 52.847L85.5875 53.1188C85.588 53.1093 85.5864 53.0997 85.5829 53.0908C85.5795 53.0819 85.5742 53.0738 85.5674 53.067C85.5607 53.0603 85.5526 53.055 85.5437 53.0515C85.5347 53.0481 85.5252 53.0465 85.5156 53.047C84.935 53.22 84.3362 53.3249 83.7313 53.3595C83.6527 53.3661 83.5778 53.3954 83.5156 53.4438C83.5156 53.398 83.4875 53.3741 83.4313 53.372L82.7188 53.4282L82.2469 53.5438C82.2469 53.498 82.2188 53.4741 82.1625 53.472C81.9385 53.5342 81.7095 53.5771 81.4781 53.6001C81.3625 53.6001 81.5344 53.572 81.45 53.5282L81.25 53.6063H80.4375C79.1875 53.7626 79.325 53.7782 79.1875 53.7907L78.7156 53.7626C78.7156 53.8063 78.7156 53.8345 78.6438 53.847C78.1167 53.7761 77.8458 53.6907 77.8313 53.5907C77.9031 53.0907 78.0156 52.8345 78.2031 52.8063H78.2875L78.2031 52.9782H78.2875C78.4594 52.8938 78.5312 52.8063 78.5312 52.722V52.5501H78.3594V52.3939C78.3442 52.2825 78.3593 52.1692 78.4031 52.0657L78.7875 51.4407V51.597H78.9719V51.4407L78.8719 51.2845C78.9597 51.1908 79.0743 51.1264 79.2 51.1001V51.0157H78.9563V50.772C79.2693 50.2102 79.5087 49.6105 79.6687 48.9876L79.8406 49.0595C79.9563 49.0595 80.0125 48.9876 79.9969 48.8751H79.825V48.8126C79.8108 48.695 79.8303 48.5758 79.8813 48.4688C80.0015 48.3623 80.096 48.2299 80.1577 48.0816C80.2194 47.9333 80.2467 47.773 80.2375 47.6126C80.2489 47.611 80.2606 47.6122 80.2715 47.6159C80.2825 47.6196 80.2924 47.6257 80.3006 47.6339C80.3088 47.6421 80.3149 47.652 80.3186 47.6629C80.3223 47.6739 80.3234 47.6855 80.3219 47.697C80.549 47.572 80.725 47.2251 80.85 46.6563C81.519 45.2459 82.0912 43.7915 82.5625 42.3032C83.2673 40.6468 83.7912 38.919 84.125 37.1501H83.9531C83.9653 37.2644 83.9401 37.3795 83.8812 37.4782C83.7948 37.4407 83.7031 37.4165 83.6094 37.4063V37.3345C83.6151 36.8981 83.7657 36.476 84.0375 36.1345H84.0625L84.2063 36.6907H84.3781C84.3781 36.647 84.4219 36.4345 84.5062 36.0188C84.5042 35.9355 84.4375 35.8876 84.3063 35.8751L84.15 35.9751V35.0626L83.9938 35.0907L84.0031 35.097ZM81.9469 37.5657H82.0312C81.9031 37.7938 81.8031 37.922 81.7031 37.9376V37.6938C81.7929 37.6698 81.8762 37.626 81.9469 37.5657ZM81.2344 39.2782C81.4094 38.5782 81.576 38.1782 81.7344 38.0782V38.1626C81.65 38.8188 81.5062 39.147 81.3063 39.1751L81.3344 39.5876C81.2045 39.7278 81.1281 39.9092 81.1188 40.1001H81.0344L80.9906 39.5282C81.075 39.5282 81.1625 39.4282 81.2188 39.2563L81.2344 39.2782ZM80.9625 40.2157C80.9373 40.4481 80.8751 40.6749 80.7781 40.8876H80.6938V40.6438C80.775 40.3626 80.875 40.2188 80.9625 40.2063V40.2157ZM76.275 50.5907L76.3594 50.747C76.4885 50.7324 76.5458 50.6751 76.5312 50.5751V50.4907H76.4469L76.2906 50.5751L76.275 50.5907ZM78.5312 52.4657V52.5376C78.6594 52.5376 78.7875 52.2938 78.9031 51.8532L78.7313 51.797C78.6396 52.0127 78.5725 52.2381 78.5312 52.4688V52.4657ZM92.975 52.9657V53.0376L92.8313 53.2095L93.1031 53.1095H93.125V52.9532H93.0687L92.9688 53.0376C92.9688 52.9938 93.2813 52.9095 93.0406 52.8657C92.9781 52.922 93.0938 52.9345 92.9656 52.9501L92.975 52.9657ZM93.5312 53.4782L93.9156 53.4501C93.9156 53.3501 93.6594 53.322 93.5719 53.322H93.5156V53.4782H93.5312ZM86.7094 53.622L86.825 53.7657C86.825 53.722 86.825 53.6938 86.8813 53.6938L86.9656 53.8501L86.6094 53.8063C86.5625 53.6782 86.6125 53.622 86.7 53.6063L86.7094 53.622ZM85.5406 53.7501C85.5674 53.7449 85.595 53.7458 85.6214 53.7528C85.6477 53.7597 85.6722 53.7726 85.6929 53.7903C85.7136 53.808 85.7301 53.8302 85.7411 53.8551C85.752 53.8801 85.7572 53.9072 85.7562 53.9345H85.3438V53.8626C85.4131 53.84 85.4763 53.8014 85.5281 53.7501H85.5406ZM86.4531 53.7064V53.7907L86.125 53.8188V53.7345L86.4531 53.7064ZM83.1406 54.0501C83.1406 54.0959 83.1688 54.1199 83.225 54.122C83.7531 54.022 83.6969 54.0063 83.9531 53.9782C84.0365 53.9761 84.0844 54.0241 84.0969 54.122L82.6281 54.2501L82.7719 54.322V54.2376L82.2156 54.2813V54.197L82.7156 54.1532L83.1719 54.0532L83.1406 54.0501ZM84.6531 53.922V53.9938C84.6094 53.9938 84.7969 53.9938 84.7094 54.0782C84.5256 54.0471 84.3395 54.0324 84.1531 54.0345V53.9626L84.6531 53.922ZM85.025 53.8782V53.9501L84.7531 53.9782V53.9063L85.025 53.8782ZM75.8906 55.3345V55.5782C75.8063 55.5782 75.7344 55.5345 75.7063 55.422V55.3501H75.8781L75.8906 55.3345ZM88.1063 55.1188V55.2751L88.3906 55.247L88.275 55.1751V55.2595L88.5594 55.1438C90.5156 54.9282 90.7469 55.0157 90.7156 54.7876V54.7157C89.8533 54.9479 88.9675 55.0821 88.075 55.1157L88.1063 55.1188ZM91.1594 54.847L91.4437 54.9032V54.747L91.1594 54.6907V54.847ZM82.7219 55.4032C82.8063 55.447 82.6219 55.4876 82.7219 55.4751L83.7219 55.3907V55.4751C83.538 55.474 83.3567 55.518 83.1937 55.6032C83.1953 55.5918 83.1942 55.5801 83.1905 55.5692C83.1868 55.5582 83.1806 55.5483 83.1725 55.5401C83.1643 55.532 83.1544 55.5258 83.1434 55.5221C83.1325 55.5184 83.1208 55.5173 83.1094 55.5189L82.6813 55.5626V55.4782C82.7969 55.4782 82.625 55.4782 82.7094 55.4063L82.7219 55.4032ZM87.3469 55.2876L87.4313 55.4438C87.7594 55.372 87.575 55.3876 87.6594 55.3157C87.6594 55.372 87.6875 55.4001 87.7156 55.4001H87.9438V55.2282H87.3438V55.3126L87.3469 55.2876ZM81.6938 55.9126H81.6375V55.7563H81.6938V55.9126ZM77.2281 56.4563V56.5407L79.8531 56.3251V56.1688L77.7563 56.3407L77.2937 56.2501L77.2281 56.4563ZM80.1531 56.3001H80.1813V56.1438H80.1531V56.3001ZM40.1719 42.5001C39.1203 43.6494 38.1562 44.8757 37.2875 46.1688C36.5312 46.9532 36.1594 47.4188 36.2031 47.5813C36.0031 47.7063 35.9177 47.8397 35.9469 47.9813C35.9345 47.9856 35.9214 47.9871 35.9084 47.9857C35.8955 47.9842 35.883 47.9799 35.8719 47.973C35.8608 47.9661 35.8514 47.9569 35.8444 47.9459C35.8373 47.9349 35.8329 47.9224 35.8312 47.9095C35.6744 48.1688 35.4653 48.3928 35.2173 48.5671C34.9693 48.7414 34.6878 48.8622 34.3906 48.922L33.7188 49.0782C33.6344 49.0782 33.5906 49.1626 33.5906 49.2782V49.3626L33.8469 49.3063V49.3782L33.275 49.5938L32.2625 49.822L31.7344 49.8501C31.6625 49.922 32.1469 49.8501 31.9625 49.8938L31.3062 50.0501C30.9062 50.1501 30.6812 50.1063 30.65 49.9501H30.5781C30.6198 50.1084 30.5812 50.2032 30.4625 50.2345L30.5906 50.2063L30.5344 49.9626L29.3344 50.247L29.4625 50.3032C29.4625 50.247 29.3906 50.2313 29.2781 50.2595L29.1219 50.3876L28.9375 50.3438C28.8395 50.4075 28.7347 50.4599 28.625 50.5001L28.4406 50.4563C27.9406 50.7407 28.3125 50.7407 28.2844 50.7407L28.3281 50.897L28.6125 50.8251L29.0562 50.797L29.0125 50.9813C27.3844 51.4095 28.5688 51.1657 28.1281 51.2657H28.0437L28.0875 51.422L28.3437 51.3657V51.4501C28.1382 51.4735 27.9417 51.5476 27.7719 51.6657V51.5813C27.2483 51.7547 26.7967 52.0964 26.4875 52.5532C26.5594 52.8657 25.6313 53.2532 29.9969 52.2407C30.3094 52.2407 30.4687 52.2407 30.5094 52.2126C30.5094 52.1563 30.5094 52.1282 30.5812 52.1126C31.0656 52.0563 30.8375 52.1407 31.1375 52.0688L32.075 51.8532L31.875 51.9688C31.875 51.9251 31.875 51.897 31.9313 51.8845C32.0483 51.9131 32.1705 51.9131 32.2875 51.8845L32.3438 52.1282L28.6562 58.0438L27.8125 59.0626L27.4125 60.4188H27.4844L27.8844 60.247L27.7562 60.7751L27.8 60.9313L27.9156 61.0751C27.8594 61.0751 27.8438 61.1188 27.8594 61.1751V61.2595L28.0312 61.2157C28.2729 60.9991 28.3771 60.8043 28.3437 60.6313C28.5174 60.6673 28.6947 60.682 28.8719 60.6751V60.7595C28.7156 60.8032 28.6302 60.9313 28.6156 61.1438V61.2282H28.7C30.0562 59.7595 33.3531 54.7188 36.0063 51.2938C35.9208 50.923 37.3052 50.4095 40.1594 49.7532H40.2438C40.2271 50.8687 40.0046 51.9716 39.5875 53.0063C39.3677 53.5549 39.2003 54.1231 39.0875 54.7032C38.8036 55.4284 38.5881 56.1785 38.4437 56.9438L37.5 60.2282C36.8311 61.9652 36.3289 63.7618 36 65.5938C36.0846 65.5872 36.1697 65.5978 36.25 65.6251L36.3937 65.497C36.3958 65.5491 36.4344 65.573 36.5094 65.5688L36.4531 65.3251H36.8969C37.0281 65.2938 37.1375 65.1272 37.225 64.8251C37.225 64.3813 37.2969 64.1407 37.4969 64.0845C37.5996 63.5292 37.7674 62.988 37.9969 62.472C38.1064 61.8452 38.2987 61.2357 38.5687 60.6595C38.95 59.2866 39.2302 58.5782 39.4094 58.5345L39.4531 58.7063L39.1813 59.4345C38.8153 61.1775 38.3191 62.8906 37.6969 64.5595L37.8406 65.1845H37.925C39.9712 60.1569 41.7108 55.01 43.1344 49.772C43.162 49.4534 43.2644 49.1459 43.4332 48.8744C43.6021 48.6028 43.8327 48.375 44.1063 48.2095L43.9781 48.0813V48.0095C44.1918 47.9761 44.3855 47.8647 44.5219 47.697C44.5073 47.6407 44.2792 47.5553 43.8375 47.4407L45.1781 41.7032C45.5412 40.2129 45.8126 38.7018 45.9906 37.1782V37.0938C45.6892 36.898 45.4239 36.6517 45.2062 36.3657V35.9501H45.1344C44.3062 37.2001 42.65 39.3876 40.2094 42.5126L40.1719 42.5001ZM42.0687 43.8001C42.0886 44.3741 41.9764 44.9451 41.7406 45.4688C41.6531 46.4938 41.2865 47.0834 40.6406 47.2376V47.1532L40.0687 47.3688L39.8125 47.4251C39.6963 47.4597 39.5725 47.4597 39.4562 47.4251L39.4 47.197C40.1532 45.9981 40.9798 44.847 41.875 43.7501L42.075 43.7782L42.0687 43.8001ZM40.7562 47.3688L40.9406 47.3251L40.9844 47.4813C40.0844 47.7501 39.5844 47.898 39.4844 47.9251C39.3932 47.9537 39.3098 48.0029 39.2406 48.0688C39.2406 48.0126 39.1125 48.0126 38.8844 48.0688C38.8427 47.9126 39.4677 47.6845 40.7594 47.3845L40.7562 47.3688ZM31.8938 49.7657L32.0938 49.722L32.05 49.5501L31.85 49.5938L31.8938 49.7657ZM34.5062 49.0813L34.55 49.2376L34.1219 49.2657V49.1813L34.5219 49.0813H34.5062ZM29.5063 50.722V50.8063L29.2344 50.8626V50.7782L29.5063 50.722ZM29.0062 51.7626V51.8345L28.6781 51.9063L28.6344 51.7501H28.9906L29.0062 51.7626ZM29.7906 51.5907V51.6626L29.1906 51.8063V51.7345L29.7906 51.5907ZM30.8312 51.4188V51.5032L29.2687 51.8595L29.225 51.7032C30.1375 51.547 30.0375 51.6032 30.8219 51.4188H30.8312ZM38.6937 49.5907L38.8219 49.7345C38.6769 49.7596 38.5399 49.8185 38.4219 49.9063L38.2375 49.8782C37.9959 49.9748 37.7486 50.0562 37.4969 50.122L37.325 50.1657C37.3033 50.1734 37.2802 50.1764 37.2573 50.1747C37.2343 50.1729 37.212 50.1664 37.1917 50.1555C37.1714 50.1446 37.1536 50.1296 37.1394 50.1115C37.1252 50.0933 37.115 50.0724 37.1094 50.0501L38.2937 49.7782L38.6937 49.5907ZM39.5344 49.4063L40.375 49.2063V49.2907C40.0052 49.3618 39.6453 49.4773 39.3031 49.6345V49.5501C39.3941 49.5183 39.4764 49.4659 39.5438 49.397L39.5344 49.4063ZM30.6844 51.8032L31.0844 51.7188L31.1281 51.8751C30.9563 51.9188 31.0844 51.9188 30.8719 52.0188C30.5391 52.0263 30.2085 52.0745 29.8875 52.1626V52.0782L30.6844 51.8032ZM31.7688 51.6188C31.8844 51.5907 31.9531 51.6188 31.9687 51.747L31.725 51.8032C31.625 51.8324 31.5531 51.7897 31.5094 51.6751L31.7656 51.6188H31.7688ZM27.3156 60.6251V60.7095C27.4312 60.6813 27.4719 60.6251 27.4437 60.5095V60.4251C27.4214 60.4282 27.4 60.4361 27.381 60.4483C27.3619 60.4604 27.3458 60.4766 27.3336 60.4956C27.3214 60.5146 27.3135 60.536 27.3104 60.5584C27.3073 60.5807 27.3091 60.6035 27.3156 60.6251ZM27.6594 62.0532C27.6619 62.0755 27.6697 62.0969 27.682 62.1157C27.6943 62.1345 27.7108 62.1502 27.7303 62.1614C27.7497 62.1726 27.7715 62.1792 27.7939 62.1805C27.8164 62.1818 27.8388 62.1778 27.8594 62.1688C27.975 62.1407 28.0156 62.0845 27.9875 61.9688V61.8845L27.8156 61.9282L27.6719 62.0563L27.6594 62.0532ZM75.4531 37.3657L76.0969 37.1845C76.3531 37.2136 76.4813 37.2657 76.4813 37.3407C76.7432 37.2475 77.0165 37.1897 77.2937 37.1688V37.0688L76.6375 37.0407L75.3531 37.2563L74.7969 37.2126C74.7969 37.2563 74.8531 37.3157 74.9656 37.3907L75.4531 37.3657ZM36.7656 64.5001C36.7862 64.4912 36.8086 64.4872 36.8311 64.4885C36.8535 64.4898 36.8753 64.4963 36.8947 64.5075C36.9142 64.5188 36.9307 64.5344 36.943 64.5532C36.9553 64.572 36.9631 64.5934 36.9656 64.6157V64.7001L36.6375 64.772C36.6552 64.6875 36.6552 64.6002 36.6375 64.5157H36.7375L36.7656 64.5001ZM49.9813 38.097C49.1685 38.6736 48.3256 39.2067 47.4562 39.6938V39.8501C47.5493 39.8315 47.637 39.792 47.7125 39.7345C47.7343 39.7293 47.757 39.7291 47.779 39.7339C47.8009 39.7387 47.8214 39.7484 47.8391 39.7622C47.8568 39.776 47.8712 39.7936 47.8812 39.8136C47.8912 39.8337 47.8965 39.8558 47.8969 39.8782L48.0531 39.7938H48.125V39.8657C47.596 40.3901 47.0065 40.8496 46.3688 41.2345L46.4531 41.4063H46.3812L46.1969 41.3345C46.1969 41.3907 46.125 41.4345 45.9531 41.4501V41.522L46.1375 41.7501C46.0426 41.7471 45.9496 41.7225 45.8656 41.6782C45.6293 41.7275 45.4063 41.827 45.2117 41.9698C45.0171 42.1127 44.8554 42.2956 44.7375 42.5063L44.8219 42.6626C44.9855 42.4795 45.1789 42.3252 45.3937 42.2063V42.4501C45.3007 42.4687 45.213 42.5082 45.1375 42.5657L45.3531 42.8782C45.7257 42.4617 46.1524 42.097 46.6219 41.7938C46.85 41.8657 46.9781 41.9376 46.9781 42.0095H47.15C48.2965 41.1397 49.5725 40.4553 50.9313 39.9813V40.1376C50.7021 40.4772 50.5448 40.6532 50.4594 40.6657C50.4741 40.775 50.5079 40.8807 50.5594 40.9782C50.1039 42.4448 49.5409 43.8757 48.875 45.2595C46.9782 49.9274 44.7863 54.47 42.3125 58.8595C42.328 58.9498 42.368 59.0341 42.4281 59.1032C42.7226 59.0566 43.0044 58.9502 43.2562 58.7907H43.3281V58.947H43.5125L43.6688 58.8626C43.6688 58.9063 43.725 58.9345 43.8406 58.9188V59.0907C43.8148 59.3568 43.7212 59.6118 43.5688 59.8313C43.2962 60.2139 43.098 60.6443 42.9844 61.1001V61.1845H43.1562C43.7992 60.4824 44.3419 59.6947 44.7687 58.8438C46.4011 58.4012 47.9875 57.8037 49.5062 57.0595C50.4065 57.0307 51.2774 56.7324 52.0062 56.2032V56.1188L51.5781 56.247H51.4938V56.1626C52.0864 56.1221 52.6597 55.9352 53.1625 55.6188C54.725 54.4063 55.9146 53.5501 56.7313 53.0501C59.2156 51.222 60.3844 49.4813 60.2406 47.797C59.7931 47.0379 59.2408 46.3456 58.6 45.7407C58.5854 45.5116 58.9563 45.1834 59.7125 44.7563L61.8813 42.8813C62.453 41.9873 62.7506 40.9456 62.7375 39.8845L62.7094 39.572C62.626 38.6178 61.9271 37.8428 60.6125 37.247C59.3119 36.5999 57.8663 36.2996 56.4156 36.3751C54.1727 36.652 51.9808 37.2476 49.9062 38.1438L49.9813 38.097ZM61.6 38.2126L61.5156 38.3845L59.1188 37.372C60.7313 37.4438 61.5563 37.7157 61.6 38.2126ZM51.875 44.9001C52.0458 44.0022 52.2313 43.498 52.4312 43.3876L54.2437 39.3251C54.2437 39.0813 54.6 38.8813 55.3844 38.7407L55.6406 38.7126V38.9563C56.4115 38.8272 56.8917 38.7553 57.0813 38.7407C58.5094 38.6126 59.25 38.9126 59.3063 39.597H59.4781L59.45 39.2126H59.6219C59.7923 39.284 59.9419 39.3973 60.0566 39.5422C60.1714 39.687 60.2476 39.8585 60.2781 40.0407C60.2607 40.3562 60.1399 40.6571 59.9344 40.897C59.8219 40.8991 59.7604 40.823 59.75 40.6688H59.5781L59.5219 41.1532C58.7927 42.2511 58.2719 42.8126 57.9594 42.8376C57.674 43.2376 57.4885 43.4376 57.4031 43.4376C56.844 43.974 56.2205 44.439 55.5469 44.822C54.2579 45.2005 53.0034 45.6876 51.7969 46.2782C51.6887 46.2315 51.5695 46.2164 51.4531 46.2345V46.0782C51.4675 45.6556 51.6116 45.2476 51.8656 44.9095L51.875 44.9001ZM61.8375 39.9001V40.072C61.7563 40.072 61.5896 39.8147 61.3375 39.3001V39.1438C61.4813 39.1345 61.6531 39.3907 61.8219 39.9063L61.8375 39.9001ZM46.025 41.8407V41.9251C45.9332 41.939 45.8457 41.9731 45.7687 42.0251H45.6969V41.8688L46.025 41.8407ZM51.25 41.7188V41.9626C51.1656 41.9626 51.0656 42.0907 50.9375 42.3063V42.1501C51.0493 42.0312 51.1241 41.8825 51.1531 41.722L51.25 41.7188ZM50.4375 43.4032L50.4656 43.7157H50.3812L50.3531 43.4032H50.4375ZM50.2375 43.9876C50.2229 44.2584 50.151 44.4011 50.0219 44.4157H49.9375C50.021 44.2885 50.0655 44.1397 50.0656 43.9876H50.2375ZM49.8656 44.8282V44.9126L49.7219 45.1688H49.55V45.0845C49.7219 45.0845 49.8062 44.9845 49.7938 44.8126L49.8656 44.8282ZM49.5094 45.5845L49.4531 45.997H49.375L49.3469 45.5845H49.5094ZM58.3 45.897L58.6563 46.1126C58.6616 46.1349 58.6614 46.1581 58.6556 46.1803C58.6499 46.2024 58.6389 46.2229 58.6235 46.2398C58.6081 46.2567 58.5888 46.2697 58.5673 46.2774C58.5458 46.2852 58.5227 46.2876 58.5 46.2845C58.3974 46.206 58.2729 46.1612 58.1438 46.1563V45.9126H58.3V45.897ZM51.425 46.8095V46.9657L51.0813 46.9938V46.8376L51.425 46.8095ZM56.9781 47.3938C57.2219 47.5095 57.3344 47.6095 57.35 47.7063V47.7782C57.2211 47.7792 57.0942 47.7469 56.9814 47.6845C56.8687 47.6221 56.7739 47.5317 56.7063 47.422L56.9781 47.3938ZM49.8281 49.1501C51.4127 48.8925 52.9576 48.4325 54.425 47.7813L54.9531 47.7376C55.3697 47.6672 55.7965 47.6866 56.205 47.7944C56.6135 47.9021 56.9943 48.0959 57.3219 48.3626L57.35 48.6751C56.9646 49.7876 56.5365 50.4438 56.0656 50.6438L53.9094 52.3845C53.0759 52.9823 52.1984 53.5161 51.2844 53.9813C49.7917 54.922 48.1793 55.6578 46.4906 56.1688H46.4062C46.4625 55.8689 47.6083 53.523 49.8438 49.1313L49.8281 49.1501ZM52.1531 48.2126V48.297L51.8094 48.3251V48.2407L52.1531 48.2126ZM59.9313 47.8563L59.9875 48.5126C59.9031 48.6688 59.8313 48.7563 59.7438 48.7688L59.6438 47.6563C59.8271 47.7147 59.9208 47.7813 59.925 47.8563H59.9313ZM46.7531 53.4376C46.6375 53.9813 46.525 54.2657 46.4094 54.2657V54.1938C46.3966 54.0488 46.4215 53.903 46.4817 53.7705C46.542 53.638 46.6355 53.5233 46.7531 53.4376ZM48.9094 56.4907C50.7321 55.7824 52.47 54.8726 54.0906 53.7782V53.9345C54.0906 54.0063 53.8625 54.2188 53.3625 54.5595C52.473 54.9553 51.6224 55.4334 50.8219 55.9876C49.2635 56.5334 48.4927 56.8709 48.5094 57.0001C47.578 57.3456 46.6681 57.7463 45.7844 58.2001C45.6272 58.2012 45.473 58.1567 45.3406 58.072C45.3287 57.9357 45.3578 57.799 45.424 57.6793C45.4903 57.5596 45.5907 57.4624 45.7125 57.4001C45.9452 57.3819 46.1791 57.4161 46.3969 57.5001C46.83 57.3136 47.2786 57.1651 47.7375 57.0563V56.9001L47.2094 56.9438C47.6716 56.6485 48.1707 56.4152 48.6937 56.2501L48.95 56.222V56.2938C48.5104 56.3355 48.2635 56.4688 48.2094 56.6938C48.2097 56.7163 48.2151 56.7383 48.2251 56.7584C48.2351 56.7785 48.2494 56.7961 48.2671 56.8099C48.2848 56.8237 48.3054 56.8333 48.3273 56.8381C48.3492 56.8429 48.3719 56.8427 48.3937 56.8376C48.75 56.6657 48.9062 56.5251 48.9062 56.4938L48.9094 56.4907ZM46.2406 54.5345V54.6063C46.2468 54.6293 46.2473 54.6534 46.2421 54.6766C46.237 54.6998 46.2262 54.7214 46.2109 54.7395C46.1955 54.7577 46.176 54.7718 46.1539 54.7807C46.1319 54.7896 46.108 54.7931 46.0844 54.7907V54.7063C46.0844 54.6345 46.1406 54.5626 46.2562 54.5345H46.2406ZM50.3031 55.647C49.8923 55.7472 49.5013 55.9163 49.1469 56.147H49.0625V55.9907C49.4656 55.9604 49.8452 55.7888 50.1344 55.5063C50.25 55.5063 50.3062 55.5345 50.3187 55.6345L50.3031 55.647ZM46.1062 56.8157L46.3625 56.7876V56.872C46.2707 56.8859 46.1832 56.92 46.1062 56.972H45.9344C45.9344 56.8876 45.9781 56.8282 46.0906 56.8001L46.1062 56.8157ZM44.3781 57.772L44.55 57.8438C44.4937 58.3438 44.3344 58.6001 44.1063 58.6157C43.9427 58.5336 43.7611 58.4938 43.5781 58.5001V58.2563C43.5781 58.172 43.6219 58.1126 43.7344 58.0845C43.8469 58.0563 43.9062 58.1563 43.9188 58.3126C44.0508 58.1212 44.2039 57.9451 44.375 57.7876L44.3781 57.772ZM16.3813 37.3938C15.318 38.1619 14.2075 38.8622 13.0563 39.4907V39.7063C13.1727 39.6848 13.2841 39.6413 13.3844 39.5782C13.5281 39.5782 13.6125 39.622 13.6125 39.7626L13.8406 39.6345H13.9563V39.7345C13.2555 40.4282 12.475 41.0366 11.6312 41.547L11.7594 41.747H11.6438L11.4 41.6626C11.4 41.7345 11.3 41.7782 11.0719 41.7907V41.9063L11.3281 42.1907C11.21 42.1886 11.0934 42.1642 10.9844 42.1188C10.6725 42.1848 10.3784 42.3172 10.1222 42.507C9.8661 42.6968 9.65386 42.9396 9.5 43.2188L9.62813 43.4188C9.84401 43.1877 10.0937 42.9907 10.3688 42.8345L10.3969 43.147C10.2804 43.1686 10.169 43.212 10.0687 43.2751L10.3406 43.6751C10.8393 43.1292 11.4102 42.654 12.0375 42.2626C12.35 42.3438 12.5073 42.4386 12.5094 42.547H12.7375C14.2424 41.3983 15.9179 40.4926 17.7031 39.8626V40.0782C17.3948 40.5324 17.1865 40.7657 17.0781 40.7782C17.0967 40.9262 17.1502 41.0676 17.2344 41.1907C16.6454 43.1226 15.9013 45.0037 15.0094 46.8157C12.5174 52.9629 9.64411 58.9485 6.40625 64.7376C6.42969 64.8487 6.4731 64.9545 6.53438 65.0501C6.92382 64.9834 7.29708 64.8434 7.63438 64.6376H7.7625V64.8532H7.97813L8.21875 64.6876C8.21875 64.7595 8.30313 64.7876 8.44688 64.772V64.9876C8.41942 65.3445 8.29038 65.6861 8.075 65.972C7.72229 66.4769 7.4659 67.0426 7.31875 67.6407V67.7407H7.53438C8.37891 66.8192 9.09382 65.7867 9.65938 64.672C11.8143 64.0913 13.9075 63.3022 15.9094 62.3157C17.0975 62.2837 18.2476 61.8902 19.2062 61.1876V61.072L18.6625 61.2282H18.5344V61.1126C19.309 61.0484 20.058 60.8044 20.7219 60.4001C22.7885 58.8063 24.351 57.6741 25.4094 57.0032C28.6781 54.6063 30.2188 52.2938 30.0344 50.097C29.4438 49.1026 28.7182 48.195 27.8781 47.4001C27.85 47.0876 28.35 46.672 29.3469 46.1001L32.1875 43.6001C32.9322 42.4218 33.3277 41.0565 33.3281 39.6626L33.2844 39.2345C33.1687 37.9657 32.2563 36.9376 30.5156 36.1532C28.8073 35.3036 26.9036 34.9239 25 35.0532C22.0403 35.4493 19.1463 36.2364 16.3937 37.3938H16.3813ZM31.6938 37.5782L31.6094 37.7938L28.4375 36.4657C30.55 36.5511 31.6344 36.922 31.6906 37.5782H31.6938ZM18.8812 46.3688C19.0958 45.198 19.3385 44.5324 19.6094 44.372L21.9781 39.0595C21.949 38.7303 22.4531 38.4782 23.4906 38.3032L23.8344 38.2751L23.8625 38.5876C24.8875 38.4334 25.5198 38.3428 25.7594 38.3157C27.6344 38.1553 28.6146 38.5355 28.7 39.4563H28.9156L28.8719 38.9126H29.1C29.3312 39.0055 29.5342 39.1569 29.6893 39.3519C29.8443 39.5469 29.946 39.7789 29.9844 40.0251C29.9695 40.4439 29.7964 40.8414 29.5 41.1376C29.3562 41.1376 29.2719 41.0532 29.2563 40.8251H29.0281L28.9719 41.4688C28.0177 42.8959 27.3281 43.6251 26.9031 43.6563C26.5177 44.1834 26.275 44.4543 26.175 44.4688C25.4304 45.172 24.606 45.7855 23.7188 46.297C22.026 46.7943 20.3785 47.4341 18.7937 48.2095C18.6518 48.1419 18.4933 48.1169 18.3375 48.1376V47.9376C18.3514 47.3707 18.5463 46.8232 18.8938 46.3751L18.8812 46.3688ZM32.0062 39.8063V40.0063C31.8906 40.0063 31.6781 39.6782 31.3625 38.9938V38.7938C31.5375 38.7501 31.7531 39.1063 31.9813 39.8063H32.0062ZM11.1687 42.347V42.447C11.0523 42.4686 10.9409 42.512 10.8406 42.5751H10.725V42.3751L11.1687 42.347ZM18.0375 42.1876L18.0656 42.5001C17.9615 42.5022 17.824 42.6543 17.6531 42.9563V42.7407C17.8118 42.5917 17.9209 42.3975 17.9656 42.1845L18.0375 42.1876ZM16.9812 44.4126L17.025 44.8407H16.9094L16.875 44.4157L16.9812 44.4126ZM16.7094 45.1845C16.6813 45.5407 16.5938 45.7282 16.3969 45.7407H16.2812C16.39 45.5791 16.4537 45.3914 16.4656 45.197L16.7094 45.1845ZM16.2375 46.297V46.397L16.0375 46.7407H15.8219V46.6407C15.8672 46.6471 15.9134 46.6422 15.9565 46.6267C15.9995 46.6111 16.0381 46.5852 16.0689 46.5514C16.0997 46.5175 16.1217 46.4766 16.1332 46.4323C16.1446 46.3879 16.145 46.3415 16.1344 46.297H16.25H16.2375ZM15.7531 47.297L15.6969 47.8251H15.5813L15.5375 47.297H15.7531ZM27.3156 47.6813L27.7875 47.9657C27.7942 47.9954 27.794 48.0262 27.7869 48.0557C27.7799 48.0853 27.7663 48.1129 27.747 48.1364C27.7277 48.1599 27.7033 48.1787 27.6757 48.1913C27.648 48.204 27.6179 48.2102 27.5875 48.2095C27.4501 48.1059 27.2869 48.0421 27.1156 48.0251L27.0875 47.7126L27.3156 47.6813ZM18.2531 48.8938V49.0938L17.8094 49.1376V48.9376L18.2531 48.8938ZM25.5594 49.6345C25.8719 49.7803 26.0333 49.9136 26.0437 50.0345V50.1345C25.8761 50.137 25.7109 50.0946 25.5652 50.0116C25.4196 49.9286 25.2989 49.8081 25.2156 49.6626L25.5594 49.6345ZM16.1406 51.947C18.2304 51.6073 20.2686 51.0035 22.2062 50.1501L22.8781 50.0938C23.4259 49.9949 23.9886 50.0152 24.5278 50.1532C25.0671 50.2913 25.5703 50.5439 26.0031 50.8938L26.0469 51.322C25.5344 52.8063 24.9625 53.6626 24.35 53.9345L21.4969 56.2032C20.4031 56.9888 19.2543 57.6948 18.0594 58.3157C16.0974 59.5631 13.9748 60.5377 11.75 61.2126H11.6219C11.7375 60.8126 13.2344 57.7313 16.1469 51.9345L16.1406 51.947ZM19.2219 50.7345V50.8345L18.7656 50.8782V50.7782L19.2219 50.7345ZM29.4688 50.2782L29.5406 51.1188C29.4427 51.348 29.3385 51.4626 29.2281 51.4626L29.1 49.9782C29.3563 50.0657 29.4688 50.1657 29.4844 50.2657L29.4688 50.2782ZM12.1156 57.6313C11.9719 58.3595 11.8031 58.7313 11.6594 58.7438V58.6439C11.6516 58.4497 11.6904 58.2565 11.7725 58.0804C11.8546 57.9042 11.9776 57.7503 12.1312 57.6313H12.1156ZM14.9688 61.6563C17.362 60.7102 19.6486 59.5139 21.7906 58.0876V58.2876C21.7948 58.3709 21.476 58.647 20.8344 59.1157C19.6546 59.6235 18.5343 60.2596 17.4938 61.0126C15.4396 61.7251 14.4219 62.1678 14.4406 62.3407C13.2124 62.7998 12.0115 63.3288 10.8438 63.9251C10.6391 63.9216 10.4384 63.868 10.2594 63.7688C10.2433 63.5844 10.2822 63.3993 10.3712 63.2369C10.4601 63.0745 10.5952 62.9421 10.7594 62.8563C11.0708 62.8274 11.3845 62.8768 11.6719 63.0001C12.2411 62.7513 12.8336 62.5598 13.4406 62.4282V62.2126L12.7688 62.2688C13.3835 61.8904 14.04 61.5842 14.725 61.3563L15.0688 61.3282V61.4282C14.4969 61.472 14.1688 61.6563 14.0969 61.9563C14.0967 61.9845 14.1028 62.0124 14.1149 62.0379C14.1269 62.0634 14.1446 62.0858 14.1665 62.1035C14.1884 62.1212 14.2141 62.1338 14.2415 62.1402C14.2689 62.1467 14.2975 62.1468 14.325 62.1407C14.553 62.0064 14.763 61.8436 14.95 61.6563H14.9688ZM11.4594 59.0626V59.1626C11.466 59.1923 11.4658 59.223 11.4588 59.2526C11.4518 59.2822 11.4381 59.3098 11.4188 59.3333C11.3996 59.3568 11.3752 59.3756 11.3476 59.3882C11.3199 59.4009 11.2898 59.4071 11.2594 59.4063V59.3063C11.2559 59.2771 11.2584 59.2475 11.2667 59.2192C11.2749 59.191 11.2888 59.1647 11.3075 59.1419C11.3262 59.1192 11.3493 59.1004 11.3754 59.0868C11.4014 59.0731 11.43 59.0649 11.4594 59.0626ZM16.7969 60.5188C16.2534 60.6556 15.7369 60.8827 15.2688 61.1907H15.1531V60.9751C15.6824 60.9374 16.18 60.7086 16.5531 60.3313C16.699 60.3313 16.7802 60.397 16.7969 60.5282V60.5188ZM11.25 62.0688L11.5938 62.0407V62.1563C11.4773 62.1779 11.3659 62.2214 11.2656 62.2845H11.05C11.0594 62.1876 11.1156 62.1126 11.25 62.0688ZM8.98125 63.3376L9.225 63.4376C9.14062 64.0813 8.95312 64.4095 8.625 64.4376C8.4059 64.3363 8.16631 64.287 7.925 64.2938L7.89688 63.9813C7.89688 63.8532 7.95312 63.7813 8.1125 63.7376C8.27188 63.6938 8.34063 63.822 8.35625 64.0501C8.54064 63.7964 8.75003 63.5619 8.98125 63.3501V63.3376ZM72.2906 35.2938L72.1062 35.222L69.0656 35.6938C68.9372 35.6328 68.7946 35.608 68.6531 35.622C68.3788 35.6612 68.1073 35.7186 67.8406 35.7938L66.3719 36.4188L66.4875 36.6032C66.6002 36.5937 66.7082 36.5537 66.8 36.4876L67.3125 36.5313L67.2406 37.0157C67.034 37.0882 66.8494 37.2124 66.7044 37.3765C66.5594 37.5407 66.4589 37.7392 66.4125 37.9532C65.6979 38.2678 65.3406 38.4959 65.3406 38.6376V38.722H65.4562L65.6563 38.622L65.8844 38.8938L65.9125 39.2657C65.9271 39.3803 64.7188 41.9303 62.2875 46.9157C60.1896 51.7074 59.0854 54.3386 58.975 54.8095C58.2625 55.0095 57.8344 55.3095 57.725 55.6938C57.725 55.822 57.9531 55.8938 58.3688 55.9376V56.122L58.1844 56.4345L58.2125 56.8063C58.2125 57.0063 58.7563 57.1501 59.775 57.2626C59.775 57.1907 59.8031 57.1626 59.875 57.147C59.8592 57.6092 59.7921 58.0683 59.675 58.5157H59.7906C60.1073 58.1773 60.3237 57.7575 60.4156 57.3032H60.5C60.6 57.3032 60.7156 57.4188 60.8438 57.6751C60.281 58.6553 59.8262 59.6937 59.4875 60.772L59.6031 60.9563H59.7188C60.1925 59.5672 60.7941 58.225 61.5156 56.947C62.7656 56.8345 64.9302 56.6157 68.0094 56.2907L68.1938 56.1751C68.1958 56.2459 68.2344 56.2741 68.3094 56.2595H68.5094L68.6938 56.1438C68.6958 56.2147 68.7344 56.2428 68.8094 56.2282L71.1344 56.0282C71.7552 55.972 72.05 55.7866 72.0188 55.472C72.0188 55.3876 72.375 55.2876 73.1188 55.1876C73.2249 55.193 73.3299 55.2119 73.4313 55.2438C73.4313 55.1876 73.7875 55.1282 74.5312 55.0595C74.5312 54.6751 74.675 54.4595 74.9031 54.4345V54.2501C74.6603 54.2742 74.4212 54.3266 74.1906 54.4063C73.8745 54.4075 73.5595 54.3686 73.2531 54.2907C73.1613 54.3568 73.0533 54.3968 72.9406 54.4063L71.3125 54.4626L71.1125 54.5626C71.1104 54.5043 71.0719 54.4803 70.9969 54.4907H70.9125L70.6969 54.5907C70.6969 54.5366 70.526 54.4886 70.1844 54.447L69.9844 54.5626L69.5844 54.5907V54.4907C71.6719 54.2616 72.7042 53.9761 72.6813 53.6345C72.8083 53.6324 72.8802 53.6938 72.8969 53.8188L73.5219 53.6626V53.4782L68.5219 53.622C68.5219 53.6938 68.4938 53.722 68.4219 53.7376L67.7969 53.6813C67.6562 53.6846 67.5208 53.7353 67.4125 53.8251L67.1844 53.7407C66.7071 53.7696 66.234 53.846 65.7719 53.9688C65.2965 53.9325 64.8191 53.9325 64.3438 53.9688L63.2156 54.0688L62.7031 54.0126C63.1768 52.3219 63.8273 50.6858 64.6438 49.1313C64.8458 48.4433 65.2139 47.8155 65.7156 47.3032C65.8231 47.3091 65.9289 47.3334 66.0281 47.3751L66.8281 47.1032L67.2406 47.1751C68.0618 47.0867 68.8678 46.8902 69.6375 46.5907C69.8095 46.5696 69.9841 46.5845 70.15 46.6345L70.775 46.4907L72.5875 46.3345C73.4361 46.2494 74.2738 46.0776 75.0875 45.822V45.6376C74.7479 45.6647 74.5719 45.6126 74.5594 45.4813C74.5323 45.2272 74.2854 45.123 73.8187 45.1688V44.9845L74.3187 44.8407L75.6312 44.7251V44.5407H74.8187V44.3407L75.3313 44.297C75.4594 44.297 75.5313 44.2126 75.5156 44.097C74.8313 44.097 74.4875 44.097 74.4875 43.997C72.1168 44.2339 69.7308 44.2767 67.3531 44.1251C67.2392 44.1383 67.1311 44.1826 67.0406 44.2532L66.875 44.0001C67.4091 42.5524 68.1547 41.1918 69.0875 39.9626C69.078 40.1397 69.0243 40.3116 68.9313 40.4626V40.547H69.1313C69.6313 39.347 70.0438 38.7345 70.4 38.7063C71.8844 38.5782 70.1844 38.4782 73.3813 37.9782C73.469 38.0244 73.5665 38.049 73.6656 38.0501C74.9156 37.7959 76.6615 37.5345 78.9031 37.2657V37.0813L77.7031 37.197V37.0126C77.834 37.0033 77.9587 36.953 78.0594 36.8688V36.9688C78.161 36.955 78.2559 36.9103 78.3313 36.8407C78.4908 36.8186 78.6533 36.838 78.8031 36.897C79.1305 36.8032 79.4649 36.7363 79.8031 36.697L80.5438 36.6251C80.7292 36.5105 80.8146 36.4063 80.8 36.3126V36.2282C80.5803 36.2368 80.3604 36.2221 80.1438 36.1845C80.1438 36.0845 80.1875 36.0126 80.3156 35.9845L81.7 35.8563L82.3438 35.7001C82.3438 35.772 82.3875 35.8001 82.4281 35.8001C82.5297 35.7863 82.6247 35.7416 82.7 35.672C82.8889 35.7041 83.0803 35.7187 83.2719 35.7157C83.528 35.4711 83.8281 35.2771 84.1562 35.1438C84.0447 35.052 83.9648 34.9274 83.9281 34.7876L82.9906 34.872C82.9728 34.7724 82.9391 34.6764 82.8906 34.5876C82.8906 34.5032 83.0906 34.4157 83.5156 34.3313L83.7 34.4032L83.8719 34.3032C83.8709 34.3156 83.8731 34.328 83.8783 34.3392C83.8835 34.3505 83.8915 34.3602 83.9016 34.3674C83.9116 34.3747 83.9234 34.3792 83.9357 34.3805C83.948 34.3819 83.9605 34.38 83.9719 34.3751L84.1438 34.2751C84.1427 34.2875 84.145 34.2999 84.1502 34.3111C84.1554 34.3223 84.1634 34.3321 84.1734 34.3393C84.1835 34.3465 84.1953 34.351 84.2076 34.3524C84.2199 34.3537 84.2324 34.3519 84.2438 34.347H84.3281V34.1626H83.3156L83.1438 34.2782V34.1782C78.7896 34.5303 76.3208 34.7386 75.7375 34.8032H74.825C74.8271 34.8782 74.7656 34.9168 74.6406 34.9188L74.4563 34.8345L73.8125 34.9907C73.5601 34.9966 73.3075 34.9872 73.0563 34.9626C72.9527 35.0419 72.8296 35.0916 72.7 35.1063C72.5563 35.1063 76.1531 34.9063 76.0406 34.8501L75.4844 35.0063H75.4C75.1143 35.0231 74.8277 35.0137 74.5438 34.9782C74.4067 35.0648 74.2495 35.1143 74.0875 35.122C73.9591 35.1371 73.8292 35.1119 73.7156 35.0501C73.5594 35.0938 73.0906 35.2063 72.3313 35.3626L72.2906 35.2938ZM72.5188 35.8657C72.5188 35.9376 72.5906 35.9657 72.7031 35.9501V36.1345H72.5188C72.3903 36.1496 72.2604 36.1244 72.1469 36.0626C72.0462 36.1467 71.9215 36.197 71.7906 36.2063H71.875L71.3625 36.1501V36.0657C71.7649 36.0451 72.163 35.9726 72.5469 35.8501L72.5188 35.8657ZM72.9906 35.822H73.0906V36.0063L72.8063 36.0345C72.8031 36.0078 72.8057 35.9808 72.8139 35.9552C72.8222 35.9297 72.8357 35.9062 72.8538 35.8863C72.8719 35.8665 72.894 35.8507 72.9187 35.8402C72.9434 35.8296 72.97 35.8245 72.9969 35.8251L72.9906 35.822ZM74.0906 35.7063V35.8063C73.8143 35.8334 73.5418 35.891 73.2781 35.9782H73.1781L73.2625 35.7782L74.075 35.6938L74.0906 35.7063ZM65.9844 36.6438L66.2969 36.6157V36.4313L65.9844 36.4595V36.6438ZM68.225 36.4438H68.3406L68.5563 36.5282C68.562 36.5543 68.5614 36.5814 68.5545 36.6072C68.5476 36.633 68.5345 36.6568 68.5163 36.6764C68.4982 36.6961 68.4756 36.711 68.4505 36.7201C68.4253 36.7291 68.3983 36.7319 68.3719 36.7282L68.0594 36.7563V36.6563C68.0312 36.5376 68.1031 36.4813 68.2313 36.4376L68.225 36.4438ZM75.4125 36.8563V36.9407L74.7688 36.997V36.9126L75.4125 36.8563ZM73.5719 37.1282V37.2282L73.2 37.2563V37.1563L73.5719 37.1282ZM74.0719 37.5563C74.2 37.5563 74.2563 37.6001 74.2719 37.7282L73.7281 37.7845V37.6001L74.0844 37.5563H74.0719ZM75.4531 37.3813L75.0844 37.4845L74.9531 37.4032L72.9437 37.497V37.597L76.2844 37.4407V37.3407L75.4531 37.3813ZM73.1438 37.7563V37.8407L72.4156 37.9126V37.8126L73.1438 37.7563ZM68.3625 41.5376V41.6376H68.5781C68.5793 41.5295 68.6038 41.4229 68.65 41.3251V41.1407C68.5344 41.1407 68.4344 41.2845 68.3656 41.5407L68.3625 41.5376ZM61.0125 52.2126V52.297C61.0125 52.4251 60.9562 52.497 60.8125 52.5126V52.4282C60.7969 52.3063 60.8656 52.2501 61.0094 52.2063L61.0125 52.2126ZM60.8281 52.6126C60.7673 53.0887 60.6422 53.5544 60.4563 53.997L60.1438 54.0251C60.2503 53.5462 60.4129 53.0816 60.6281 52.6407L60.8281 52.6126ZM64.2656 55.5938C64.2677 55.698 64.1063 55.8074 63.7812 55.922L63.1562 55.8782H62.9563V55.6938L64.2844 55.5782L64.2656 55.5938ZM64.8906 55.6501V55.7345L64.3781 55.7782V55.6938L64.8906 55.6501Z" fill="#FBC02D"/>
</svg>
