<svg width="41" height="40" viewBox="0 0 41 40" fill="none" xmlns="http://www.w3.org/2000/svg">
<path d="M28.6852 1.82999H26.3777L28.7774 4.43406V5.67374H23.8349V4.22218H26.2343L23.8349 1.61812V0.377182H28.6852V1.82999ZM22.8549 1.82999H20.5474L22.9471 4.43406V5.67374H18.0043V4.22218H20.404L18.0043 1.61812V0.377182H22.8549V1.82999ZM17.0818 1.88937H14.5918V4.16156H17.0818V5.67374H12.8218V0.377182H17.0818V1.88937Z" fill="#EBEBEB"/>
<path d="M9.42875 36.4706L6.89844 8.09157H34.7006L32.1681 36.4659L20.7825 39.6228L9.42875 36.4706Z" fill="#1572B6"/>
<path d="M20.8003 37.21L30 34.6594L32.1644 10.4122H20.8003V37.21Z" fill="#33A9DC"/>
<path d="M20.7998 20.6938H25.4054L25.7239 17.1297H20.7998V13.6491H29.5276L29.4442 14.5828L28.5889 24.1741H20.7998V20.6938Z" fill="white"/>
<path d="M20.8206 29.7331L20.8053 29.7375L16.9291 28.6906L16.6809 25.9147H13.1875L13.6753 31.3797L20.8047 33.3587L20.8209 33.3541L20.8206 29.7331Z" fill="#EBEBEB"/>
<path d="M25.1098 24.0269L24.6905 28.6881L20.8086 29.7359V33.3572L27.9439 31.3797L27.9964 30.7916L28.602 24.0269H25.1098Z" fill="white"/>
<path d="M20.8118 13.6491V17.1294H12.4046L12.3346 16.3472L12.1762 14.5828L12.0928 13.6491H20.8118ZM20.7996 20.6941V24.1747H16.9725L16.9028 23.3925L16.744 21.6278L16.6606 20.6941H20.7996Z" fill="#EBEBEB"/>
</svg>
