<svg width="33" height="32" viewBox="0 0 33 32" fill="none" xmlns="http://www.w3.org/2000/svg">
<path d="M13.8001 17.4999C13.8001 17.7966 13.7121 18.0866 13.5473 18.3332C13.3825 18.5799 13.1482 18.7722 12.8741 18.8857C12.6 18.9992 12.2984 19.0289 12.0075 18.9711C11.7165 18.9132 11.4492 18.7703 11.2394 18.5606C11.0296 18.3508 10.8868 18.0835 10.8289 17.7925C10.771 17.5016 10.8007 17.2 10.9143 16.9259C11.0278 16.6518 11.2201 16.4175 11.4667 16.2527C11.7134 16.0879 12.0034 15.9999 12.3001 15.9999C12.6979 15.9999 13.0794 16.1579 13.3607 16.4392C13.6421 16.7205 13.8001 17.1021 13.8001 17.4999ZM21.3001 15.9999C21.0034 15.9999 20.7134 16.0879 20.4667 16.2527C20.2201 16.4175 20.0278 16.6518 19.9143 16.9259C19.8007 17.2 19.771 17.5016 19.8289 17.7925C19.8868 18.0835 20.0297 18.3508 20.2394 18.5606C20.4492 18.7703 20.7165 18.9132 21.0075 18.9711C21.2984 19.0289 21.6 18.9992 21.8741 18.8857C22.1482 18.7722 22.3825 18.5799 22.5473 18.3332C22.7121 18.0866 22.8001 17.7966 22.8001 17.4999C22.8001 17.1021 22.6421 16.7205 22.3607 16.4392C22.0794 16.1579 21.6979 15.9999 21.3001 15.9999ZM30.6063 24.1124L22.2313 27.8261C21.9795 27.9381 21.7075 27.9974 21.4319 28.0003C21.1563 28.0033 20.883 27.9498 20.6289 27.8433C20.3747 27.7368 20.145 27.5794 19.9539 27.3808C19.7628 27.1822 19.6143 26.9467 19.5176 26.6886L18.5038 23.9386C17.9438 23.9761 17.3759 23.9953 16.8001 23.9961C16.2243 23.997 15.6563 23.9778 15.0963 23.9386L14.0826 26.6886C13.9857 26.9466 13.8371 27.182 13.646 27.3805C13.4549 27.5789 13.2252 27.7363 12.9711 27.8428C12.717 27.9493 12.4438 28.0028 12.1682 27.9999C11.8927 27.997 11.6207 27.9379 11.3688 27.8261L2.99384 24.1124C2.56157 23.9234 2.21045 23.5871 2.00304 23.1633C1.79564 22.7396 1.74542 22.256 1.86134 21.7986L5.55009 7.24989C5.64744 6.87153 5.85301 6.52976 6.14164 6.26645C6.43026 6.00314 6.7894 5.8297 7.17509 5.76739L11.6826 5.02614C12.1795 4.94622 12.6884 5.05397 13.1102 5.32844C13.5321 5.60291 13.8368 6.02447 13.9651 6.51114L14.3726 8.11614C15.1668 8.03864 15.9759 7.99989 16.8001 7.99989C17.6243 7.99989 18.4326 8.03864 19.2251 8.11614L19.6326 6.51114C19.7606 6.02432 20.0653 5.60258 20.4872 5.32807C20.9091 5.05356 21.4181 4.94593 21.9151 5.02614L26.4251 5.76739C26.8108 5.8297 27.1699 6.00314 27.4585 6.26645C27.7472 6.52976 27.9527 6.87153 28.0501 7.24989L31.7413 21.7974C31.8574 22.2552 31.807 22.7393 31.5991 23.1634C31.3912 23.5874 31.0393 23.9238 30.6063 24.1124ZM29.8001 22.2849L26.1088 7.74989C26.1088 7.74989 26.1088 7.74989 26.0988 7.74989L21.5913 6.99989C21.5881 6.99803 21.5844 6.99704 21.5807 6.99704C21.577 6.99704 21.5733 6.99803 21.5701 6.99989L21.2163 8.39239C21.8413 8.50989 22.4663 8.64989 23.0701 8.81989C23.3081 8.88057 23.5155 9.02673 23.6527 9.2305C23.7898 9.43428 23.8472 9.68141 23.8138 9.92478C23.7804 10.1681 23.6587 10.3907 23.4717 10.55C23.2847 10.7094 23.0457 10.7943 22.8001 10.7886C22.7088 10.7884 22.618 10.7758 22.5301 10.7511C20.6625 10.2444 18.7352 9.99168 16.8001 9.99989C14.8651 9.99127 12.9377 10.2435 11.0701 10.7499C10.9425 10.7893 10.8083 10.8028 10.6754 10.7896C10.5426 10.7763 10.4137 10.7366 10.2964 10.6727C10.1791 10.6088 10.0758 10.5221 9.99263 10.4177C9.90942 10.3132 9.84796 10.1932 9.81189 10.0646C9.77583 9.93602 9.76588 9.80153 9.78263 9.66904C9.79938 9.53656 9.8425 9.40877 9.90944 9.29322C9.97638 9.17768 10.0658 9.0767 10.1724 8.99627C10.279 8.91583 10.4006 8.85756 10.5301 8.82489C11.1326 8.65489 11.7526 8.51489 12.3826 8.39739L12.0288 6.99989C12.0288 6.99989 12.0288 6.99989 12.0138 6.99989L7.50134 7.74114C7.49766 7.74013 7.49377 7.74013 7.49009 7.74114L3.80009 22.2911L12.1751 25.9999C12.1793 26.0022 12.184 26.0034 12.1888 26.0034C12.1936 26.0034 12.1984 26.0022 12.2026 25.9999L13.0501 23.7149C12.201 23.585 11.3603 23.4047 10.5326 23.1749C10.2861 23.0961 10.0797 22.9248 9.9568 22.697C9.83394 22.4692 9.80419 22.2027 9.87379 21.9534C9.9434 21.7041 10.1069 21.4915 10.33 21.3603C10.5531 21.2291 10.8184 21.1896 11.0701 21.2499C12.9376 21.7568 14.865 22.0091 16.8001 21.9999C18.7352 22.0091 20.6626 21.7568 22.5301 21.2499C22.7855 21.1783 23.0589 21.2111 23.2902 21.3411C23.5215 21.4711 23.6916 21.6876 23.7632 21.943C23.8348 22.1985 23.802 22.4719 23.672 22.7031C23.5421 22.9344 23.3255 23.1045 23.0701 23.1761C22.2415 23.4056 21.4 23.5855 20.5501 23.7149L21.3938 25.9999C21.3979 26.0021 21.4024 26.0032 21.407 26.0032C21.4115 26.0032 21.4161 26.0021 21.4201 25.9999L29.8001 22.2849Z" fill="#EBEBEB"/>
</svg>
