<svg width="41" height="40" viewBox="0 0 41 40" fill="none" xmlns="http://www.w3.org/2000/svg">
<g clip-path="url(#clip0_64_1279)">
<path d="M31.2251 0H9.9751C4.79743 0 0.600098 4.19733 0.600098 9.375V30.625C0.600098 35.8027 4.79743 40 9.9751 40H31.2251C36.4028 40 40.6001 35.8027 40.6001 30.625V9.375C40.6001 4.19733 36.4028 0 31.2251 0Z" fill="#2396ED"/>
<path d="M22.6606 19.0817H25.8976V16.153H22.6606V19.0817ZM18.8071 19.0817H22.044V16.153H18.8071V19.0817ZM15.0306 19.0817H18.2676V16.153H15.0306V19.0817ZM11.254 19.0817H14.4142V16.153H11.2542L11.254 19.0817ZM7.40056 19.0817H10.6376V16.153H7.40056V19.0817ZM11.2542 15.5364H14.414V12.6078H11.2542V15.5364ZM15.0307 15.5364H18.2676V12.6078H15.0306L15.0307 15.5364ZM18.8071 15.5364H22.044V12.6078H18.8071V15.5364ZM18.8071 11.9911H22.044V9.0625H18.8071V11.9911ZM36.2251 17.7717C36.2251 17.7717 34.8378 16.4614 31.9862 16.9239C31.6779 14.6888 29.2887 13.3786 29.2887 13.3786C29.2887 13.3786 27.0537 16.0761 28.6721 19.0819C28.2098 19.3131 27.439 19.6214 26.2829 19.6214H5.08853C4.70306 21.0858 4.70307 30.7966 15.3388 30.7966C22.9688 30.7966 28.6721 27.2514 31.3696 20.7773C35.3773 21.0856 36.2251 17.7717 36.2251 17.7717Z" fill="white"/>
</g>
<defs>
<clipPath id="clip0_64_1279">
<rect width="40" height="40" fill="white" transform="translate(0.600098)"/>
</clipPath>
</defs>
</svg>
