<svg width="345" height="100" viewBox="0 0 345 100" fill="none" xmlns="http://www.w3.org/2000/svg">
<g clip-path="url(#clip0_22_2817)">
<path d="M3.01944 77.6034V39.3611H50.7671V37.1242H3.01944V2.23624H53.7859V0H0.783203V79.8396H54.2329V77.6034H3.01944ZM97.2846 22.3638L77.4926 48.4181L58.147 22.3644H55.2396L76.1503 50.096L53.2262 79.8389H55.91L77.4913 51.7718L99.1845 79.8389H101.98L78.945 50.0946L99.9671 22.3631L97.2846 22.3638ZM108.69 99.5201V63.7383H108.913C110.256 68.9564 112.902 73.1497 116.853 76.3181C120.804 79.4859 125.836 81.0705 131.948 81.0705C135.899 81.0705 139.403 80.2691 142.46 78.6664C145.516 77.0638 148.069 74.8832 150.119 72.1248C152.169 69.3664 153.735 66.1611 154.816 62.5081C155.897 58.8557 156.438 55.0161 156.438 50.9913C156.438 46.6671 155.878 42.6785 154.76 39.0262C153.642 35.3732 152.02 32.2047 149.896 29.5215C147.771 26.8376 145.199 24.7497 142.18 23.2597C139.161 21.7685 135.75 21.0228 131.948 21.0228C129.041 21.0228 126.339 21.4517 123.842 22.3087C121.344 23.1664 119.127 24.3772 117.189 25.943C115.239 27.5208 113.542 29.3873 112.156 31.4779C110.74 33.6027 109.659 35.9322 108.913 38.4671H108.69V22.3638H106.454V99.5201H108.69ZM131.948 78.945C124.942 78.945 119.313 76.5409 115.064 71.7329C110.815 66.9248 108.69 60.0101 108.69 50.9899C108.69 47.2624 109.212 43.7215 110.256 40.3671C111.299 37.0128 112.809 34.0678 114.784 31.5336C116.76 28.9987 119.201 26.9859 122.108 25.4953C125.015 24.004 128.296 23.2584 131.948 23.2584C135.676 23.2584 138.938 24.004 141.733 25.4953C144.528 26.9859 146.84 29.0175 148.666 31.5893C150.492 34.1611 151.871 37.106 152.803 40.4228C153.735 43.7403 154.201 47.2624 154.201 50.9899C154.201 54.345 153.772 57.6812 152.915 60.998C152.058 64.3154 150.734 67.2973 148.945 69.9443C147.156 72.5899 144.864 74.7517 142.068 76.4295C139.272 78.1067 135.899 78.945 131.948 78.945ZM168.738 79.8396V47.3C168.738 44.1691 169.185 41.1121 170.08 38.1309C170.974 35.149 172.353 32.5208 174.217 30.2477C176.081 27.9738 178.447 26.1846 181.317 24.8799C184.187 23.5752 187.598 23.0349 191.549 23.2584V21.0221C188.119 20.9483 185.119 21.3201 182.548 22.1403C179.975 22.9604 177.758 24.0785 175.894 25.4953C174.03 26.9114 172.54 28.5698 171.421 30.4711C170.304 32.3695 169.475 34.4232 168.961 36.5651H168.738V22.3638H166.501V79.8403L168.738 79.8396ZM194.344 51.549H242.427C242.577 47.598 242.185 43.7966 241.253 40.1436C240.321 36.4906 238.83 33.2477 236.781 30.4154C234.73 27.5826 232.084 25.3087 228.841 23.594C225.598 21.8792 221.74 21.0221 217.268 21.0221C214.062 21.0221 210.931 21.6933 207.874 23.0356C204.818 24.3772 202.134 26.3336 199.823 28.9054C197.513 31.4772 195.649 34.6268 194.233 38.355C192.817 42.0819 192.108 46.3309 192.108 51.102C192.108 55.351 192.593 59.3208 193.562 63.0107C194.531 66.7007 196.021 69.9067 198.034 72.6275C200.048 75.3483 202.638 77.4544 205.806 78.945C208.974 80.4362 212.795 81.1443 217.268 81.0698C223.828 81.0698 229.344 79.2242 233.817 75.5349C238.29 71.8443 240.936 66.645 241.756 59.9356H239.52C238.551 66.2725 236.072 71.0248 232.084 74.1926C228.095 77.3611 223.083 78.945 217.044 78.945C212.944 78.945 209.477 78.2369 206.644 76.8208C203.812 75.4047 201.501 73.4658 199.711 71.006C197.923 68.5456 196.599 65.6571 195.742 62.3396C194.885 59.0228 194.419 55.4255 194.344 51.549ZM240.191 49.3128H194.345C194.568 45.2873 195.313 41.6718 196.581 38.4664C197.848 35.2604 199.507 32.5208 201.557 30.2477C203.607 27.9738 205.993 26.2409 208.713 25.0477C211.434 23.855 214.36 23.2584 217.491 23.2584C221.219 23.2584 224.498 23.9483 227.332 25.3275C230.164 26.7067 232.531 28.5893 234.432 30.9745C236.333 33.3597 237.768 36.1369 238.737 39.3047C239.706 42.4732 240.191 45.8094 240.191 49.3128ZM288.833 39.3611H291.069C291.069 32.9497 289.205 28.2906 285.479 25.3832C281.75 22.4758 276.681 21.0221 270.27 21.0221C266.692 21.0221 263.673 21.4698 261.213 22.3644C258.753 23.2584 256.74 24.4141 255.174 25.8302C253.609 27.2463 252.491 28.8121 251.82 30.5268C251.149 32.2416 250.813 33.8819 250.813 35.447C250.813 38.5779 251.372 41.0752 252.491 42.9389C253.609 44.8027 255.361 46.2564 257.746 47.3C259.387 48.045 261.25 48.7161 263.338 49.3134C265.425 49.9094 267.848 50.543 270.606 51.2134C273.066 51.8107 275.489 52.4067 277.874 53.0027C280.26 53.5993 282.366 54.4007 284.192 55.4067C286.019 56.4134 287.509 57.6993 288.665 59.2651C289.82 60.8302 290.398 62.8805 290.398 65.4148C290.398 67.8752 289.821 69.9624 288.665 71.6765C287.519 73.3823 286.011 74.8144 284.248 75.8705C282.459 76.951 280.464 77.7336 278.266 78.2181C276.066 78.7027 273.923 78.945 271.836 78.945C265.052 78.945 259.852 77.4356 256.237 74.4168C252.621 71.3973 250.814 66.645 250.814 60.1591H248.577C248.577 67.3906 250.534 72.6832 254.448 76.0383C258.362 79.3926 264.158 81.0698 271.836 81.0698C274.296 81.0698 276.775 80.7899 279.272 80.2309C281.769 79.6718 284.006 78.7591 285.981 77.4913C287.94 76.2415 289.585 74.5583 290.789 72.5718C292.019 70.5584 292.635 68.0987 292.635 65.1913C292.635 62.4329 292.094 60.1966 291.013 58.4819C289.932 56.7678 288.516 55.351 286.764 54.2329C285.012 53.1148 283.037 52.2389 280.838 51.6054C278.626 50.9681 276.408 50.3528 274.184 49.7597C271.447 49.0416 268.707 48.3336 265.965 47.6356C263.617 47.0389 261.437 46.3309 259.424 45.5107C257.486 44.6906 255.939 43.5168 254.783 41.9886C253.628 40.4604 253.05 38.2799 253.05 35.447C253.05 34.9255 253.199 33.9933 253.497 32.6517C253.795 31.3094 254.504 29.949 255.622 28.5698C256.74 27.1913 258.454 25.9611 260.766 24.8799C263.077 23.7993 266.245 23.2584 270.27 23.2584C273.029 23.2584 275.544 23.557 277.818 24.153C280.092 24.7497 282.049 25.7 283.689 27.0047C285.329 28.3094 286.596 29.9678 287.491 31.9805C288.385 33.994 288.833 36.4537 288.833 39.3611ZM340.605 39.3611H342.842C342.842 32.9497 340.979 28.2906 337.251 25.3832C333.523 22.4758 328.454 21.0221 322.043 21.0221C318.465 21.0221 315.446 21.4698 312.986 22.3644C310.526 23.2584 308.513 24.4141 306.948 25.8302C305.382 27.2463 304.264 28.8121 303.593 30.5268C302.921 32.2416 302.587 33.8819 302.587 35.447C302.587 38.5779 303.146 41.0752 304.264 42.9389C305.382 44.8027 307.134 46.2564 309.519 47.3C311.16 48.045 313.023 48.7161 315.11 49.3134C317.197 49.9094 319.62 50.543 322.379 51.2134C324.839 51.8107 327.262 52.4067 329.647 53.0027C332.033 53.5993 334.138 54.4007 335.965 55.4067C337.791 56.4134 339.283 57.6993 340.438 59.2651C341.593 60.8302 342.171 62.8805 342.171 65.4148C342.171 67.8752 341.593 69.9624 340.438 71.6765C339.292 73.3823 337.784 74.8143 336.021 75.8705C334.232 76.951 332.238 77.7336 330.038 78.2181C327.84 78.7027 325.696 78.945 323.609 78.945C316.825 78.945 311.625 77.4356 308.01 74.4168C304.394 71.3973 302.587 66.645 302.587 60.1591H300.35C300.35 67.3906 302.307 72.6832 306.221 76.0383C310.134 79.3926 315.93 81.0698 323.609 81.0698C326.069 81.0698 328.548 80.7899 331.045 80.2309C333.542 79.6718 335.779 78.7591 337.754 77.4913C339.713 76.2415 341.358 74.5583 342.562 72.5718C343.793 70.5584 344.407 68.0987 344.407 65.1913C344.407 62.4329 343.867 60.1966 342.786 58.4819C341.705 56.7678 340.289 55.351 338.537 54.2329C336.785 53.1148 334.809 52.2389 332.611 51.6054C330.399 50.9681 328.181 50.3528 325.957 49.7597C323.22 49.0416 320.48 48.3336 317.738 47.6356C315.39 47.0389 313.209 46.3309 311.197 45.5107C309.258 44.6906 307.711 43.5168 306.556 41.9886C305.401 40.4604 304.823 38.2799 304.823 35.447C304.823 34.9255 304.972 33.9933 305.27 32.6517C305.568 31.3094 306.277 29.949 307.395 28.5698C308.513 27.1913 310.228 25.9611 312.538 24.8799C314.85 23.7993 318.017 23.2584 322.044 23.2584C324.802 23.2584 327.317 23.557 329.591 24.153C331.865 24.7497 333.821 25.7 335.462 27.0047C337.102 28.3094 338.369 29.9678 339.264 31.9805C340.158 33.994 340.606 36.4537 340.606 39.3611" fill="#D0D4D8"/>
</g>
<defs>
<clipPath id="clip0_22_2817">
<rect width="343.63" height="100" fill="white" transform="translate(0.780273)"/>
</clipPath>
</defs>
</svg>
