<svg width="33" height="32" viewBox="0 0 33 32" fill="none" xmlns="http://www.w3.org/2000/svg">
<path d="M31.714 15.595C31.6703 15.4963 30.6115 13.1475 28.2578 10.7937C25.1215 7.6575 21.1603 6 16.8003 6C12.4403 6 8.47903 7.6575 5.34278 10.7937C2.98903 13.1475 1.92528 15.5 1.88653 15.595C1.82967 15.7229 1.80029 15.8613 1.80029 16.0012C1.80029 16.1412 1.82967 16.2796 1.88653 16.4075C1.93028 16.5062 2.98903 18.8538 5.34278 21.2075C8.47903 24.3425 12.4403 26 16.8003 26C21.1603 26 25.1215 24.3425 28.2578 21.2075C30.6115 18.8538 31.6703 16.5062 31.714 16.4075C31.7709 16.2796 31.8003 16.1412 31.8003 16.0012C31.8003 15.8613 31.7709 15.7229 31.714 15.595ZM16.8003 24C12.9528 24 9.59153 22.6012 6.80903 19.8438C5.66734 18.7084 4.69602 17.4137 3.92528 16C4.69581 14.5862 5.66715 13.2915 6.80903 12.1562C9.59153 9.39875 12.9528 8 16.8003 8C20.6478 8 24.009 9.39875 26.7915 12.1562C27.9354 13.2912 28.9089 14.5859 29.6815 16C28.7803 17.6825 24.854 24 16.8003 24ZM16.8003 10C15.6136 10 14.4536 10.3519 13.4669 11.0112C12.4802 11.6705 11.7111 12.6075 11.257 13.7039C10.8029 14.8003 10.6841 16.0067 10.9156 17.1705C11.1471 18.3344 11.7185 19.4035 12.5576 20.2426C13.3968 21.0818 14.4659 21.6532 15.6297 21.8847C16.7936 22.1162 18 21.9974 19.0964 21.5433C20.1927 21.0892 21.1298 20.3201 21.7891 19.3334C22.4484 18.3467 22.8003 17.1867 22.8003 16C22.7986 14.4092 22.166 12.884 21.0411 11.7592C19.9162 10.6343 18.3911 10.0017 16.8003 10ZM16.8003 20C16.0092 20 15.2358 19.7654 14.578 19.3259C13.9202 18.8864 13.4075 18.2616 13.1048 17.5307C12.802 16.7998 12.7228 15.9956 12.8771 15.2196C13.0315 14.4437 13.4124 13.731 13.9719 13.1716C14.5313 12.6122 15.244 12.2312 16.0199 12.0769C16.7958 11.9225 17.6001 12.0017 18.331 12.3045C19.0619 12.6072 19.6866 13.1199 20.1262 13.7777C20.5657 14.4355 20.8003 15.2089 20.8003 16C20.8003 17.0609 20.3789 18.0783 19.6287 18.8284C18.8786 19.5786 17.8611 20 16.8003 20Z" fill="#EBEBEB"/>
</svg>
