<svg width="101" height="100" viewBox="0 0 101 100" fill="none" xmlns="http://www.w3.org/2000/svg">
<g clip-path="url(#clip0_22_2831)">
<path d="M36.4768 100.781C45.7737 100.781 53.2737 93.2812 53.2737 83.9844V67.1875H36.4768C27.1799 67.1875 19.6799 74.6875 19.6799 83.9844C19.6799 93.2812 27.1799 100.781 36.4768 100.781Z" fill="#0ACF83"/>
<path d="M19.6799 50.3906C19.6799 41.0938 27.1799 33.5938 36.4768 33.5938H53.2737V67.1875H36.4768C27.1799 67.1875 19.6799 59.6875 19.6799 50.3906Z" fill="#A259FF"/>
<path d="M19.6799 16.7969C19.6799 7.5 27.1799 0 36.4768 0H53.2737V33.5938H36.4768C27.1799 33.5938 19.6799 26.0938 19.6799 16.7969Z" fill="#F24E1E"/>
<path d="M53.2737 0H70.0706C79.3674 0 86.8674 7.5 86.8674 16.7969C86.8674 26.0938 79.3674 33.5938 70.0706 33.5938H53.2737V0Z" fill="#FF7262"/>
<path d="M86.8674 50.3906C86.8674 59.6875 79.3674 67.1875 70.0706 67.1875C60.7737 67.1875 53.2737 59.6875 53.2737 50.3906C53.2737 41.0938 60.7737 33.5938 70.0706 33.5938C79.3674 33.5938 86.8674 41.0938 86.8674 50.3906Z" fill="#1ABCFE"/>
</g>
<defs>
<clipPath id="clip0_22_2831">
<rect width="100" height="100" fill="white" transform="translate(0.929932)"/>
</clipPath>
</defs>
</svg>
