<svg width="33" height="32" viewBox="0 0 33 32" fill="none" xmlns="http://www.w3.org/2000/svg">
<path d="M27.5078 10.2925L20.5078 3.2925C20.4149 3.19967 20.3045 3.12605 20.1831 3.07586C20.0617 3.02568 19.9317 2.9999 19.8003 3H7.80029C7.26986 3 6.76115 3.21071 6.38608 3.58579C6.01101 3.96086 5.80029 4.46957 5.80029 5V27C5.80029 27.5304 6.01101 28.0391 6.38608 28.4142C6.76115 28.7893 7.26986 29 7.80029 29H25.8003C26.3307 29 26.8394 28.7893 27.2145 28.4142C27.5896 28.0391 27.8003 27.5304 27.8003 27V11C27.8004 10.8686 27.7746 10.7385 27.7244 10.6172C27.6742 10.4958 27.6006 10.3854 27.5078 10.2925ZM20.8003 6.41375L24.3865 10H20.8003V6.41375ZM25.8003 27H7.80029V5H18.8003V11C18.8003 11.2652 18.9056 11.5196 19.0932 11.7071C19.2807 11.8946 19.5351 12 19.8003 12H25.8003V27ZM20.5078 19.2925C20.6008 19.3854 20.6745 19.4957 20.7249 19.6171C20.7752 19.7385 20.8011 19.8686 20.8011 20C20.8011 20.1314 20.7752 20.2615 20.7249 20.3829C20.6745 20.5043 20.6008 20.6146 20.5078 20.7075L17.5078 23.7075C17.4149 23.8005 17.3046 23.8742 17.1832 23.9246C17.0618 23.9749 16.9317 24.0008 16.8003 24.0008C16.6689 24.0008 16.5388 23.9749 16.4174 23.9246C16.296 23.8742 16.1857 23.8005 16.0928 23.7075L13.0928 20.7075C12.9052 20.5199 12.7997 20.2654 12.7997 20C12.7997 19.7346 12.9052 19.4801 13.0928 19.2925C13.2804 19.1049 13.5349 18.9994 13.8003 18.9994C14.0657 18.9994 14.3202 19.1049 14.5078 19.2925L15.8003 20.5863V15C15.8003 14.7348 15.9057 14.4804 16.0932 14.2929C16.2807 14.1054 16.5351 14 16.8003 14C17.0655 14 17.3199 14.1054 17.5074 14.2929C17.6949 14.4804 17.8003 14.7348 17.8003 15V20.5863L19.0928 19.2925C19.1857 19.1995 19.296 19.1258 19.4174 19.0754C19.5388 19.0251 19.6689 18.9992 19.8003 18.9992C19.9317 18.9992 20.0618 19.0251 20.1832 19.0754C20.3046 19.1258 20.4149 19.1995 20.5078 19.2925Z" fill="#EBEBEB"/>
</svg>
