<svg width="100" height="100" viewBox="0 0 100 100" fill="none" xmlns="http://www.w3.org/2000/svg">
<g clip-path="url(#clip0_22_2770)">
<path d="M76.5625 0H23.4375C10.4933 0 0 10.4933 0 23.4375V76.5625C0 89.5067 10.4933 100 23.4375 100H76.5625C89.5067 100 100 89.5067 100 76.5625V23.4375C100 10.4933 89.5067 0 76.5625 0Z" fill="#F03C2E"/>
<mask id="mask0_22_2770" style="mask-type:luminance" maskUnits="userSpaceOnUse" x="10" y="10" width="80" height="80">
<path d="M10.9375 10.9375H89.0625V89.0625H10.9375V10.9375Z" fill="white"/>
</mask>
<g mask="url(#mask0_22_2770)">
<path d="M87.5879 46.521L53.4789 12.412C52.7757 11.7079 51.8793 11.2284 50.9033 11.0342C49.9274 10.84 48.9157 10.9398 47.9965 11.321C47.3862 11.5739 46.8318 11.9446 46.3649 12.412L39.2848 19.4921L48.2692 28.4764C50.359 27.744 52.7516 28.2444 54.4164 29.9096C55.209 30.7037 55.7622 31.7046 56.013 32.7981C56.2638 33.8916 56.2021 35.0336 55.8348 36.0936L64.4945 44.7534C66.5895 44.0307 69.0063 44.4968 70.6785 46.1741C71.5162 47.0114 72.0866 48.0785 72.3175 49.2401C72.5484 50.4018 72.4295 51.6058 71.9758 52.6999C71.3675 54.1667 70.2016 55.3319 68.7345 55.9393C67.2674 56.5468 65.6191 56.5468 64.152 55.9393C63.4254 55.6382 62.7652 55.1971 62.2094 54.6409C60.4516 52.8831 60.0172 50.2952 60.9059 48.1296L52.8297 40.0534V61.3061C53.416 61.5962 53.9517 61.9787 54.4164 62.4389C55.5392 63.5617 56.17 65.0845 56.17 66.6723C56.1699 68.2602 55.5392 69.783 54.4164 70.9057C53.2937 72.0285 51.7709 72.6593 50.183 72.6593C48.5952 72.6593 47.0724 72.0285 45.9496 70.9057C45.1116 70.0688 44.5408 69.002 44.3095 67.8405C44.0783 66.6789 44.1969 65.4748 44.6504 64.3807C44.9515 63.6543 45.393 62.9944 45.9496 62.4389C46.5281 61.8628 47.1703 61.4257 47.9102 61.1327V39.6823C47.1761 39.3822 46.5095 38.9382 45.9496 38.3764C45.109 37.5367 44.5375 36.4657 44.3079 35.3C44.0784 34.1342 44.2011 32.9265 44.6606 31.8307L35.7984 22.9741L12.4098 46.3382C11.7057 47.0418 11.2261 47.9384 11.0318 48.9147C10.8374 49.8909 10.937 50.9029 11.318 51.8225C11.5712 52.4331 11.9421 52.9878 12.4098 53.455L46.5211 87.5612C46.9881 88.0284 47.5425 88.3992 48.1527 88.6522C49.3856 89.1625 50.7707 89.1625 52.0035 88.6522C52.6137 88.3992 53.1682 88.0284 53.6352 87.5612L87.5879 53.6624C88.0554 53.1952 88.4262 52.6405 88.6793 52.03C88.9324 51.4195 89.0628 50.7651 89.0629 50.1042C89.0629 49.4432 88.9327 48.7887 88.6796 48.1781C88.4265 47.5675 88.0555 47.0127 87.5879 46.5456" fill="white"/>
</g>
</g>
<defs>
<clipPath id="clip0_22_2770">
<rect width="100" height="100" fill="white"/>
</clipPath>
</defs>
</svg>
