<svg width="41" height="40" viewBox="0 0 41 40" fill="none" xmlns="http://www.w3.org/2000/svg">
<g clip-path="url(#clip0_64_1283)">
<path d="M8.53283 0C3.94033 0 0.199707 3.74063 0.199707 8.33313C0.199707 12.355 3.06877 15.7241 6.86658 16.4988V28.3331C6.86658 32.0112 9.89158 35 13.5328 35H13.5938C14.0006 37.8197 16.4375 40 19.3666 40C22.5785 40 25.1997 37.3787 25.1997 34.1669C25.1997 30.955 22.5785 28.3331 19.3666 28.3331C16.4378 28.3331 14.001 30.5134 13.5938 33.3331H13.5328C10.8025 33.3331 8.53283 31.0981 8.53283 28.3331V19.9309C9.072 20.4814 9.71577 20.9186 10.4263 21.2167C11.1368 21.5148 11.8998 21.6679 12.6703 21.6669H13.5938C14.001 24.4866 16.4375 26.6669 19.3666 26.6669C22.2956 26.6669 24.7319 24.4866 25.1385 21.6669H28.5938C29.001 24.4866 31.4375 26.6669 34.3666 26.6669C37.5785 26.6669 40.1997 24.045 40.1997 20.8331C40.1997 17.6213 37.5785 15 34.3666 15C31.4375 15 29.0006 17.1803 28.5938 20H25.1388C24.7322 17.1803 22.2956 15 19.3666 15C16.4375 15 14.0006 17.1803 13.5938 20H12.6703C10.66 20 8.98502 18.5659 8.61158 16.665C13.1678 16.6225 16.8666 12.8994 16.8666 8.33313C16.8666 3.74063 13.1253 0 8.53283 0ZM8.53283 1.66688C9.40879 1.66506 10.2765 1.83625 11.0861 2.17061C11.8958 2.50497 12.6314 2.99592 13.2508 3.6153C13.8703 4.23467 14.3613 4.97026 14.6957 5.77987C15.0302 6.58948 15.2014 7.45716 15.1997 8.33313C15.2014 9.20909 15.03 10.0768 14.6956 10.8864C14.3611 11.696 13.8701 12.4316 13.2507 13.051C12.6313 13.6704 11.8957 14.1614 11.0861 14.4959C10.2765 14.8303 9.4088 15.0016 8.53283 15C7.65687 15.0017 6.78919 14.8305 5.97958 14.496C5.16997 14.1616 4.43437 13.6706 3.815 13.0511C3.19563 12.4317 2.70468 11.6961 2.37032 10.8864C2.03596 10.0768 1.86477 9.20909 1.86658 8.33313C1.86485 7.45721 2.0361 6.58958 2.3705 5.78002C2.7049 4.97045 3.19586 4.23488 3.81522 3.61552C4.43459 2.99615 5.17016 2.50519 5.97972 2.17079C6.78929 1.83639 7.65692 1.66515 8.53283 1.66688ZM6.90314 4.02344C6.03408 4.02781 5.19971 4.72594 5.19971 5.67688V11.0028C5.19971 12.2662 6.67127 13.085 7.74502 12.4194L12.0056 9.77719C13.0235 9.14594 13.0288 7.58906 12.0156 6.95063L7.75471 4.26625C7.50021 4.10489 7.20447 4.02057 6.90314 4.02344ZM6.86658 5.67688L11.1275 8.36063L6.86658 11.0028V5.67688ZM19.3666 16.6669C19.9142 16.6651 20.4567 16.7717 20.963 16.9805C21.4692 17.1892 21.9292 17.4961 22.3164 17.8833C22.7036 18.2705 23.0105 18.7305 23.2192 19.2367C23.428 19.743 23.5346 20.2855 23.5328 20.8331C23.5345 21.3807 23.4279 21.9233 23.2192 22.4296C23.0104 22.9358 22.7036 23.3958 22.3164 23.7831C21.9292 24.1704 21.4692 24.4772 20.963 24.6861C20.4567 24.8949 19.9142 25.0016 19.3666 25C18.8189 25.0016 18.2763 24.895 17.77 24.6862C17.2637 24.4774 16.8037 24.1705 16.4165 23.7832C16.0292 23.396 15.7224 22.936 15.5135 22.4297C15.3047 21.9234 15.1981 21.3808 15.1997 20.8331C15.1981 20.2855 15.3048 19.743 15.5136 19.2367C15.7225 18.7305 16.0293 18.2705 16.4166 17.8833C16.8039 17.4961 17.2639 17.1893 17.7701 16.9806C18.2764 16.7718 18.819 16.6652 19.3666 16.6669ZM34.3666 16.6669C34.9142 16.6651 35.4567 16.7717 35.963 16.9805C36.4692 17.1892 36.9292 17.4961 37.3164 17.8833C37.7036 18.2705 38.0105 18.7305 38.2192 19.2367C38.428 19.743 38.5346 20.2855 38.5328 20.8331C38.5345 21.3807 38.4279 21.9233 38.2192 22.4296C38.0104 22.9358 37.7036 23.3958 37.3164 23.7831C36.9292 24.1704 36.4692 24.4772 35.963 24.6861C35.4567 24.8949 34.9142 25.0016 34.3666 25C33.8189 25.0016 33.2763 24.895 32.77 24.6862C32.2637 24.4774 31.8037 24.1705 31.4165 23.7832C31.0292 23.396 30.7224 22.936 30.5135 22.4297C30.3047 21.9234 30.1981 21.3808 30.1997 20.8331C30.1981 20.2855 30.3048 19.743 30.5136 19.2367C30.7225 18.7305 31.0293 18.2705 31.4166 17.8833C31.8039 17.4961 32.2639 17.1893 32.7701 16.9806C33.2764 16.7718 33.819 16.6652 34.3666 16.6669ZM21.0641 18.8391C20.843 18.839 20.6309 18.9266 20.4744 19.0828L18.5056 21.0497L17.8516 20.3984C17.695 20.2425 17.483 20.155 17.262 20.1554C17.041 20.1557 16.8292 20.2438 16.6731 20.4003C16.5959 20.4779 16.5347 20.5699 16.493 20.6711C16.4513 20.7723 16.43 20.8807 16.4302 20.9902C16.4305 21.0997 16.4523 21.208 16.4944 21.309C16.5365 21.4101 16.5981 21.5018 16.6756 21.5791L17.9175 22.8166C18.0738 22.9723 18.2854 23.0597 18.506 23.0596C18.7266 23.0596 18.9382 22.972 19.0944 22.8162L21.6522 20.2619C21.7297 20.1845 21.7911 20.0927 21.833 19.9916C21.875 19.8905 21.8966 19.7821 21.8967 19.6726C21.8967 19.5632 21.8752 19.4548 21.8334 19.3536C21.7916 19.2525 21.7302 19.1606 21.6528 19.0831C21.4966 18.9272 21.2849 18.8392 21.0641 18.8391ZM36.0641 18.8391C35.843 18.839 35.6309 18.9266 35.4744 19.0828L33.5056 21.0497L32.8516 20.3984C32.695 20.2425 32.483 20.155 32.262 20.1554C32.041 20.1557 31.8292 20.2438 31.6731 20.4003C31.5959 20.4779 31.5347 20.5699 31.493 20.6711C31.4513 20.7723 31.43 20.8807 31.4302 20.9902C31.4305 21.0997 31.4523 21.208 31.4944 21.309C31.5365 21.4101 31.5981 21.5018 31.6756 21.5791L32.9175 22.8166C33.0738 22.9723 33.2854 23.0597 33.506 23.0596C33.7266 23.0596 33.9382 22.972 34.0944 22.8162L36.6522 20.2619C36.7297 20.1845 36.7911 20.0927 36.833 19.9916C36.875 19.8905 36.8966 19.7821 36.8967 19.6726C36.8967 19.5632 36.8752 19.4548 36.8334 19.3536C36.7915 19.2525 36.7302 19.1606 36.6528 19.0831C36.4966 18.9272 36.2849 18.8392 36.0641 18.8391ZM19.3666 30C19.9142 29.9984 20.4567 30.1051 20.963 30.3139C21.4692 30.5228 21.9292 30.8296 22.3164 31.2169C22.7036 31.6042 23.0104 32.0642 23.2192 32.5704C23.4279 33.0767 23.5345 33.6193 23.5328 34.1669C23.5346 34.7145 23.428 35.257 23.2192 35.7633C23.0105 36.2695 22.7036 36.7295 22.3164 37.1167C21.9292 37.5039 21.4692 37.8108 20.963 38.0195C20.4567 38.2283 19.9142 38.3349 19.3666 38.3331C18.819 38.3348 18.2764 38.2282 17.7701 38.0194C17.2639 37.8107 16.8039 37.5039 16.4166 37.1167C16.0293 36.7295 15.7225 36.2695 15.5136 35.7633C15.3048 35.257 15.1981 34.7145 15.1997 34.1669C15.1981 33.6192 15.3047 33.0766 15.5135 32.5703C15.7224 32.064 16.0292 31.604 16.4165 31.2168C16.8037 30.8295 17.2637 30.5226 17.77 30.3138C18.2763 30.105 18.8189 29.9984 19.3666 30ZM17.6997 32.9169C17.0144 32.9169 16.4497 33.4816 16.4497 34.1669C16.4497 34.8528 17.0147 35.4169 17.6997 35.4169C18.3847 35.4169 18.9497 34.8528 18.9497 34.1669C18.9497 33.4816 18.385 32.9169 17.6997 32.9169ZM21.0328 32.9169C20.3475 32.9169 19.7828 33.4816 19.7828 34.1669C19.7828 34.8528 20.3478 35.4169 21.0328 35.4169C21.7178 35.4169 22.2828 34.8528 22.2828 34.1669C22.2828 33.4816 21.7181 32.9169 21.0328 32.9169ZM17.6997 33.75C17.9341 33.75 18.1166 33.9328 18.1166 34.1669C18.1166 34.4022 17.9344 34.5831 17.6997 34.5831C17.4653 34.5831 17.2828 34.4019 17.2828 34.1669C17.2828 33.9325 17.4656 33.75 17.6997 33.75ZM21.0328 33.75C21.2672 33.75 21.4497 33.9328 21.4497 34.1669C21.4497 34.4022 21.2675 34.5831 21.0328 34.5831C20.7985 34.5831 20.6166 34.4019 20.6166 34.1669C20.6166 33.9325 20.7988 33.75 21.0328 33.75Z" fill="#2088FF"/>
<path d="M34.3665 28.3331C31.4344 28.3331 28.9953 30.5184 28.5925 33.3428C28.5649 33.3405 28.5373 33.3393 28.5097 33.3394L27.6659 33.3675C27.4451 33.3748 27.2362 33.4694 27.0852 33.6306C26.9341 33.7918 26.8532 34.0064 26.8603 34.2272C26.8675 34.4481 26.9622 34.657 27.1235 34.8081C27.2848 34.9591 27.4994 35.04 27.7203 35.0328L28.564 35.0056L28.5944 35.0038C29.0028 37.8216 31.4387 40 34.3665 40C37.5784 40 40.1997 37.3788 40.1997 34.1669C40.1997 30.955 37.5784 28.3331 34.3665 28.3331ZM34.3665 30C34.9142 29.9984 35.4567 30.1051 35.9629 30.3139C36.4692 30.5228 36.9291 30.8296 37.3163 31.2169C37.7035 31.6042 38.0103 32.0642 38.2191 32.5704C38.4279 33.0767 38.5345 33.6193 38.5328 34.1669C38.5345 34.7145 38.4279 35.257 38.2192 35.7633C38.0104 36.2695 37.7036 36.7295 37.3164 37.1167C36.9292 37.5039 36.4692 37.8108 35.9629 38.0195C35.4567 38.2283 34.9141 38.3349 34.3665 38.3331C33.8189 38.3348 33.2764 38.2282 32.7701 38.0195C32.2638 37.8107 31.8038 37.5039 31.4166 37.1167C31.0293 36.7295 30.7224 36.2695 30.5136 35.7633C30.3047 35.257 30.1981 34.7145 30.1997 34.1669C30.198 33.6192 30.3047 33.0766 30.5135 32.5703C30.7223 32.064 31.0292 31.604 31.4164 31.2168C31.8037 30.8295 32.2637 30.5226 32.77 30.3138C33.2763 30.105 33.8189 29.9984 34.3665 30Z" fill="#79B8FF"/>
</g>
<defs>
<clipPath id="clip0_64_1283">
<rect width="40" height="40" fill="white" transform="translate(0.199707)"/>
</clipPath>
</defs>
</svg>
