<svg width="33" height="32" viewBox="0 0 33 32" fill="none" xmlns="http://www.w3.org/2000/svg">
<g clip-path="url(#clip0_22_2866)">
<path d="M26.839 9.46002C27.1447 8.47401 27.2428 7.43537 27.127 6.40958C27.0113 5.3838 26.6842 4.39312 26.1665 3.50002C26.0788 3.34796 25.9525 3.22171 25.8004 3.13393C25.6484 3.04616 25.4759 2.99998 25.3003 3.00002C24.1355 2.99758 22.9863 3.2676 21.9445 3.7885C20.9027 4.3094 19.9972 5.06674 19.3003 6.00002H16.3003C15.6034 5.06674 14.6979 4.3094 13.6561 3.7885C12.6143 3.2676 11.4651 2.99758 10.3003 3.00002C10.1247 2.99998 9.95223 3.04616 9.80017 3.13393C9.6481 3.22171 9.52183 3.34796 9.43404 3.50002C8.91635 4.39312 8.58932 5.3838 8.47358 6.40958C8.35783 7.43537 8.45588 8.47401 8.76154 9.46002C8.1437 10.5384 7.81274 11.7572 7.80029 13V14C7.8024 15.692 8.41663 17.3261 9.52957 18.6006C10.6425 19.875 12.179 20.7038 13.8553 20.9338C13.1711 21.8093 12.7996 22.8888 12.8003 24V25H9.80029C9.00464 25 8.24158 24.6839 7.67897 24.1213C7.11636 23.5587 6.80029 22.7957 6.80029 22C6.80029 21.3434 6.67096 20.6932 6.41969 20.0866C6.16842 19.48 5.80012 18.9288 5.33583 18.4645C4.87153 18.0002 4.32034 17.6319 3.71371 17.3806C3.10708 17.1293 2.4569 17 1.80029 17C1.53508 17 1.28072 17.1054 1.09319 17.2929C0.90565 17.4804 0.800293 17.7348 0.800293 18C0.800293 18.2652 0.90565 18.5196 1.09319 18.7071C1.28072 18.8947 1.53508 19 1.80029 19C2.59594 19 3.359 19.3161 3.92161 19.8787C4.48422 20.4413 4.80029 21.2044 4.80029 22C4.80029 23.3261 5.32708 24.5979 6.26476 25.5356C7.20244 26.4732 8.47421 27 9.80029 27H12.8003V29C12.8003 29.2652 12.9057 29.5196 13.0932 29.7071C13.2807 29.8947 13.5351 30 13.8003 30C14.0655 30 14.3199 29.8947 14.5074 29.7071C14.6949 29.5196 14.8003 29.2652 14.8003 29V24C14.8003 23.2044 15.1164 22.4413 15.679 21.8787C16.2416 21.3161 17.0046 21 17.8003 21C18.5959 21 19.359 21.3161 19.9216 21.8787C20.4842 22.4413 20.8003 23.2044 20.8003 24V29C20.8003 29.2652 20.9056 29.5196 21.0932 29.7071C21.2807 29.8947 21.5351 30 21.8003 30C22.0655 30 22.3199 29.8947 22.5074 29.7071C22.6949 29.5196 22.8003 29.2652 22.8003 29V24C22.8009 22.8888 22.4295 21.8093 21.7453 20.9338C23.4216 20.7038 24.9581 19.875 26.071 18.6006C27.184 17.3261 27.7982 15.692 27.8003 14V13C27.7878 11.7572 27.4569 10.5384 26.839 9.46002ZM25.8003 14C25.8003 15.3261 25.2735 16.5979 24.3358 17.5356C23.3981 18.4732 22.1264 19 20.8003 19H14.8003C13.4742 19 12.2024 18.4732 11.2648 17.5356C10.3271 16.5979 9.80029 15.3261 9.80029 14V13C9.81255 12 10.1119 11.0247 10.6628 10.19C10.7655 10.0547 10.832 9.89538 10.856 9.7272C10.8801 9.55902 10.8609 9.38748 10.8003 9.22877C10.5398 8.55701 10.4145 7.84046 10.4314 7.12018C10.4484 6.39989 10.6073 5.69003 10.899 5.03127C11.7174 5.11931 12.5055 5.39041 13.2049 5.82448C13.9042 6.25855 14.4969 6.84446 14.939 7.53877C15.0291 7.67965 15.1531 7.79569 15.2996 7.87627C15.4462 7.95685 15.6106 7.99939 15.7778 8.00002H19.8215C19.9894 8.00002 20.1546 7.95777 20.3018 7.87716C20.449 7.79656 20.5736 7.68018 20.664 7.53877C21.1061 6.84439 21.6988 6.25844 22.3981 5.82436C23.0975 5.39029 23.8856 5.11922 24.704 5.03127C24.9954 5.69019 25.1539 6.40014 25.1704 7.12043C25.1869 7.84071 25.0612 8.55718 24.8003 9.22877C24.7399 9.38596 24.7196 9.55576 24.7415 9.72275C24.7633 9.88974 24.8265 10.0486 24.9253 10.185C25.4816 11.0197 25.7854 11.9971 25.8003 13V14Z" fill="#EBEBEB"/>
</g>
<defs>
<clipPath id="clip0_22_2866">
<rect width="32" height="32" fill="white" transform="translate(0.800293)"/>
</clipPath>
</defs>
</svg>
