<svg width="41" height="40" viewBox="0 0 41 40" fill="none" xmlns="http://www.w3.org/2000/svg">
<path d="M8.90431 36.3606L6.39087 8.16969H34.009L31.4931 36.3563L20.1831 39.4916L8.90431 36.3606Z" fill="#E44D26"/>
<path d="M20.2002 37.095L29.3389 34.5613L31.4893 10.475H20.2002V37.095Z" fill="#F16529"/>
<path d="M20.2 20.9306H15.6246L15.309 17.3897H20.2V13.9322H11.5303L11.6128 14.86L12.4628 24.3878H20.2V20.9306ZM20.2 29.9097L20.1846 29.9138L16.3343 28.8738L16.0881 26.1166H12.6171L13.1015 31.5453L20.184 33.5116L20.2 33.5069V29.9097Z" fill="#EBEBEB"/>
<path d="M8.96069 0.508438H10.7176V2.24469H12.3251V0.508438H14.0823V5.76531H12.3251V4.005H10.7179V5.76531H8.96069V0.508438ZM16.3926 2.25188H14.8457V0.508438H19.6973V2.25188H18.1498V5.76531H16.3926V2.25188ZM20.4673 0.508438H22.2991L23.4263 2.35563L24.5523 0.508438H26.3851V5.76531H24.6348V3.15969L23.4263 5.02875H23.3957L22.1863 3.15969V5.76531H20.4669V0.508438H20.4673ZM27.2598 0.508438H29.0173V4.02781H31.4882V5.76563H27.2598V0.508438Z" fill="#EBEBEB"/>
<path d="M20.188 20.9306V24.3878H24.4455L24.0442 28.8719L20.188 29.9128V33.5097L27.2761 31.5453L27.328 30.9609L28.1405 21.8588L28.2249 20.9306H27.293H20.188ZM20.188 13.9322V17.3897H28.5395L28.6086 16.6125L28.7664 14.86L28.8492 13.9322H20.188Z" fill="white"/>
</svg>
