<svg width="91" height="100" viewBox="0 0 91 100" fill="none" xmlns="http://www.w3.org/2000/svg">
<g clip-path="url(#clip0_22_2819)">
<path d="M85.1178 49.1024C85.1178 43.9759 80.9616 39.8197 75.8351 39.8197C75.5051 39.8197 75.18 39.8374 74.8591 39.8713L87.6089 2.26709H33.4266L46.1588 39.8385C45.9709 39.8266 45.7827 39.8205 45.5944 39.8201C40.4679 39.8201 36.3118 43.9756 36.3118 49.1028C36.3118 53.2466 39.0277 56.7551 42.7757 57.9487C40.7962 61.3777 38.305 64.4664 35.4768 67.1349C31.6308 70.7629 27.2294 73.5141 22.469 75.2091C16.8012 72.2975 14.1248 65.8222 16.5397 60.1448C16.8125 59.5035 17.0909 58.8537 17.357 58.2067C21.463 57.2484 24.5231 53.5674 24.5231 49.1692C24.5231 44.0424 20.3669 39.8865 15.24 39.8865C10.1132 39.8865 5.95734 44.0424 5.95734 49.1692C5.95734 52.313 7.5213 55.0901 9.91247 56.7692C7.61494 62.0003 4.23755 67.4752 3.18526 73.8204C1.92413 81.4247 3.18102 89.4968 9.75805 94.0554C25.0754 104.672 41.7022 87.4742 59.233 83.1508C65.5863 81.5844 72.5605 81.8367 78.1581 78.595C82.3616 76.1604 85.133 72.1254 85.9192 67.5957C86.6966 63.1208 85.5637 58.6653 82.9588 55.0526C84.3563 53.3851 85.1208 51.2781 85.1178 49.1024Z" fill="#99425B"/>
<path d="M83.6858 67.2078C83.0031 71.1406 80.5741 74.5756 77.0221 76.6332C73.7108 78.5509 69.743 79.1233 65.5416 79.729C63.291 80.0534 60.9638 80.3894 58.6903 80.9498C52.679 82.4322 46.8564 85.3244 41.226 88.1212C29.9575 93.7184 20.226 98.5516 11.0501 92.1919C4.3285 87.5336 4.63875 78.9145 5.42179 74.1915C6.14758 69.8156 8.10977 65.7855 10.0069 61.8883C10.3302 61.226 10.6508 60.5624 10.9688 59.8975C11.9251 60.2798 12.9286 60.5316 13.9522 60.6459C12.0207 67.0201 15.0582 73.9509 21.4331 77.2258L22.3059 77.6742L23.2296 77.3452C28.2695 75.5502 32.9137 72.6703 37.0327 68.7838C39.6953 66.2717 41.9847 63.4926 43.8663 60.523C44.4384 60.6093 45.0161 60.6526 45.5946 60.6527C51.4458 60.6527 56.291 56.2784 57.0409 50.629C59.4359 50.5413 61.9797 50.5406 64.3886 50.6283C65.1377 56.2784 69.9836 60.653 75.8349 60.653C78.2815 60.653 80.5508 59.8862 82.4204 58.5837C83.7183 61.2406 84.2027 64.23 83.6858 67.2078ZM15.2405 42.1537C19.1091 42.1537 22.2561 45.3011 22.2561 49.1696C22.2571 50.5086 21.8725 51.8197 21.1483 52.9459C19.9822 54.7647 17.9999 56.0113 15.7225 56.1668C15.5631 56.1774 15.4024 56.1852 15.2405 56.1852C14.3783 56.1852 13.5525 56.0279 12.7889 55.7424C11.2511 55.1641 9.96323 54.0672 9.14758 52.641C8.54193 51.5844 8.2237 50.3875 8.22461 49.1696C8.22461 45.3011 11.372 42.1537 15.2405 42.1537ZM38.5794 49.1028C38.5794 45.588 41.1776 42.6696 44.5536 42.165C44.8935 42.1138 45.2412 42.0873 45.5949 42.0873C47.8441 42.0873 49.8465 43.1526 51.1306 44.8035C51.4523 45.2152 51.727 45.6614 51.9497 46.1339C52.3858 47.0629 52.6114 48.0766 52.6105 49.1028C52.6105 49.6636 52.5426 50.2088 52.4179 50.7318C51.7342 53.594 49.2935 55.782 46.3027 56.083C46.0702 56.1064 45.8342 56.1184 45.5949 56.1184C44.2455 56.1195 42.9247 55.729 41.7928 54.9943C39.8614 53.7431 38.5794 51.5703 38.5794 49.1028ZM67.8603 40.7601C66.3336 42.2173 65.2349 44.0646 64.6833 46.1018C62.0389 46.0043 59.3919 46.0043 56.7476 46.1018C56.1539 43.8996 54.9236 41.9569 53.2681 40.4813L60.5278 25.8021L67.8603 40.7601ZM36.5889 4.53498H84.4465L73.143 37.8724C72.6567 37.9889 72.1785 38.1371 71.7115 38.3159L60.5455 15.5375L49.3476 38.1799C48.8594 38.0123 48.3605 37.8778 47.8543 37.7774L36.5889 4.53498ZM82.8504 49.1032C82.8504 49.8064 82.7455 50.4855 82.5522 51.1269C82.0936 52.6368 81.1413 53.9489 79.8479 54.853C78.6724 55.678 77.271 56.12 75.8349 56.1187C72.5956 56.1187 69.8631 53.9113 69.0596 50.9219C68.9 50.3288 68.8193 49.7173 68.8193 49.1032C68.8193 48.1442 69.013 47.2297 69.3628 46.3965C69.5433 45.9701 69.7656 45.5627 70.0264 45.1802C71.2889 43.3166 73.4193 42.0876 75.8349 42.0876C76.0564 42.0876 76.2748 42.0989 76.4914 42.1194C80.0532 42.4512 82.8504 45.4558 82.8504 49.1032ZM87.3854 49.1032C87.3854 43.4643 83.3225 38.7594 77.9713 37.7544L90.7716 0H30.2645L43.085 37.8307C37.9197 38.9802 34.0451 43.5961 34.0451 49.1028C34.0451 53.2378 36.2303 56.8696 39.5052 58.9106C37.9299 61.2576 36.0621 63.4661 33.9214 65.4859C30.5264 68.6883 26.7444 71.1173 22.667 72.7156C18.56 70.1357 16.8239 65.2703 18.6267 61.0322L18.7681 60.7L19.0331 60.0767C23.5441 58.5032 26.7903 54.2099 26.7903 49.1696C26.7903 42.8007 21.6091 37.6194 15.2405 37.6194C8.87161 37.6194 3.69034 42.8007 3.69034 49.1696C3.69034 52.3841 5.01189 55.2951 7.1384 57.3912C6.74179 58.2315 6.33918 59.069 5.93062 59.9035C3.9861 63.8968 1.78257 68.423 0.948996 73.4495C-0.706127 83.4318 1.96384 91.4117 8.46737 95.9187C12.4137 98.6537 16.4214 99.7293 20.4543 99.7293C28.0479 99.7293 35.7299 95.9141 43.2433 92.182C48.6543 89.4947 54.2497 86.7155 59.7766 85.3523C61.8331 84.8452 63.949 84.5399 66.1893 84.217C70.632 83.576 75.2257 82.9134 79.2949 80.5569C84.0119 77.8247 87.2405 73.2417 88.1536 67.9837C88.9373 63.4696 87.9942 58.9484 85.6939 55.1138C86.8023 53.3049 87.3878 51.2243 87.3854 49.1028" fill="white"/>
</g>
<defs>
<clipPath id="clip0_22_2819">
<rect width="90.46" height="100" fill="white" transform="translate(0.469727)"/>
</clipPath>
</defs>
</svg>
