<svg width="100" height="100" viewBox="0 0 100 100" fill="none" xmlns="http://www.w3.org/2000/svg">
<path d="M83.3524 1.86475H48.0711C48.0711 10.6601 55.1914 17.7788 63.9828 17.7788H70.4742V24.0601C70.4742 32.8554 77.5938 39.9749 86.3891 39.9749V4.90068C86.3883 4.09562 86.068 3.32378 85.4987 2.75459C84.9293 2.1854 84.1574 1.86537 83.3524 1.86475Z" fill="#2684FF"/>
<path d="M65.8695 19.4546H30.5883C30.5883 28.2499 37.7047 35.3671 46.5 35.3671H52.9906V41.6499C52.9906 50.4452 60.1102 57.5655 68.9055 57.5655V22.4913C68.9049 21.6862 68.5848 20.9143 68.0156 20.345C67.4464 19.7756 66.6746 19.4554 65.8695 19.4546Z" fill="url(#paint0_linear_22_2791)"/>
<path d="M48.3859 37.0422H13.1016C13.1016 45.8375 20.2211 52.9571 29.0156 52.9571H35.5078V59.2407C35.5078 68.0329 42.6266 75.1524 51.4219 75.1524V40.079C51.4213 39.2739 51.1012 38.502 50.532 37.9326C49.9628 37.3633 49.191 37.0431 48.3859 37.0422Z" fill="url(#paint1_linear_22_2791)"/>
<path d="M35.9375 79.0953H38.6203V92.3609C38.6203 95.8617 37.0242 98.3031 33.3188 98.3031C31.9281 98.3031 30.8383 98.0711 30.0906 97.8086V95.2664C30.9086 95.5961 31.8938 95.7609 32.8797 95.7609C35.1563 95.7609 35.9375 94.443 35.9375 92.5266V79.0953ZM43.5485 78.0703C44.6016 78.0703 45.3492 78.6984 45.3492 79.8187C45.3492 80.9078 44.6016 81.5703 43.5485 81.5703C42.4961 81.5703 41.7485 80.9414 41.7485 79.8187C41.7485 78.7328 42.4961 78.0703 43.5485 78.0703ZM42.2242 83.6484H44.8063V98.1719H42.2242V83.6484ZM51.193 98.1719H48.6797V83.6484H51.1938V86.1906C52.0789 84.4727 53.5742 83.2523 56.4945 83.4172V85.8609C53.1992 85.5312 51.1938 86.4867 51.1938 89.5906L51.193 98.1719ZM68.561 95.5625C67.6086 97.4789 65.8078 98.4688 63.4945 98.4688C59.5219 98.4688 57.5164 95.1992 57.5164 90.9086C57.5164 86.8164 59.6219 83.3523 63.8031 83.3523C65.9758 83.3523 67.6758 84.3078 68.561 86.1906V83.6484H71.143V98.1719H68.561V95.5625ZM64.1758 96.1578C66.486 96.1578 68.5242 94.7391 68.5242 91.5039V90.35C68.5242 87.1156 66.657 85.6961 64.4469 85.6961C61.5602 85.6961 60.0641 87.543 60.0641 90.9086C60.0985 94.4086 61.5266 96.1578 64.1758 96.1578Z" fill="#207CF6"/>
<defs>
<linearGradient id="paint0_linear_22_2791" x1="68.1719" y1="19.4941" x2="53.1601" y2="34.9732" gradientUnits="userSpaceOnUse">
<stop offset="0.176" stop-color="#0052CC"/>
<stop offset="1" stop-color="#2684FF"/>
</linearGradient>
<linearGradient id="paint1_linear_22_2791" x1="51.7035" y1="37.1781" x2="34.3465" y2="54.0648" gradientUnits="userSpaceOnUse">
<stop offset="0.176" stop-color="#0052CC"/>
<stop offset="1" stop-color="#2684FF"/>
</linearGradient>
</defs>
</svg>
