<svg width="33" height="32" viewBox="0 0 33 32" fill="none" xmlns="http://www.w3.org/2000/svg">
<path d="M27.8003 3H5.80029C5.26986 3 4.76115 3.21071 4.38608 3.58579C4.01101 3.96086 3.80029 4.46957 3.80029 5V27C3.80029 27.5304 4.01101 28.0391 4.38608 28.4142C4.76115 28.7893 5.26986 29 5.80029 29H27.8003C28.3307 29 28.8394 28.7893 29.2145 28.4142C29.5896 28.0391 29.8003 27.5304 29.8003 27V5C29.8003 4.46957 29.5896 3.96086 29.2145 3.58579C28.8394 3.21071 28.3307 3 27.8003 3ZM27.8003 27H5.80029V5H27.8003V27ZM12.8003 14V22C12.8003 22.2652 12.6949 22.5196 12.5074 22.7071C12.3199 22.8946 12.0655 23 11.8003 23C11.5351 23 11.2807 22.8946 11.0932 22.7071C10.9057 22.5196 10.8003 22.2652 10.8003 22V14C10.8003 13.7348 10.9057 13.4804 11.0932 13.2929C11.2807 13.1054 11.5351 13 11.8003 13C12.0655 13 12.3199 13.1054 12.5074 13.2929C12.6949 13.4804 12.8003 13.7348 12.8003 14ZM23.8003 17.5V22C23.8003 22.2652 23.6949 22.5196 23.5074 22.7071C23.3199 22.8946 23.0655 23 22.8003 23C22.5351 23 22.2807 22.8946 22.0932 22.7071C21.9056 22.5196 21.8003 22.2652 21.8003 22V17.5C21.8003 16.837 21.5369 16.2011 21.0681 15.7322C20.5992 15.2634 19.9633 15 19.3003 15C18.6373 15 18.0014 15.2634 17.5325 15.7322C17.0637 16.2011 16.8003 16.837 16.8003 17.5V22C16.8003 22.2652 16.6949 22.5196 16.5074 22.7071C16.3199 22.8946 16.0655 23 15.8003 23C15.5351 23 15.2807 22.8946 15.0932 22.7071C14.9057 22.5196 14.8003 22.2652 14.8003 22V14C14.8015 13.7551 14.8926 13.5191 15.0563 13.3369C15.22 13.1546 15.4449 13.0388 15.6883 13.0114C15.9317 12.9839 16.1767 13.0468 16.3768 13.188C16.577 13.3292 16.7183 13.539 16.774 13.7775C17.4505 13.3186 18.2392 13.0526 19.0555 13.0081C19.8717 12.9637 20.6847 13.1424 21.407 13.5251C22.1293 13.9078 22.7338 14.48 23.1554 15.1803C23.5771 15.8806 23.8 16.6825 23.8003 17.5ZM13.3003 10.5C13.3003 10.7967 13.2123 11.0867 13.0475 11.3334C12.8827 11.58 12.6484 11.7723 12.3743 11.8858C12.1002 11.9994 11.7986 12.0291 11.5077 11.9712C11.2167 11.9133 10.9494 11.7704 10.7396 11.5607C10.5299 11.3509 10.387 11.0836 10.3291 10.7926C10.2712 10.5017 10.3009 10.2001 10.4145 9.92597C10.528 9.65189 10.7203 9.41762 10.9669 9.2528C11.2136 9.08797 11.5036 9 11.8003 9C12.1981 9 12.5796 9.15804 12.861 9.43934C13.1423 9.72064 13.3003 10.1022 13.3003 10.5Z" fill="#EBEBEB"/>
</svg>
