<svg width="101" height="100" viewBox="0 0 101 100" fill="none" xmlns="http://www.w3.org/2000/svg">
<path fill-rule="evenodd" clip-rule="evenodd" d="M69.1011 78.2336C69.2331 77.9797 69.3597 77.7555 69.4675 77.5234C69.5354 77.375 69.6401 77.3453 69.7878 77.3492C70.6729 77.3742 71.5581 77.4015 72.444 77.4101C73.1964 77.4179 73.9503 77.4039 74.7034 77.3953C75.5519 77.3851 76.4003 77.3406 77.2479 77.3648C78.3769 77.3976 79.4769 77.6187 80.4979 78.1211C81.7175 78.7219 82.6401 79.6367 83.269 80.8422C83.6646 81.6065 83.9114 82.4389 83.9964 83.2953C84.1308 84.5515 84.0425 85.7789 83.644 86.9804C83.1503 88.4695 82.2128 89.6094 80.9104 90.4633C79.9081 91.1203 78.8089 91.5086 77.6308 91.7304C76.3839 91.9656 75.1331 91.8898 73.8823 91.8937C72.5104 91.8992 71.1394 91.8695 69.7675 91.8539C69.5276 91.8515 69.4933 91.8062 69.5565 91.5773L69.6151 91.3664C69.7487 90.9461 69.8206 90.9273 70.2472 90.857C70.5497 90.8101 70.839 90.7002 71.0964 90.5344C71.2401 90.439 71.2995 90.1906 71.3558 89.9992C71.4042 89.832 71.4065 89.6484 71.4081 89.4719C71.4276 86.7961 71.4479 84.1211 71.4589 81.4469C71.4619 80.7705 71.445 80.0941 71.4081 79.4187C71.3815 78.9461 71.1292 78.6226 70.5667 78.5109C70.1292 78.4242 69.6886 78.357 69.2487 78.2797L69.1011 78.2336ZM81.6604 84.7125C81.6011 84.1797 81.5722 83.6422 81.4769 83.1172C81.2487 81.857 80.6972 80.7594 79.7284 79.8992C78.162 78.5094 76.2761 78.2953 74.2995 78.4609C73.8495 78.4984 73.7526 78.6523 73.7456 79.1148C73.7347 79.7711 73.7237 80.4273 73.7229 81.0836C73.7198 83.1648 73.7198 85.2461 73.7229 87.3273C73.7229 87.92 73.731 88.5117 73.7472 89.1023C73.7659 89.707 73.9854 90.2187 74.5776 90.4531C75.5112 90.8226 76.4933 90.8664 77.4729 90.7156C79.0378 90.4758 80.1323 89.564 80.8667 88.1976C81.4479 87.1133 81.612 85.9297 81.6604 84.7125ZM85.4644 91.7992C85.4456 91.475 85.5784 91.207 85.7425 90.9609C85.787 90.8945 85.9401 90.8976 86.0456 90.8765L86.9409 90.6992C87.2573 90.632 87.4237 90.4195 87.4683 90.1094C87.4979 89.9047 87.5261 89.6976 87.5284 89.4906C87.5496 87.8524 87.565 86.2141 87.5745 84.5758C87.5823 82.9351 87.5761 81.2945 87.5761 79.6539L87.569 79.3406C87.537 78.8133 87.2823 78.5398 86.7589 78.4625L85.6237 78.2898C85.4839 78.2711 85.4331 78.2039 85.4839 78.0797C85.5714 77.868 85.655 77.6484 85.7784 77.4578C85.8245 77.3875 85.98 77.3601 86.0847 77.3625C86.6269 77.3703 87.169 77.4109 87.7112 77.4101L92.4308 77.382C93.3401 77.3812 94.2183 77.5398 95.0339 77.975C95.9315 78.4531 96.4339 79.1929 96.5776 80.2008C96.7276 81.2594 96.4065 82.1515 95.6331 82.8601C95.3151 83.1523 94.9034 83.343 94.5347 83.5805L94.4144 83.6555C94.7565 83.7812 95.0823 83.8898 95.3995 84.0195C96.3276 84.4 97.0659 84.9945 97.4565 85.9437C97.7651 86.693 97.7651 87.4742 97.5823 88.2508C97.2979 89.4664 96.4972 90.275 95.4558 90.8867C94.4784 91.4609 93.4206 91.7953 92.294 91.8515C91.255 91.9039 90.2112 91.8844 89.1698 91.8961L88.5667 91.8992C87.563 91.8761 86.5594 91.8511 85.5558 91.8242L85.4644 91.7992ZM89.7901 87.0422H89.8003C89.8003 87.5562 89.7933 88.0703 89.8026 88.5844C89.8089 88.9172 89.7972 89.2594 89.869 89.5797C89.9769 90.0586 90.1956 90.4906 90.7331 90.6281C91.4518 90.8163 92.2023 90.8493 92.9347 90.725C93.8542 90.5648 94.5878 90.1039 94.9901 89.2281C95.2886 88.5773 95.3331 87.8875 95.2308 87.1828C95.0948 86.2547 94.6019 85.5812 93.7823 85.1398C93.2448 84.85 92.6714 84.6726 92.0604 84.6492C91.3761 84.6234 90.6909 84.6219 90.0065 84.6008C89.8144 84.5953 89.7878 84.693 89.7886 84.8508C89.7925 85.5805 89.7901 86.3109 89.7901 87.0422ZM91.2472 83.5461C91.6214 83.5273 92.0448 83.5219 92.4659 83.4797C93.2722 83.3992 93.8401 82.9937 94.1362 82.2226C94.287 81.8312 94.2808 81.4281 94.2847 81.0211C94.2964 79.9609 93.6776 79.0922 92.6706 78.7328C91.8933 78.4554 91.0917 78.4508 90.2854 78.4726C89.9589 78.4812 89.8128 78.6242 89.8081 78.9531L89.7597 83.2414C89.7573 83.4117 89.8308 83.4851 89.9964 83.4906L91.2472 83.5461Z" fill="#EBEBEB"/>
<path fill-rule="evenodd" clip-rule="evenodd" d="M9.16672 90.975L9.10968 91.7125C8.57843 91.7125 8.08859 91.7086 7.59875 91.7141C6.67609 91.7234 5.75343 91.7383 4.83 91.7516L4.74093 91.757C4.6089 91.7414 4.36906 91.7414 4.36281 91.7023C4.32375 91.4828 4.33625 91.2523 4.3464 91.025C4.34718 90.9992 4.43703 90.9664 4.48937 90.9539L5.20734 90.7938C5.655 90.6773 5.81281 90.4844 5.8339 90.0219C5.85812 89.5008 5.88234 88.9789 5.88468 88.4578C5.89172 87.175 5.8839 85.8937 5.88937 84.6109C5.89015 84.3109 5.78625 84.0875 5.50656 83.9656C5.1742 83.8181 4.83952 83.6759 4.50265 83.5391C4.34328 83.475 4.13625 83.4398 4.155 83.2258C4.17375 83.0078 4.37453 82.9508 4.56359 82.9078C5.3464 82.7289 6.13 82.5547 6.91047 82.3641C7.16203 82.3023 7.40265 82.1984 7.70343 82.0938C7.71906 82.2563 7.74796 82.4109 7.74484 82.5656L7.69875 83.3008C7.69796 83.3836 7.74093 83.4945 7.80265 83.5406C7.84015 83.5695 7.96593 83.5172 8.02843 83.4687C8.69562 82.9609 9.40187 82.5227 10.2073 82.2672C11.455 81.8711 12.5261 82.2383 13.2761 83.3141C13.5402 83.693 13.5409 83.693 13.9073 83.4281C14.5362 82.9711 15.1941 82.568 15.93 82.3023C17.5456 81.7187 19.098 82.4594 19.6597 84.0867C19.8644 84.6773 19.9425 85.2875 19.9409 85.9109L19.9261 90.05C19.9253 90.3914 20.0386 90.5859 20.3636 90.6922C20.7284 90.8117 21.1066 90.8938 21.5175 91.0016L21.4222 91.7133C20.955 91.7133 20.5253 91.7102 20.0956 91.7141C19.0456 91.7234 17.9956 91.7289 16.9464 91.7531C16.7636 91.7578 16.7159 91.7125 16.7066 91.5414C16.6761 90.9937 16.6714 90.9945 17.187 90.8711L17.3605 90.8266C17.8644 90.6891 18.0323 90.5344 18.0362 90.0234C18.048 88.5563 18.0784 87.0852 18.0042 85.6211C17.9269 84.1023 16.7214 83.2937 15.2495 83.6828C14.7745 83.813 14.3271 84.0285 13.9292 84.3187C13.7925 84.4164 13.7667 84.5289 13.7777 84.7C13.8198 85.3469 13.8441 85.9943 13.8503 86.6422C13.8597 87.7758 13.8456 88.9094 13.8503 90.0437C13.8519 90.5031 14.0089 90.6789 14.4628 90.7852L15.137 90.9406L15.262 90.9688C15.2714 91.1844 15.28 91.4 15.2698 91.6156C15.2636 91.7508 15.1589 91.7625 15.0417 91.7602C14.3862 91.7438 13.73 91.7219 13.0745 91.7234C12.2769 91.725 11.48 91.7477 10.6831 91.7617H10.4956C10.4956 91.5328 10.4847 91.3141 10.5034 91.0961C10.5073 91.0437 10.5995 90.9703 10.6628 90.9539L11.4487 90.7875C11.7823 90.7055 11.9417 90.5344 11.9605 90.1953C12.0495 88.625 12.1136 87.0539 11.9659 85.4844C11.9299 85.1744 11.8439 84.8723 11.7112 84.5898C11.3089 83.7008 10.4034 83.3297 9.3589 83.5969C8.86281 83.7234 8.41515 83.9508 7.99171 84.2375C7.89965 84.2946 7.82401 84.3747 7.77224 84.4699C7.72047 84.5651 7.69434 84.6721 7.6964 84.7805C7.69744 86.3471 7.70083 87.9133 7.70656 89.4789L7.71515 90.0828C7.72453 90.5039 7.90343 90.7258 8.3214 90.8164C8.59015 90.8773 8.86203 90.9187 9.16672 90.975Z" fill="#EBEBEB"/>
<path fill-rule="evenodd" clip-rule="evenodd" d="M56.3994 82.254C56.5205 82.843 56.5181 83.3727 56.0853 83.7743C55.6556 84.1735 55.1119 84.0391 54.5814 83.9501C54.6306 84.2297 54.6853 84.4672 54.7119 84.7079C54.9048 86.4962 54.1353 87.8235 52.4767 88.5821C51.8501 88.868 51.1853 88.9743 50.5064 89.029C50.1689 89.0555 49.8736 89.3133 49.8415 89.5907C49.8087 89.8719 49.9853 90.161 50.3384 90.2454C50.7548 90.3446 51.1892 90.3727 51.6165 90.4219C52.5337 90.5266 53.4611 90.5743 54.3673 90.7383C55.7376 90.9852 56.5025 92.1813 56.2611 93.5579C56.0462 94.7829 55.3369 95.6743 54.3478 96.3579C52.6814 97.5126 50.8533 97.8501 48.9064 97.261C47.7931 96.9235 47.008 96.1915 46.7369 95.0071C46.6009 94.4141 46.7455 93.8774 47.1916 93.4751C47.722 92.9985 48.2994 92.5735 48.8548 92.1235L49.0345 91.943L48.8283 91.7985C48.2619 91.5297 47.8087 91.1618 47.633 90.5227C47.5728 90.3063 47.6353 90.1641 47.8189 90.0532C48.1314 89.8652 48.4421 89.6738 48.7509 89.479C48.8962 89.3883 49.04 89.2946 49.1751 89.1899C49.3595 89.0493 49.3431 88.9446 49.1228 88.8633C48.6103 88.6743 48.1548 88.4001 47.8017 87.9782C47.2119 87.2743 47.0447 86.436 47.0931 85.5508C47.1689 84.168 47.9197 83.2571 49.14 82.6711C50.5908 81.9751 52.0462 81.9313 53.5251 82.5657C54.072 82.8001 54.6486 82.8501 55.2353 82.8094C55.6736 82.7782 56.0564 82.6126 56.3994 82.254ZM51.0533 92.161C49.9642 92.1516 49.6228 92.286 48.9837 92.9368C48.2681 93.6665 48.272 94.6782 48.9861 95.411C49.5283 95.9665 50.2048 96.2266 50.9572 96.3047C51.8361 96.3954 52.7017 96.3587 53.5001 95.9188C54.3517 95.4477 54.7751 94.5727 54.5837 93.6915C54.4251 92.9641 53.8892 92.6313 53.2369 92.4399C52.4947 92.2227 51.7275 92.1813 51.0533 92.161ZM48.9142 85.2016C48.954 85.504 48.9705 85.8102 49.0376 86.1063C49.2119 86.8735 49.5455 87.5477 50.3087 87.8891C51.2048 88.2915 52.3494 88.1188 52.7416 86.861C53.0097 86.024 52.9785 85.1197 52.6533 84.3032C52.5161 83.9296 52.268 83.6069 51.9423 83.3782C51.1642 82.8352 49.7603 82.7633 49.1884 83.9633C49.0025 84.3532 48.9298 84.768 48.9142 85.2016Z" fill="#EBEBEB"/>
<path fill-rule="evenodd" clip-rule="evenodd" d="M37.9222 82.0609C37.9511 82.1945 38.0089 82.3461 38.0104 82.4984C38.0128 82.7883 37.9815 83.0781 37.9651 83.368V83.6195L38.2104 83.432C38.8823 82.8789 39.6042 82.4078 40.4448 82.1539C41.962 81.6969 43.4776 82.5273 43.9722 84.0726C44.1597 84.6601 44.2339 85.2641 44.2409 85.8781C44.2565 87.2422 44.2659 88.6062 44.28 89.9703C44.2847 90.4601 44.3409 90.5476 44.8042 90.6891C45.0678 90.7678 45.3367 90.8275 45.6089 90.868C45.7581 90.8914 45.8222 90.95 45.8143 91.0961L45.8159 91.2305C45.8104 91.7953 45.7714 91.8211 45.2237 91.8195C43.9128 91.8172 42.6026 91.825 41.2917 91.8359C40.9011 91.8391 40.9003 91.8508 40.8612 91.4648L40.8534 91.243C40.8776 90.9101 40.8854 90.9133 41.2128 90.8648C41.4331 90.832 41.6518 90.7812 41.8667 90.725C42.0878 90.668 42.194 90.5047 42.2237 90.2859C42.2386 90.175 42.2581 90.0641 42.2573 89.9531C42.2386 88.4625 42.2628 86.9703 42.1815 85.482C42.1159 84.2781 41.1972 83.5609 39.9886 83.643C39.406 83.6834 38.846 83.8843 38.3706 84.2234C38.0479 84.4492 37.9831 84.775 37.9847 85.1258C37.9919 86.5195 38.0034 87.9135 38.019 89.3078C38.0222 89.6133 38.0307 89.9187 38.0597 90.2219C38.0901 90.5531 38.2065 90.6867 38.5315 90.7586C38.8425 90.8273 39.1597 90.8672 39.4917 90.9226L39.5198 91.1789C39.5307 91.7766 39.4682 91.8211 38.8878 91.8187C37.5323 91.8133 36.1768 91.8219 34.8222 91.8367C34.6089 91.8398 34.5182 91.7726 34.5237 91.5648L34.5206 91.4758C34.4854 90.9375 34.5011 90.9172 35.0104 90.8297L35.2511 90.7812C35.8026 90.657 35.944 90.5101 35.9518 89.95C35.9776 88.1758 35.987 86.4023 36.005 84.6281C36.0073 84.3734 35.9112 84.1758 35.6737 84.0703C35.3404 83.9243 35.0052 83.7826 34.6682 83.6453C34.4823 83.5687 34.2698 83.5203 34.2628 83.2633C34.2581 83.082 34.4518 82.9219 34.7167 82.868C35.2487 82.7601 35.7854 82.6703 36.3112 82.5383C36.8347 82.4078 37.3487 82.2328 37.9222 82.0609Z" fill="#EBEBEB"/>
<path fill-rule="evenodd" clip-rule="evenodd" d="M67.2307 86.6952C67.2057 88.3523 66.7752 89.6921 65.6033 90.6976C64.1189 91.9734 61.8033 92.407 59.9103 91.4531C59.1025 91.046 58.5088 90.4218 58.1221 89.6116C57.5291 88.3656 57.3807 87.0554 57.69 85.7132C57.9963 84.3859 58.8002 83.4241 60.0033 82.8015C61.2408 82.1616 62.5439 81.9116 63.9182 82.2476C65.6564 82.6718 66.9057 84.089 67.1541 85.8937C67.1986 86.2101 67.2158 86.5304 67.2307 86.6952ZM65.2174 87.5929L65.1502 87.5851C65.1502 87.4288 65.1588 87.2726 65.1486 87.1163C65.0916 86.1429 64.8728 85.2156 64.3088 84.4007C63.7736 83.6288 63.0447 83.1734 62.0963 83.107C61.0346 83.032 60.1424 83.6257 59.8291 84.7101C59.3588 86.3382 59.5182 87.9249 60.3447 89.4163C60.7049 90.0663 61.2385 90.546 61.9533 90.7984C63.3541 91.2913 64.5963 90.6531 64.9611 89.2187C65.0955 88.689 65.1346 88.1351 65.2174 87.5929Z" fill="#EBEBEB"/>
<path fill-rule="evenodd" clip-rule="evenodd" d="M32.8198 86.8234C32.7909 88.0124 32.5105 89.1117 31.7761 90.0671C30.9894 91.0906 29.9081 91.6374 28.6784 91.8679C27.2245 92.1398 25.8589 91.8929 24.6909 90.9171C24.1362 90.4531 23.7573 89.8585 23.5073 89.182C23.0972 88.0726 22.9948 86.9359 23.2472 85.7773C23.5167 84.5374 24.2167 83.5898 25.3019 82.9538C26.5566 82.2202 27.9105 81.8929 29.3566 82.2226C31.2159 82.6476 32.2894 83.8593 32.6862 85.6937C32.7659 86.064 32.7769 86.4468 32.8198 86.8234ZM30.7839 87.6077L30.73 87.5999V87.3765C30.6995 86.2859 30.4863 85.2468 29.8355 84.3406C29.3534 83.6679 28.7081 83.246 27.8808 83.1281C26.5323 82.9359 25.6511 83.7359 25.3589 84.8226C24.9777 86.2421 25.0972 87.6445 25.687 88.9906C26.055 89.8296 26.6363 90.4835 27.5292 90.8007C28.9214 91.2952 30.1823 90.6406 30.5347 89.2116C30.6644 88.689 30.7034 88.1437 30.7839 87.6077Z" fill="#EBEBEB"/>
<path fill-rule="evenodd" clip-rule="evenodd" d="M65.2753 26.2063C66.2339 28.9774 66.9229 31.8063 67.1503 34.7376C67.4315 38.3751 67.3034 41.9876 66.5362 45.5649L66.4378 45.8508C66.1972 45.8516 65.9519 45.8211 65.7167 45.8579C63.73 46.1704 61.7456 46.4938 59.7604 46.8157C57.7081 47.1485 55.6542 47.468 53.6058 47.8227C52.88 47.9477 51.9815 47.7985 51.6886 48.8016L51.5479 48.8493L51.6472 42.8508L51.5464 28.3774L52.5026 28.2133C54.0659 27.9579 55.6292 27.6977 57.1948 27.4485C59.062 27.1524 60.9308 26.8633 62.7995 26.5743C63.6245 26.4477 64.4503 26.3297 65.2753 26.2063Z" fill="#439934"/>
<path fill-rule="evenodd" clip-rule="evenodd" d="M49.5744 66.3366C48.5658 65.4694 47.522 64.6405 46.5556 63.728C41.354 58.8218 37.5486 53.046 35.6744 46.0827C35.1579 44.1671 34.8142 42.2194 34.7033 40.2397C34.6251 38.8538 34.5134 37.4562 34.6119 36.0772C34.872 32.4108 35.4025 28.7796 36.4775 25.2476L36.5369 25.1655C36.6415 25.3046 36.7915 25.428 36.8447 25.5851C37.8941 28.6757 38.9369 31.7692 39.9728 34.8655C43.2298 44.5929 46.4829 54.3226 49.7454 64.0483C49.8095 64.2382 49.9744 64.3936 50.0931 64.5647L49.5744 66.3366Z" fill="#45A538"/>
<path fill-rule="evenodd" clip-rule="evenodd" d="M65.2752 26.2062C64.4495 26.3289 63.6237 26.4477 62.7995 26.5742C60.9307 26.8633 59.062 27.1523 57.1948 27.4484C55.6299 27.6969 54.0666 27.957 52.5026 28.2133L51.5463 28.3773L51.5385 27.7539C51.5065 27.2414 51.4534 26.7289 51.4463 26.2164L51.3393 16.4086C51.3143 14.3625 51.2768 12.3164 51.2354 10.2711C51.2143 8.99986 51.1776 7.72893 51.1252 6.45859C51.094 5.77656 50.9838 5.09766 50.9401 4.41563C50.9143 4.02344 50.9487 3.62813 50.9573 3.23438C51.4448 4.17891 51.9221 5.13047 52.4229 6.06797C53.2143 7.55 54.476 8.64219 55.6127 9.83359C60.1018 14.5453 63.2885 20.0203 65.2752 26.2062Z" fill="#46A037"/>
<path fill-rule="evenodd" clip-rule="evenodd" d="M51.5486 48.8492L51.6892 48.8015C51.9822 47.7984 52.8806 47.9476 53.6064 47.8226C55.6548 47.4679 57.7087 47.1484 59.7611 46.8156C61.7462 46.4945 63.7306 46.171 65.7173 45.8578C65.9525 45.821 66.1978 45.8515 66.4384 45.8507C66.0673 47.1757 65.7752 48.5296 65.3041 49.8179C64.7689 51.2788 64.122 52.7054 63.4353 54.1038C62.4066 56.1893 61.1339 58.1451 59.6439 59.9304C58.4986 61.307 57.222 62.5812 55.9431 63.8382C55.2353 64.5328 54.4025 65.0992 53.6259 65.7242L53.4244 65.5867L52.7001 64.9679L51.9509 63.3242C51.4394 61.4073 51.16 59.4358 51.1189 57.4523L51.133 57.1179L51.2353 55.6695C51.2689 55.1749 51.3142 54.6812 51.3353 54.1867C51.4103 52.4085 51.4775 50.6288 51.5486 48.8492Z" fill="#409433"/>
<path fill-rule="evenodd" clip-rule="evenodd" d="M51.5486 48.8492C51.4783 50.6289 51.4111 52.4093 51.3353 54.189C51.3142 54.6843 51.2697 55.1781 51.2353 55.6718L50.7791 55.8445C49.765 52.8593 48.7501 49.9054 47.758 46.9445C46.1166 42.0453 44.4955 37.139 42.8564 32.2382C41.5328 28.283 40.2 24.3309 38.858 20.382C38.7947 20.1976 38.615 20.0523 38.49 19.889L41.4119 14.5164C41.5126 14.6906 41.6447 14.8539 41.708 15.0414C43.0595 19.0414 44.4087 23.0421 45.7462 27.0468C47.4869 32.2578 49.2158 37.471 50.9548 42.6828C51.0244 42.8906 51.1384 43.0828 51.2478 43.3164L51.6478 42.8507L51.5486 48.8492Z" fill="#4FAA41"/>
<path fill-rule="evenodd" clip-rule="evenodd" d="M38.4893 19.8892C38.615 20.0524 38.7947 20.1978 38.8572 20.3821C40.1994 24.331 41.5322 28.2831 42.8557 32.2384C44.4947 37.1392 46.1158 42.0454 47.7572 46.9446C48.7494 49.9056 49.7643 52.8587 50.7783 55.8446L51.2346 55.672L51.1322 57.1204L51.0393 57.454C50.8807 59.0392 50.7471 60.6274 50.5533 62.2095C50.4564 63.0024 50.2494 63.7806 50.0924 64.5649C49.9744 64.3938 49.8088 64.2384 49.7447 64.0485C46.4814 54.3228 43.2291 44.5931 39.9721 34.8657C38.9358 31.7701 37.8931 28.6766 36.8439 25.5853C36.7908 25.4282 36.6408 25.3048 36.5361 25.1657L38.4893 19.8892Z" fill="#4AA73C"/>
<path fill-rule="evenodd" clip-rule="evenodd" d="M51.6471 42.8507L51.2471 43.3163C51.1377 43.0827 51.0236 42.8905 50.9541 42.6827C49.215 37.471 47.4861 32.2577 45.7455 27.0468C44.4064 23.0426 43.0603 19.0408 41.7072 15.0413C41.6439 14.8538 41.5119 14.6905 41.4111 14.5163L45.0244 9.76318C45.1385 9.91475 45.301 10.0499 45.3596 10.221C46.3622 13.1585 47.3575 16.0983 48.3455 19.0405C49.2689 21.789 50.1783 24.5405 51.1127 27.2843C51.1752 27.4679 51.3932 27.5976 51.5385 27.7538L51.5463 28.3772L51.6471 42.8507Z" fill="#57AE47"/>
<path fill-rule="evenodd" clip-rule="evenodd" d="M51.5385 27.7539C51.3924 27.5984 51.1752 27.4687 51.1127 27.2843C50.1791 24.5406 49.2689 21.789 48.3455 19.0406C47.3572 16.0984 46.3619 13.1585 45.3596 10.221C45.301 10.05 45.1385 9.91479 45.0244 9.76323C46.1994 8.61245 47.3377 7.42026 48.5603 6.32261C49.6471 5.34761 50.5205 4.30229 50.5611 2.76089L50.6471 2.45386L50.9564 3.23354C50.9486 3.62729 50.9135 4.02261 50.9393 4.41479C50.9838 5.09683 51.0939 5.77573 51.1244 6.45776C51.1814 7.72729 51.2088 8.99917 51.2346 10.2703C51.276 12.3156 51.3135 14.3617 51.3385 16.4078L51.4455 26.2156C51.4533 26.7289 51.5072 27.2414 51.5385 27.7539Z" fill="#60B24F"/>
<path fill-rule="evenodd" clip-rule="evenodd" d="M50.0933 64.564C50.2503 63.7796 50.4573 63.0015 50.5542 62.2085C50.748 60.6272 50.8815 59.0382 51.0401 57.453L51.08 57.4468L51.119 57.4538C51.1602 59.4374 51.4395 61.4088 51.9511 63.3257C51.8456 63.4647 51.698 63.5874 51.6417 63.7437C51.2081 64.9671 50.7987 66.2007 50.3628 67.4233C50.3034 67.5905 50.1362 67.721 50.0198 67.8671L49.5737 66.3358L50.0933 64.564Z" fill="#A9AA88"/>
<path fill-rule="evenodd" clip-rule="evenodd" d="M50.0198 67.8681C50.1362 67.7212 50.3034 67.5915 50.3627 67.4243C50.7987 66.2017 51.2081 64.9681 51.6417 63.7446C51.6971 63.5884 51.8456 63.4657 51.951 63.3267L52.7002 64.9704C52.5526 65.1798 52.3479 65.3696 52.2659 65.6032L50.8315 69.8157C50.7721 69.9853 50.5713 70.104 50.4354 70.247L50.0198 67.8681Z" fill="#B6B598"/>
<path fill-rule="evenodd" clip-rule="evenodd" d="M50.4353 70.246C50.5705 70.1031 50.772 69.9843 50.8314 69.8148L52.2658 65.6023C52.347 65.3687 52.5525 65.1789 52.7001 64.9695L53.4251 65.5875C53.0751 65.9335 52.8806 66.3335 52.9978 66.839L52.7775 67.5601C52.6775 67.6835 52.5322 67.7914 52.483 67.9328C51.9822 69.3671 51.5048 70.8093 51.0001 72.2429C50.9361 72.4242 50.7587 72.5671 50.6345 72.7281L50.4353 70.246Z" fill="#C2C1A7"/>
<path fill-rule="evenodd" clip-rule="evenodd" d="M50.6337 72.7273C50.7587 72.5664 50.9361 72.4234 50.9993 72.2421C51.504 70.8085 51.9822 69.3664 52.4822 67.932C52.5314 67.7906 52.6767 67.6835 52.7767 67.5593L52.4728 70.8687C52.3915 70.9625 52.2743 71.0445 52.2353 71.1531L51.2243 74.05C51.1532 74.2476 51.0173 74.4242 50.9111 74.6093C50.8165 74.4859 50.6478 74.3664 50.64 74.2382C50.6103 73.7367 50.6314 73.2312 50.6337 72.7273Z" fill="#CECDB7"/>
<path fill-rule="evenodd" clip-rule="evenodd" d="M50.9119 74.6103C51.0181 74.4251 51.1541 74.2485 51.2251 74.0509L52.2361 71.154C52.2751 71.0446 52.3931 70.9634 52.4736 70.8696L52.4814 73.0415L51.7541 74.9063L50.9119 74.6103Z" fill="#DBDAC7"/>
<path fill-rule="evenodd" clip-rule="evenodd" d="M51.7542 74.9063L52.4815 73.0415L52.6315 75.2478L51.7542 74.9063Z" fill="#EBE9DC"/>
<path fill-rule="evenodd" clip-rule="evenodd" d="M52.9972 66.839C52.8808 66.3343 53.0746 65.9343 53.4246 65.5874L53.6261 65.7249L52.9972 66.839Z" fill="#CECDB7"/>
<path fill-rule="evenodd" clip-rule="evenodd" d="M51.1189 57.4547L51.0799 57.4477L51.04 57.454L51.133 57.1204L51.1189 57.4547Z" fill="#4FAA41"/>
</svg>
