<svg width="40" height="40" viewBox="0 0 40 40" fill="none" xmlns="http://www.w3.org/2000/svg">
<g clip-path="url(#clip0_64_1275)">
<path fill-rule="evenodd" clip-rule="evenodd" d="M30.0048 24.6361C30.1286 24.565 30.2315 24.4626 30.3032 24.3392C30.375 24.2158 30.413 24.0757 30.4134 23.933L30.4281 19.2234C30.4285 19.0807 30.4665 18.9406 30.5383 18.8172C30.6099 18.6938 30.7128 18.5914 30.8366 18.5203L33.3895 17.0539C33.5765 16.9466 33.7983 16.9179 34.0064 16.974C34.2145 17.03 34.3919 17.1663 34.4997 17.353C34.571 17.4766 34.6086 17.6168 34.6086 17.7595V26.3214C34.6086 26.4646 34.5708 26.6052 34.4991 26.7291C34.4274 26.853 34.3242 26.9558 34.2 27.027L24.5655 32.5609C24.4424 32.6315 24.303 32.6687 24.1611 32.6689C24.0192 32.669 23.8798 32.6321 23.7566 32.5617L16.1955 28.2372C16.071 28.166 15.9675 28.0631 15.8955 27.9391C15.8234 27.8151 15.7854 27.6742 15.7853 27.5308V23.2136C15.7853 23.2088 15.7911 23.2055 15.7959 23.2078C15.7969 23.2085 15.798 23.2088 15.7992 23.2089C15.8004 23.2089 15.8015 23.2086 15.8025 23.208C15.8035 23.2074 15.8044 23.2066 15.8049 23.2055C15.8055 23.2045 15.8057 23.2034 15.8056 23.2022V23.1973C15.8056 23.1941 15.8073 23.1908 15.8106 23.1892L22.0378 19.6117C22.0434 19.6084 22.0409 19.5995 22.0345 19.5995C22.0328 19.5995 22.0312 19.5988 22.0299 19.5976C22.0287 19.5963 22.028 19.5947 22.028 19.593L22.0402 15.3603C22.0408 15.2172 22.0037 15.0764 21.9325 14.9522C21.8613 14.828 21.7586 14.7249 21.6347 14.6531C21.5109 14.5813 21.3703 14.5434 21.2272 14.5433C21.0841 14.5431 20.9435 14.5808 20.8195 14.6523L16.1914 17.3192C16.0679 17.3903 15.9278 17.4277 15.7853 17.4277C15.6428 17.4277 15.5028 17.3903 15.3792 17.3192L10.7364 14.6458C10.6127 14.5745 10.4725 14.537 10.3297 14.5371C10.187 14.5372 10.0468 14.5748 9.92318 14.6462C9.79958 14.7176 9.69694 14.8203 9.62557 14.9439C9.5542 15.0675 9.5166 15.2077 9.51656 15.3505V23.0003C9.51671 23.1429 9.47938 23.283 9.40832 23.4066C9.33725 23.5303 9.23495 23.633 9.11165 23.7047C8.98836 23.7763 8.84841 23.8143 8.70582 23.8147C8.56323 23.8152 8.42301 23.7783 8.29922 23.7075L5.72266 22.2345C5.59785 22.1633 5.49415 22.0602 5.42211 21.9359C5.35006 21.8115 5.31225 21.6703 5.3125 21.5266L5.33531 8.15579C5.33562 8.01324 5.37335 7.87328 5.44475 7.7499C5.51615 7.62653 5.61871 7.52408 5.74215 7.4528C5.8656 7.38152 6.0056 7.34392 6.14814 7.34376C6.29069 7.3436 6.43077 7.38088 6.55438 7.45188L15.38 12.5211C15.5033 12.5919 15.6431 12.6292 15.7853 12.6292C15.9275 12.6292 16.0673 12.5919 16.1906 12.5211L25.0139 7.45188C25.2009 7.3444 25.423 7.31559 25.6312 7.37179C25.8394 7.42799 26.0168 7.56459 26.1244 7.75157C26.1956 7.87516 26.233 8.01547 26.233 8.15829V21.5322C26.233 21.6753 26.1953 21.8158 26.1237 21.9397C26.0521 22.0636 25.9492 22.1664 25.8252 22.2378L21.2044 24.8989C21.0803 24.9706 20.9773 25.0736 20.9058 25.1978C20.8343 25.3219 20.7968 25.4627 20.797 25.6059C20.7973 25.7492 20.8354 25.8899 20.9075 26.0137C20.9797 26.1375 21.0832 26.24 21.2077 26.3109L23.7566 27.7619C23.8797 27.8321 24.0191 27.8689 24.1608 27.8686C24.3026 27.8683 24.4418 27.831 24.5647 27.7603L30.0048 24.6361ZM30.5395 12.6391C30.5397 12.783 30.5781 12.9242 30.6506 13.0485C30.7231 13.1728 30.8273 13.2756 30.9525 13.3466C31.0777 13.4175 31.2196 13.4539 31.3635 13.4521C31.5074 13.4503 31.6483 13.4104 31.7717 13.3364L34.2131 11.8716C34.3336 11.7993 34.4333 11.6971 34.5026 11.5749C34.5719 11.4527 34.6084 11.3147 34.6086 11.1742V8.18907C34.6083 8.08148 34.5867 7.97503 34.545 7.87584C34.5034 7.77665 34.4425 7.6867 34.3658 7.61117C34.2892 7.53565 34.1984 7.47605 34.0986 7.43581C33.9989 7.39556 33.8921 7.37548 33.7845 7.37672C33.6407 7.37853 33.4998 7.41842 33.3764 7.49235L30.935 8.95719C30.8144 9.02938 30.7146 9.13158 30.6453 9.25382C30.576 9.37606 30.5396 9.51417 30.5395 9.65469V12.6397V12.6391Z" fill="#007FFF"/>
</g>
<defs>
<clipPath id="clip0_64_1275">
<rect width="40" height="40" fill="white"/>
</clipPath>
</defs>
</svg>
