<svg width="147" height="100" viewBox="0 0 147 100" fill="none" xmlns="http://www.w3.org/2000/svg">
<g clip-path="url(#clip0_22_2816)">
<path d="M43.7142 65.9876L48.1727 80.4538C49.1744 83.7383 49.5922 86.0311 49.4248 87.338C51.8632 80.8074 53.5669 73.6905 54.5363 65.9876H59.8973C57.5922 78.528 54.5518 87.6409 50.7778 93.3257C47.8374 97.7065 44.6162 99.8968 41.1085 99.8968C40.1732 99.8968 39.0202 99.6142 37.652 99.0532V96.0303C38.3205 96.1283 39.1048 96.1807 40.0068 96.1807C41.6432 96.1807 42.9621 95.7271 43.9655 94.822C45.1669 93.7191 45.7684 92.4796 45.7684 91.1056C45.7684 90.1675 45.2993 88.2423 44.3655 85.33L38.1535 65.9876H43.7142ZM9.59187 57.0962L17.7581 82.0119H17.8085L26.0248 57.0962H32.7377C34.2076 69.4526 35.0758 80.7584 35.3423 91.0062H29.6827C29.4836 81.4266 28.932 72.4185 28.03 63.9804H27.9807L19.3624 91.0062H15.0523L6.48614 63.9804H6.43571C5.80018 72.0842 5.40018 81.0922 5.23342 91.0062H0.0723877C0.405912 78.9489 1.24058 67.6466 2.5764 57.0962H9.59187Z" fill="#00758F"/>
<path d="M101.075 56.5931C109.859 56.5931 114.251 62.2051 114.251 73.4237C114.251 79.52 112.93 84.1249 110.291 87.2358C109.815 87.8042 109.29 88.2954 108.736 88.7504L114.952 91.824L114.946 91.8237L112.739 95.6352L104.644 90.9117C103.302 91.3091 101.825 91.5077 100.217 91.5077C95.9033 91.5077 92.6816 90.2507 90.5515 87.7398C88.2134 84.9621 87.0449 80.5893 87.0449 74.6289C87.0449 68.567 88.3635 63.9796 91.0036 60.8647C93.4082 58.0154 96.7658 56.5931 101.075 56.5931ZM74.175 56.6421C77.3145 56.6421 80.1692 57.4822 82.7406 59.1564L81.4346 62.0667C79.2343 61.1315 77.0649 60.6618 74.9257 60.6618C73.1899 60.6618 71.8523 61.0796 70.92 61.9203C69.9824 62.7535 69.4025 63.8257 69.4025 65.1329C69.4025 67.1415 70.8334 68.8833 73.4755 70.3549C74.3411 70.8281 75.2037 71.3067 76.0632 71.7908L76.2604 71.9017L76.3592 71.9572L76.5566 72.0681L76.6552 72.1237L76.8523 72.2349C78.8523 73.3624 80.7343 74.4386 80.7343 74.4386C83.3761 76.314 84.693 78.3134 84.693 81.6065C84.693 84.4825 83.6392 86.8432 81.5383 88.6905C79.436 90.5294 76.6116 91.4515 73.0747 91.4515C69.7667 91.4515 66.5606 90.3902 63.4552 88.2853L64.9079 85.3724C67.5804 86.712 69.9988 87.381 72.1704 87.381C74.2071 87.381 75.8013 86.9263 76.9546 86.0283C78.1056 85.1237 78.7953 83.8621 78.7953 82.2624C78.7953 80.2489 77.3947 78.5277 74.8254 77.0839C74.0212 76.6396 73.2194 76.1909 72.42 75.738L72.2231 75.6266C71.8615 75.4223 71.4973 75.2154 71.1406 75.0128L70.9472 74.9028C69.2122 73.916 67.7122 73.0538 67.7122 73.0538C65.1437 71.175 63.8558 69.1592 63.8558 65.8378C63.8558 63.0908 64.8162 60.8704 66.7343 59.1813C68.6569 57.4885 71.1374 56.6421 74.175 56.6421ZM124.575 57.0959V86.8346H135.245V91.006H119.163V57.0962L124.575 57.0959ZM141.174 86.8475V87.5524H140V91.0022H139.104V87.5524H137.885V86.8475H141.174ZM143.34 86.8475L144.466 89.6796L145.501 86.8475H146.772V91.0022H145.927V87.8403L144.749 91.0022H144.14L142.96 87.8403H142.915V91.0022H142.115V86.8475H143.34ZM100.522 60.7633C95.3457 60.7633 92.7561 65.0355 92.7561 73.5741C92.7561 78.4653 93.4423 82.012 94.8122 84.2226C96.081 86.2684 98.0681 87.2893 100.774 87.2893C105.95 87.2893 108.54 82.9839 108.54 74.377C108.54 69.5544 107.853 66.038 106.485 63.8263C105.215 61.785 103.229 60.7633 100.523 60.7633" fill="#F29111"/>
<path d="M86.9543 2.10117C88.6715 -2.11832 94.6758 1.0771 97.0059 2.55102C97.577 2.91979 98.232 3.69887 98.8867 3.98684C99.9082 4.02695 100.929 4.1069 101.952 4.14959C103.871 4.60059 105.669 4.96907 107.181 5.83039C114.209 9.96936 118.784 14.1871 122.995 21.1539C123.895 22.6295 124.344 24.2264 125.079 25.8232C126.099 28.2035 127.245 30.702 128.429 32.9527C128.959 34.0198 129.37 35.2063 130.106 36.1075C130.393 36.5195 131.209 36.641 131.697 36.8871C133.046 37.5854 134.681 38.1155 135.949 38.935C138.319 40.4123 140.61 42.1728 142.692 43.9751C143.468 44.6708 143.997 45.6556 144.737 46.3914V46.7628C144.08 46.9642 143.426 47.1705 142.772 47.3358C141.341 47.7032 140.075 47.6201 138.687 47.9877C137.83 48.2364 136.766 48.5645 135.866 48.6479L135.949 48.7315C136.478 50.243 139.34 51.4722 140.649 52.3762C142.239 53.5235 143.712 54.9149 144.898 56.5129C145.307 56.9206 145.717 57.2917 146.124 57.6983C146.409 58.1103 146.489 58.6433 146.777 59.0106V59.135C146.458 59.0224 146.229 58.8075 146.011 58.5828L145.881 58.4473C145.751 58.3126 145.621 58.1802 145.471 58.0711C144.569 57.455 143.674 56.7181 142.772 56.1453C141.221 55.1613 139.422 54.5903 137.83 53.6026C136.93 53.0292 136.072 52.3762 135.213 51.7201C134.435 51.145 133.579 50.0407 133.09 49.2212C132.802 48.7685 132.762 48.2364 132.433 47.9089C132.492 47.3619 132.993 47.1994 133.499 47.0659L133.615 47.0353C133.79 46.99 133.961 46.9447 134.11 46.8848C136.234 45.9828 138.767 45.6556 142.037 45.7376C141.914 44.9164 139.87 43.8931 139.218 43.4015C137.908 42.4576 136.522 41.4728 135.133 40.6138C134.397 40.1639 133.128 39.8355 132.313 39.4679C131.209 39.0169 128.757 38.5662 128.145 37.7072C127.107 36.353 126.361 34.7378 125.636 33.1063L125.439 32.661C125.373 32.5126 125.308 32.3643 125.241 32.2161C124.385 30.2513 123.322 28.2029 122.464 26.1911C122.015 25.2098 121.809 24.3484 121.317 23.4072C118.335 17.6313 113.922 12.7954 108.571 9.39458C106.813 8.28798 104.852 7.26392 102.687 6.56793C101.461 6.19744 99.9884 6.40231 98.6816 6.11807H97.8214C97.0873 5.91119 96.4744 5.13297 95.9016 4.72266C94.6366 3.86363 93.3695 3.28684 91.8566 2.67394C91.3265 2.4281 89.8128 1.85561 89.2844 2.30632C88.9572 2.38856 88.7913 2.51205 88.7108 2.84042C88.3853 3.33039 88.6715 4.0685 88.8741 4.52036C89.4879 5.82982 90.3452 6.60804 91.1234 7.71463C91.8157 8.69601 92.6755 9.8026 93.1664 10.8696C94.2254 13.1633 94.7185 15.7046 95.6999 17.998C96.0638 18.8605 96.6394 19.8419 97.1692 20.6198C97.6182 21.2373 98.4346 21.6837 98.6816 22.4653C99.1738 23.2848 97.9446 25.9888 97.6601 26.8476C96.5956 30.2078 96.8019 34.8785 98.0277 37.7911L98.093 37.9447L98.1584 38.1003C98.6059 39.1671 99.085 40.3158 100.275 40.6141C100.357 40.5327 100.275 40.5754 100.437 40.5327C100.725 38.2782 100.806 36.1072 101.584 34.3433C102.033 33.2404 102.929 32.4608 103.544 31.5605C103.953 31.8057 103.953 32.5453 104.198 33.0347C104.729 34.304 105.3 35.6957 105.956 36.9688C107.302 39.5906 108.816 42.1324 110.531 44.4258C111.106 45.245 111.921 46.1467 112.656 46.8845C112.984 47.1702 113.35 47.3353 113.596 47.7029H113.677V47.8267C112.451 47.3748 111.674 46.1066 110.696 45.3662C108.855 43.9745 106.651 41.8845 105.382 39.8791C104.852 38.7278 104.278 37.6244 103.706 36.4788V36.396C103.462 36.7232 103.544 37.0482 103.421 37.5433C102.891 39.5906 103.299 41.9261 101.461 42.6625C99.3764 43.5249 97.8217 41.2708 97.1692 40.2464C95.0844 36.8464 94.5134 31.1106 95.9836 26.4805C96.3102 25.4556 96.3546 24.2264 96.9248 23.408C96.8016 22.6682 96.2314 22.4659 95.9016 22.0126C95.3297 21.2378 94.84 20.3353 94.3922 19.4748C93.532 17.794 92.92 15.7857 92.2669 13.9831C91.9798 13.247 91.8976 12.508 91.6114 11.8112C91.1231 10.7476 90.2231 9.68053 89.5288 8.73956C88.5887 7.38713 85.8506 4.76592 86.9543 2.10117ZM100.356 10.1284C100.465 10.2378 100.597 10.3335 100.733 10.4278L100.898 10.5407C101.117 10.6926 101.329 10.8525 101.459 11.0702C101.666 11.3585 101.704 11.643 101.951 11.9318C101.951 12.9166 101.666 13.5714 101.09 13.9794C101.09 13.9794 101.05 14.0224 101.01 14.0625C100.683 13.406 100.397 12.753 100.068 12.0972C99.6629 11.5247 99.0902 11.0705 98.7601 10.4164H98.6807V10.3341C99.1738 10.2123 99.6629 10.1284 100.356 10.1284Z" fill="#00758F"/>
</g>
<defs>
<clipPath id="clip0_22_2816">
<rect width="146.71" height="100" fill="white" transform="translate(0.0698242)"/>
</clipPath>
</defs>
</svg>
