<svg width="40" height="40" viewBox="0 0 40 40" fill="none" xmlns="http://www.w3.org/2000/svg">
<path d="M0 15.9681V24.0188H1.38188V17.6887L6.47812 24.0219H15.1325V22.7366H9.54781V20.6113H14.0384V19.3259H9.54781V17.2569H15.1322V15.9706H8.16562V17.2569H8.16625V23.9625L1.72719 15.9681H0ZM26.5906 15.9713V17.2572H29.4125V24.0228H30.7938V17.2572H33.5584V15.9709H26.5906V15.9713ZM16.8025 15.9747L23.2806 24.0259H25.0941L21.855 20.0031L25.0894 15.9809L23.28 15.9841L20.9491 18.8781L18.6116 15.975H16.8022L16.8025 15.9747ZM38.7269 20.5366C38.4891 20.5366 38.2753 20.5766 38.0859 20.6597C37.8976 20.742 37.7491 20.8574 37.6403 21.0059C37.5309 21.1549 37.4762 21.3282 37.4762 21.5259C37.4758 21.7664 37.5571 21.9588 37.72 22.1031C37.8819 22.2481 38.1031 22.356 38.3838 22.4269L38.7713 22.5244C38.8807 22.5509 38.9878 22.5858 39.0919 22.6288C39.1727 22.6606 39.2456 22.7098 39.3053 22.7728C39.3572 22.8333 39.3848 22.9109 39.3828 22.9906C39.3836 23.082 39.3523 23.1708 39.2944 23.2416C39.2315 23.3175 39.1495 23.3752 39.0569 23.4087C38.9437 23.4506 38.8237 23.471 38.7031 23.4688C38.5844 23.4706 38.4663 23.4514 38.3544 23.4119C38.2569 23.3768 38.1702 23.3168 38.1031 23.2378C38.037 23.1547 37.9986 23.053 37.9931 22.9469H37.3866C37.3949 23.1692 37.4539 23.3579 37.5634 23.5131C37.7278 23.7459 37.8247 23.7859 38.0197 23.8663C38.2134 23.9475 38.4437 23.9881 38.7078 23.9881C38.9811 23.9877 39.2137 23.946 39.4056 23.8631C39.5983 23.7787 39.7456 23.6623 39.8475 23.5138C39.9497 23.3641 40 23.1925 40 22.9956C39.9998 22.8498 39.9721 22.723 39.9169 22.6153C39.8625 22.5079 39.7858 22.4134 39.6919 22.3381C39.5944 22.2599 39.4862 22.196 39.3706 22.1484C39.2505 22.0973 39.126 22.0571 38.9987 22.0281L38.68 21.95C38.6096 21.9332 38.54 21.9128 38.4716 21.8891C38.4061 21.8669 38.3434 21.837 38.285 21.8C38.2306 21.7675 38.1846 21.7228 38.1506 21.6694C38.1167 21.6151 38.0995 21.5521 38.1012 21.4881C38.1013 21.4074 38.1274 21.3288 38.1756 21.2641C38.2244 21.1984 38.2959 21.1466 38.3875 21.1078C38.4928 21.0676 38.6048 21.048 38.7175 21.0503C38.9004 21.0501 39.0494 21.09 39.1644 21.17C39.22 21.2074 39.2664 21.2569 39.3001 21.3148C39.3338 21.3728 39.354 21.4376 39.3591 21.5044H39.9528C39.9523 21.3245 39.8963 21.1491 39.7925 21.0022C39.6883 20.8564 39.5449 20.7422 39.3622 20.6597C39.1799 20.5772 38.9681 20.5361 38.7269 20.5366ZM36.2275 20.5816V22.9409C36.2265 23.0591 36.2081 23.1584 36.1725 23.2391C36.1404 23.3151 36.085 23.379 36.0144 23.4216C35.9458 23.4632 35.8622 23.4841 35.7634 23.4841C35.673 23.4841 35.5927 23.4664 35.5225 23.4309C35.4547 23.3976 35.3981 23.3454 35.3594 23.2806C35.3189 23.2092 35.2979 23.1284 35.2984 23.0463H34.685C34.6846 23.2529 34.7311 23.4254 34.8247 23.5638C34.918 23.7025 35.0494 23.8112 35.2031 23.8769C35.3728 23.9497 35.556 23.9859 35.7406 23.9831C35.9588 23.9831 36.1499 23.9415 36.3141 23.8581C36.4748 23.7783 36.609 23.6536 36.7003 23.4991C36.792 23.3434 36.8386 23.1573 36.8403 22.9406V20.5816H36.2275ZM19.5613 20.6L16.7975 24.0319H18.6116L20.4669 21.7256L19.5613 20.6ZM33.8691 23.2556C33.7678 23.2556 33.6814 23.2906 33.6097 23.3606C33.575 23.3927 33.5474 23.4317 33.5289 23.4752C33.5104 23.5187 33.5013 23.5656 33.5022 23.6128C33.501 23.6606 33.5099 23.7081 33.5285 23.7522C33.547 23.7962 33.5747 23.8359 33.6097 23.8684C33.6814 23.9386 33.7678 23.9736 33.8691 23.9734C33.9322 23.974 33.9943 23.9571 34.0484 23.9247C34.1033 23.8933 34.1493 23.8486 34.1822 23.7947C34.2161 23.7401 34.2341 23.6771 34.2341 23.6128C34.234 23.5654 34.2241 23.5186 34.2051 23.4752C34.1861 23.4318 34.1583 23.3928 34.1234 23.3606C34.0902 23.327 34.0506 23.3004 34.0069 23.2823C33.9632 23.2643 33.9163 23.2552 33.8691 23.2556Z" fill="#EBEBEB"/>
</svg>
