<svg width="164" height="100" viewBox="0 0 164 100" fill="none" xmlns="http://www.w3.org/2000/svg">
<g clip-path="url(#clip0_22_2818)">
<path d="M81.0198 99.7115C80.4679 99.7115 79.9526 99.5644 79.4739 99.3068L74.5787 96.3991C73.8424 95.994 74.2105 95.8469 74.4316 95.7733C75.4252 95.4421 75.6093 95.3682 76.6398 94.7797C76.7503 94.7058 76.8978 94.7427 77.008 94.8163L80.7625 97.0615C80.9096 97.1351 81.0937 97.1351 81.2039 97.0615L95.8902 88.559C96.0373 88.4854 96.1112 88.338 96.1112 88.1542V71.1861C96.1112 71.0017 96.0373 70.8549 95.8902 70.781L81.2039 62.3154C81.0567 62.2415 80.8726 62.2415 80.7625 62.3154L66.0761 70.781C65.929 70.8545 65.8551 71.0386 65.8551 71.1857V88.1539C65.8551 88.3014 65.929 88.4851 66.0761 88.559L70.0882 90.8778C72.2599 91.9819 73.6217 90.6937 73.6217 89.4055V72.658C73.6217 72.4373 73.8058 72.2163 74.0634 72.2163H75.9405C76.1615 72.2163 76.3822 72.4004 76.3822 72.658V89.4055C76.3822 92.3131 74.7994 94.0064 72.0389 94.0064C71.1924 94.0064 70.53 94.0064 68.6526 93.0861L64.7879 90.8778C63.8309 90.3259 63.2421 89.295 63.2421 88.1908V71.2227C63.2421 70.1185 63.8309 69.0877 64.7879 68.5357L79.4739 60.0332C80.3943 59.5179 81.6459 59.5179 82.566 60.0332L97.2519 68.5357C98.209 69.0877 98.7981 70.1185 98.7981 71.2227V88.1908C98.7981 89.295 98.209 90.3259 97.2519 90.8778L82.566 99.3803C82.0873 99.6013 81.5351 99.7115 81.0198 99.7115ZM85.5475 88.0437C79.1064 88.0437 77.7812 85.0991 77.7812 82.5962C77.7812 82.3752 77.9653 82.1545 78.223 82.1545H80.137C80.3577 82.1545 80.5417 82.3017 80.5417 82.5227C80.8363 84.4733 81.6828 85.4303 85.5844 85.4303C88.6761 85.4303 90.0016 84.731 90.0016 83.0746C90.0016 82.1176 89.6331 81.4185 84.8115 80.9399C80.7994 80.5348 78.2965 79.6517 78.2965 76.4494C78.2965 73.4679 80.7997 71.701 84.9956 71.701C89.7067 71.701 92.0258 73.3208 92.3204 76.8539C92.3204 76.9647 92.2835 77.0749 92.2099 77.1854C92.136 77.259 92.0258 77.3326 91.9153 77.3326H90.0013C89.8172 77.3326 89.6331 77.1854 89.5965 77.0013C89.1548 74.9771 88.0137 74.3144 84.9956 74.3144C81.6093 74.3144 81.2042 75.4924 81.2042 76.3756C81.2042 77.4431 81.6828 77.7743 86.2468 78.3631C90.7742 78.9523 92.9093 79.7988 92.9093 82.9641C92.8723 86.2033 90.2223 88.0437 85.5475 88.0437Z" fill="#539E43"/>
<path d="M35.4523 33.3479C35.4523 32.6854 35.0842 32.0593 34.4953 31.7281L18.8889 22.7472C18.631 22.5998 18.3367 22.5262 18.0424 22.4893H17.895C17.6007 22.4893 17.3061 22.5998 17.0485 22.7472L1.44211 31.7281C0.852942 32.0593 0.485107 32.6851 0.485107 33.3479L0.52205 57.4934C0.52205 57.8246 0.706127 58.1558 1.00039 58.3033C1.29498 58.4873 1.66281 58.4873 1.92078 58.3033L11.1963 53.0029C11.7851 52.6717 12.1533 52.0459 12.1533 51.3835V40.0835C12.1533 39.4211 12.5211 38.7953 13.1103 38.4641L17.0485 36.1819C17.3431 35.9979 17.6743 35.924 18.0055 35.924C18.3367 35.924 18.6679 35.9979 18.9259 36.1819L22.8641 38.4641C23.4533 38.7953 23.8211 39.4208 23.8211 40.0835V51.3835C23.8211 52.0459 24.1892 52.6717 24.7781 53.0029L34.0536 58.3033C34.1969 58.3935 34.3628 58.4414 34.5321 58.4414C34.7014 58.4414 34.8673 58.3935 35.0106 58.3033C35.3052 58.1558 35.4892 57.8246 35.4892 57.4934L35.4523 33.3479ZM110.466 0.110589C110.172 -0.0368631 109.804 -0.0368631 109.546 0.110589C109.251 0.294666 109.067 0.588933 109.067 0.920143V24.8453C109.067 25.066 108.957 25.2867 108.736 25.4342C108.515 25.5443 108.294 25.5443 108.074 25.4342L104.172 23.1889C103.886 23.0261 103.563 22.9404 103.233 22.9404C102.904 22.9404 102.581 23.0261 102.295 23.1889L86.6883 32.2068C86.0994 32.538 85.7313 33.1638 85.7313 33.8262V51.8249C85.7313 52.4873 86.0994 53.1135 86.6883 53.4447L102.295 62.4625C102.581 62.6254 102.904 62.711 103.233 62.711C103.563 62.711 103.886 62.6254 104.172 62.4625L119.778 53.4447C120.367 53.1135 120.735 52.4877 120.735 51.8249V6.95677C120.735 6.2574 120.367 5.63193 119.778 5.3004L110.466 0.110589ZM109.031 45.8991C109.031 46.0832 108.957 46.2303 108.81 46.3039L103.473 49.3956C103.398 49.432 103.316 49.4509 103.233 49.4509C103.15 49.4509 103.069 49.432 102.994 49.3956L97.6571 46.3039C97.5096 46.2303 97.4361 46.0463 97.4361 45.8991V39.7154C97.4361 39.5313 97.5096 39.3842 97.6571 39.3106L102.994 36.2186C103.069 36.1822 103.15 36.1633 103.233 36.1633C103.316 36.1633 103.398 36.1822 103.473 36.2186L108.81 39.3106C108.957 39.3838 109.031 39.5682 109.031 39.7154V45.8991ZM162.401 39.5682C162.991 39.237 163.322 38.6112 163.322 37.9485V33.5686C163.322 32.9061 162.954 32.2803 162.401 31.9491L146.906 22.9682C146.619 22.8054 146.296 22.7197 145.967 22.7197C145.638 22.7197 145.314 22.8054 145.028 22.9682L129.422 31.9857C128.833 32.317 128.465 32.9428 128.465 33.6052V51.6042C128.465 52.2666 128.833 52.8924 129.422 53.2236L144.918 62.0574C145.507 62.3886 146.206 62.3886 146.758 62.0574L156.144 56.8313C156.439 56.6838 156.623 56.3526 156.623 56.0214C156.623 55.6902 156.439 55.359 156.144 55.2115L140.464 46.1937C140.17 46.0096 139.985 45.7154 139.985 45.3842V39.7526C139.985 39.4214 140.17 39.0902 140.464 38.9428L145.359 36.1453C145.503 36.0551 145.669 36.0073 145.838 36.0073C146.007 36.0073 146.173 36.0551 146.316 36.1453L151.212 38.9428C151.506 39.1268 151.69 39.4211 151.69 39.7526V44.1695C151.69 44.5007 151.874 44.8319 152.169 44.9791C152.312 45.0693 152.478 45.1171 152.647 45.1171C152.817 45.1171 152.983 45.0693 153.126 44.9791L162.401 39.5682Z" fill="#EBEBEB"/>
<path d="M145.727 38.7215C145.782 38.6855 145.846 38.6663 145.911 38.6663C145.977 38.6663 146.041 38.6855 146.096 38.7215L149.077 40.4514C149.187 40.5253 149.261 40.6355 149.261 40.7826V44.2428C149.261 44.39 149.188 44.5005 149.077 44.574L146.096 46.304C146.041 46.34 145.977 46.3592 145.911 46.3592C145.846 46.3592 145.782 46.34 145.727 46.304L142.746 44.574C142.636 44.5005 142.562 44.39 142.562 44.2428V40.783C142.562 40.6355 142.635 40.525 142.746 40.4517L145.727 38.7215Z" fill="#539E43"/>
<path d="M61.5488 23.0419C61.2628 22.8791 60.9394 22.7935 60.6103 22.7935C60.2812 22.7935 59.9577 22.8791 59.6717 23.0419L44.1759 31.9855C43.5867 32.3167 43.2555 32.9425 43.2555 33.6049V51.5304C43.2555 52.1928 43.6236 52.8186 44.1759 53.1498L59.6717 62.0941C59.9577 62.2569 60.2812 62.3425 60.6103 62.3425C60.9394 62.3425 61.2628 62.2569 61.5488 62.0941L77.045 53.1498C77.6338 52.8186 77.9654 52.1928 77.9654 51.5304V33.6052C77.9654 32.9428 77.5969 32.317 77.045 31.9858L61.5488 23.0419Z" fill="url(#paint0_linear_22_2818)"/>
<mask id="mask0_22_2818" style="mask-type:luminance" maskUnits="userSpaceOnUse" x="43" y="22" width="35" height="41">
<path d="M61.5488 23.0419C61.2628 22.8791 60.9394 22.7935 60.6103 22.7935C60.2812 22.7935 59.9577 22.8791 59.6717 23.0419L44.1759 31.9855C43.5867 32.3167 43.2555 32.9425 43.2555 33.6049V51.5304C43.2555 52.1928 43.6236 52.8186 44.1759 53.1498L59.6717 62.0941C59.9577 62.2569 60.2812 62.3425 60.6103 62.3425C60.9394 62.3425 61.2628 62.2569 61.5488 62.0941L77.045 53.1498C77.6338 52.8186 77.9654 52.1928 77.9654 51.5304V33.6052C77.9654 32.9428 77.5969 32.317 77.045 31.9858L61.5488 23.0419Z" fill="white"/>
</mask>
<g mask="url(#mask0_22_2818)">
<path d="M77.0817 31.9859L61.5123 23.042C61.3593 22.9647 61.1989 22.9031 61.0336 22.8579L43.5868 52.7458C43.7313 52.9223 43.9059 53.0718 44.1024 53.1875L59.6718 62.1318C60.1135 62.3894 60.6288 62.463 61.1072 62.3156L77.4868 32.3544C77.3763 32.2073 77.2288 32.0961 77.0817 31.9859Z" fill="url(#paint1_linear_22_2818)"/>
</g>
<mask id="mask1_22_2818" style="mask-type:luminance" maskUnits="userSpaceOnUse" x="43" y="22" width="35" height="41">
<path d="M61.5488 23.0419C61.2628 22.8791 60.9394 22.7935 60.6103 22.7935C60.2812 22.7935 59.9577 22.8791 59.6717 23.0419L44.1759 31.9855C43.5867 32.3167 43.2555 32.9425 43.2555 33.6049V51.5304C43.2555 52.1928 43.6236 52.8186 44.1759 53.1498L59.6717 62.0941C59.9577 62.2569 60.2812 62.3425 60.6103 62.3425C60.9394 62.3425 61.2628 62.2569 61.5488 62.0941L77.045 53.1498C77.6338 52.8186 77.9654 52.1928 77.9654 51.5304V33.6052C77.9654 32.9428 77.5969 32.317 77.045 31.9858L61.5488 23.0419Z" fill="white"/>
</mask>
<g mask="url(#mask1_22_2818)">
<path fill-rule="evenodd" clip-rule="evenodd" d="M77.1185 53.1502C77.5603 52.8925 77.8915 52.4508 78.0389 51.9724L60.9596 22.8209C60.5179 22.7473 60.0392 22.7839 59.6348 23.0416L44.1755 31.9492L60.8491 62.3521C61.0916 62.3124 61.3271 62.238 61.5485 62.1314L77.1185 53.1502Z" fill="url(#paint2_linear_22_2818)"/>
<path fill-rule="evenodd" clip-rule="evenodd" d="M77.1186 53.1502L61.5858 62.0945C61.3666 62.2063 61.1302 62.2809 60.8865 62.3152L61.1811 62.8674L78.4069 52.8929V52.6719L77.9651 51.9355C77.8916 52.4508 77.5604 52.8926 77.1186 53.1502Z" fill="url(#paint3_linear_22_2818)"/>
<path fill-rule="evenodd" clip-rule="evenodd" d="M77.1186 53.1502L61.5858 62.0945C61.3666 62.2063 61.1302 62.2809 60.8865 62.3152L61.1811 62.8674L78.4069 52.8929V52.6719L77.9651 51.9355C77.8916 52.4508 77.5604 52.8926 77.1186 53.1502Z" fill="url(#paint4_linear_22_2818)"/>
</g>
</g>
<defs>
<linearGradient id="paint0_linear_22_2818" x1="2410.05" y1="714.388" x2="711.556" y2="3383.23" gradientUnits="userSpaceOnUse">
<stop stop-color="#41873F"/>
<stop offset="0.3288" stop-color="#418B3D"/>
<stop offset="0.6352" stop-color="#419637"/>
<stop offset="0.9319" stop-color="#3FA92D"/>
<stop offset="1" stop-color="#3FAE2A"/>
</linearGradient>
<linearGradient id="paint1_linear_22_2818" x1="1510.68" y1="2203.85" x2="5764.48" y2="-107.263" gradientUnits="userSpaceOnUse">
<stop offset="0.1376" stop-color="#41873F"/>
<stop offset="0.4032" stop-color="#54A044"/>
<stop offset="0.7136" stop-color="#66B848"/>
<stop offset="0.9081" stop-color="#6CC04A"/>
</linearGradient>
<linearGradient id="paint2_linear_22_2818" x1="-104.451" y1="2000.9" x2="3481.27" y2="2000.9" gradientUnits="userSpaceOnUse">
<stop offset="0.09192" stop-color="#6CC04A"/>
<stop offset="0.2864" stop-color="#66B848"/>
<stop offset="0.5968" stop-color="#54A044"/>
<stop offset="0.8624" stop-color="#41873F"/>
</linearGradient>
<linearGradient id="paint3_linear_22_2818" x1="-1758.8" y1="601.534" x2="1826.89" y2="601.534" gradientUnits="userSpaceOnUse">
<stop offset="0.09192" stop-color="#6CC04A"/>
<stop offset="0.2864" stop-color="#66B848"/>
<stop offset="0.5968" stop-color="#54A044"/>
<stop offset="0.8624" stop-color="#41873F"/>
</linearGradient>
<linearGradient id="paint4_linear_22_2818" x1="2349.28" y1="-2255.44" x2="1440.88" y2="2504.52" gradientUnits="userSpaceOnUse">
<stop stop-color="#41873F"/>
<stop offset="0.3288" stop-color="#418B3D"/>
<stop offset="0.6352" stop-color="#419637"/>
<stop offset="0.9319" stop-color="#3FA92D"/>
<stop offset="1" stop-color="#3FAE2A"/>
</linearGradient>
<clipPath id="clip0_22_2818">
<rect width="163.06" height="100" fill="white" transform="translate(0.410156)"/>
</clipPath>
</defs>
</svg>
