<svg width="101" height="100" viewBox="0 0 101 100" fill="none" xmlns="http://www.w3.org/2000/svg">
<path d="M68.1078 59.4336C68.6016 55.3227 68.4539 54.7195 71.5156 55.3852L72.293 55.4539C74.6477 55.561 77.7281 55.075 79.5367 54.2344C83.432 52.4274 85.7414 49.4086 81.9008 50.2016C73.1391 52.0086 72.5367 49.043 72.5367 49.043C81.7891 35.3156 85.657 17.8906 82.3188 13.625C73.2141 1.99064 57.4531 7.49221 57.1891 7.63518L57.1047 7.65158C55.3734 7.29143 53.4367 7.07736 51.2602 7.04221C47.2953 6.97736 44.2867 8.08205 42.0047 9.81252C42.0047 9.81252 13.8883 -1.77107 15.1961 24.3797C15.4742 29.943 23.1703 66.475 32.3492 55.4406C35.7039 51.4063 38.9461 47.9945 38.9461 47.9945C40.5563 49.0641 42.4836 49.6094 44.5055 49.4133L44.6617 49.2805C44.6133 49.7813 44.6344 50.2711 44.725 50.8508C42.3602 53.4938 43.0555 53.9578 38.3274 54.9305C33.5445 55.9164 36.3547 57.6711 38.1883 58.1297C40.4133 58.6867 45.5578 59.475 49.0352 54.6071L48.8969 55.1625C49.825 55.9047 49.7617 60.4961 49.893 63.7766C50.0242 67.0571 50.2445 70.118 50.9133 71.9242C51.582 73.7289 52.3711 78.3781 58.5844 77.0469C63.7766 75.9328 67.7461 74.3313 68.1078 59.4336Z" fill="#EBEBEB"/>
<path d="M56.5608 80.289C53.8124 80.289 52.0233 79.2265 50.9358 78.2C49.2952 76.6523 48.6444 74.6578 48.2562 73.4664L48.0882 72.9687C47.3054 70.8554 47.0405 67.8132 46.8835 63.896C46.8603 63.2837 46.8408 62.6712 46.8249 62.0585C46.8116 61.589 46.7952 61 46.7718 60.382C45.7815 60.8538 44.7306 61.1861 43.6491 61.3695C41.7116 61.7007 39.6288 61.5929 37.4569 61.0499C35.9249 60.6671 34.3327 59.8734 33.4257 58.6468C30.7812 60.9632 28.2585 60.6484 26.8843 60.1906C24.4601 59.382 22.2905 57.1109 20.2507 53.2453C18.7983 50.4929 17.3929 46.9054 16.0733 42.5843C13.7765 35.0585 12.3171 27.132 12.1874 24.5304C11.7796 16.3843 13.9718 10.5593 18.703 7.21792C26.1679 1.94526 37.4765 5.04526 41.5991 6.45307C44.3687 4.78354 47.6273 3.97026 51.3101 4.02963C53.2882 4.06166 55.171 4.23588 56.9202 4.54682C58.7444 3.97338 62.3491 3.14995 66.4749 3.20073C74.0765 3.29135 80.3757 6.25385 84.6905 11.7679C87.7694 15.7023 86.2476 23.9632 85.0655 28.5382C83.4038 34.9718 80.4905 41.8164 76.9124 47.7742C77.8843 47.7812 79.2913 47.664 81.2929 47.2515C85.2413 46.4359 86.3952 48.5531 86.7085 49.5007C87.964 53.3031 82.5069 56.1757 80.8046 56.9656C78.6233 57.9789 75.0679 58.5953 72.1554 58.4617L72.028 58.4531L71.2632 58.3859L71.1874 59.0234L71.1147 59.6476C70.9194 67.1976 69.8405 71.9789 67.621 75.139C65.2952 78.4507 62.0616 79.3796 59.214 79.9898C58.3428 80.184 57.4534 80.2843 56.5608 80.289ZM50.778 52.8093C52.5522 54.2289 52.7077 56.9 52.846 61.8921C52.8632 62.5148 52.8796 63.1046 52.9015 63.6554C52.9687 65.3226 53.1257 69.2273 53.7366 70.8773C53.8233 71.1101 53.9007 71.3476 53.9819 71.5976C54.6632 73.6851 55.0054 74.7312 57.9515 74.1C60.4257 73.5703 61.6968 73.0945 62.6921 71.6773C64.139 69.6164 64.9483 65.4734 65.0968 59.3593L68.1062 59.4328L65.1171 59.0742L65.2046 58.3281C65.4913 55.8687 65.6976 54.0906 67.3421 52.9156C68.6608 51.9726 70.1647 52.064 71.3624 52.2796C70.0468 51.2867 69.6827 50.1195 69.5858 49.6414L69.3351 48.4054L70.0397 47.3585C74.1022 41.3304 77.453 33.9218 79.2327 27.032C81.0608 19.9523 80.503 16.1921 79.946 15.4812C72.5663 6.05073 59.7671 9.9437 58.4312 10.3867L58.2046 10.5085L57.0718 10.7203L56.4913 10.5999C54.8921 10.2679 53.1155 10.0843 51.2101 10.0531C48.2171 10.0031 45.803 10.7101 43.8233 12.2124L42.4499 13.2539L40.8554 12.5968C37.4507 11.2046 27.4476 8.40541 22.1694 12.1437C19.2398 14.2187 17.9054 18.2851 18.2023 24.2296C18.2999 26.1921 19.6343 33.621 21.8327 40.8273C24.8726 50.7851 27.6351 54.0921 28.7882 54.4773C28.989 54.5453 29.5116 54.139 30.0312 53.5156C33.4108 49.4507 36.6249 46.0625 36.7601 45.9195L38.503 44.0859L40.6101 45.4859C41.4593 46.0507 42.396 46.3703 43.3585 46.4304L48.3843 42.1445L47.6562 49.5742C47.6398 49.7414 47.6319 49.9679 47.6976 50.3898L47.9163 51.7984L46.9687 52.8593L46.8593 52.982L49.6202 54.257L50.778 52.8093Z" fill="#EBEBEB"/>
<path d="M81.9032 50.2015C73.1407 52.0085 72.5383 49.0421 72.5383 49.0421C81.7899 35.3148 85.6571 17.889 82.3196 13.6241C73.2141 1.98975 57.4532 7.4921 57.1899 7.63507L57.1047 7.64991C55.3735 7.29132 53.4368 7.07725 51.2594 7.0421C47.2946 6.97725 44.2868 8.08116 42.0047 9.81163C42.0047 9.81163 13.8876 -1.77118 15.1954 24.3796C15.4735 29.9429 23.1696 66.4749 32.3485 55.4405C35.7032 51.4062 38.9446 47.9944 38.9446 47.9944C40.5547 49.064 42.4821 49.6093 44.5032 49.4132L44.6602 49.2804C44.6118 49.7812 44.6337 50.271 44.7227 50.8507C42.3587 53.4937 43.0524 53.9577 38.3258 54.9304C33.5422 55.9163 36.3524 57.671 38.1876 58.1296C40.4118 58.6866 45.5571 59.4749 49.0337 54.6069L48.8946 55.1624C49.8212 55.9046 50.4719 59.9898 50.3626 63.6929C50.2532 67.396 50.1805 69.9382 50.911 71.9241C51.6415 73.9101 52.3688 78.378 58.5829 77.0468C63.7751 75.9335 66.4657 73.0499 66.8407 68.2405C67.1063 64.821 67.7071 65.3265 67.7454 62.2687L68.2282 60.821C68.7837 56.1851 68.3165 54.6898 71.5157 55.3858L72.293 55.4538C74.6477 55.5616 77.729 55.0749 79.5376 54.2343C83.4329 52.4265 85.743 49.4085 81.9032 50.2015Z" fill="#336791"/>
<path d="M56.875 78.4328C51.6946 78.4336 50.054 74.3312 49.3821 72.6539C48.4 70.1961 48.1875 60.6554 48.4063 52.8312C48.4209 52.57 48.5368 52.3248 48.7294 52.1477C48.922 51.9706 49.176 51.8756 49.4376 51.8829C49.6991 51.8903 49.9474 51.9993 50.1298 52.1869C50.3122 52.3745 50.4142 52.6258 50.4141 52.8875C50.1618 61.9117 50.5204 70.089 51.2469 71.9078C52.3821 74.7453 54.1032 77.2273 58.9711 76.1851C63.5922 75.1937 65.3227 73.4414 66.093 68.9742C66.6852 65.5453 67.8539 55.7914 67.9977 53.8664C68.0175 53.6008 68.1419 53.354 68.3437 53.1803C68.5454 53.0065 68.8079 52.92 69.0735 52.9398C69.339 52.9596 69.5858 53.084 69.7596 53.2858C69.9333 53.4875 70.0198 53.7501 70 54.0156C69.85 56.0187 68.686 65.7546 68.0711 69.3156C67.161 74.5929 64.8086 76.9867 59.3914 78.1484C58.5649 78.3309 57.7215 78.4262 56.875 78.4328ZM28.7883 58.3976C28.3356 58.3977 27.8858 58.3236 27.4571 58.1781C24.0922 57.0554 20.8875 51.5757 17.9313 41.8898C15.6813 34.5164 14.2555 26.8211 14.1305 24.3203C13.7594 16.9062 15.6696 11.6601 19.8063 8.72886C27.9907 2.92964 41.7594 8.4523 42.3414 8.6898C42.5857 8.79202 42.7797 8.98659 42.8811 9.23116C42.9826 9.47572 42.9834 9.75047 42.8832 9.99558C42.7831 10.2407 42.5901 10.4363 42.3464 10.5398C42.1028 10.6434 41.828 10.6465 41.5821 10.5484V10.5492C41.4493 10.4945 28.2461 5.20542 20.9633 10.3703C17.4258 12.8789 15.8016 17.5382 16.1352 24.2211C16.2407 26.3273 17.5727 33.839 19.8516 41.3046C22.4907 49.9507 25.4946 55.4078 28.0922 56.2734C28.4993 56.4101 29.7399 56.8234 31.5149 54.6906C34.8524 50.675 37.9188 47.4703 37.9493 47.4382C38.136 47.2573 38.3855 47.1558 38.6455 47.1551C38.9055 47.1544 39.1557 47.2544 39.3434 47.4343C39.5311 47.6141 39.6419 47.8597 39.6523 48.1195C39.6627 48.3793 39.572 48.633 39.3993 48.8273C39.3688 48.8586 36.3493 52.0156 33.0586 55.9742C31.5 57.8476 30.0055 58.3976 28.7883 58.3976ZM72.4758 49.9375C72.2935 49.9377 72.1146 49.8883 71.9583 49.7945C71.8019 49.7007 71.6741 49.5661 71.5886 49.4051C71.503 49.2441 71.4629 49.0628 71.4727 48.8808C71.4824 48.6987 71.5416 48.5228 71.6438 48.3718C80.9961 34.4937 84.2789 17.7257 81.4672 14.1335C77.9282 9.61167 72.9305 7.24917 66.6141 7.11402C61.9368 7.01246 58.2188 8.20699 57.6118 8.41558L57.4594 8.4773C56.8485 8.66949 56.3797 8.33433 56.2032 7.94292C56.1026 7.71867 56.0874 7.46538 56.1605 7.23071C56.2336 6.99604 56.3899 6.79617 56.6 6.66871L56.8704 6.55777L56.8571 6.56167L56.8711 6.55699C57.9032 6.17964 61.6774 5.04683 66.3532 5.10074C73.343 5.17417 79.1164 7.87027 83.0493 12.8953C84.9102 15.2734 84.9141 20.7523 83.061 27.9265C81.1719 35.2406 77.6172 43.1023 73.3094 49.4945C73.2177 49.6313 73.0936 49.7432 72.9482 49.8205C72.8028 49.8978 72.6405 49.938 72.4758 49.9375ZM72.9532 56.3617C71.3563 56.3617 69.925 56.1375 69.068 55.6234C68.1868 55.0961 68.0188 54.3781 67.9969 53.9976C67.7563 49.7757 70.086 49.0406 71.2743 48.7054C71.1086 48.4554 70.8727 48.1609 70.6297 47.857C69.9368 46.9914 68.9883 45.8054 68.2571 44.032C68.143 43.7554 67.7836 43.1109 67.368 42.3656C65.1157 38.3273 60.4297 29.9234 63.4399 25.6195C64.8336 23.6281 67.6071 22.8445 71.6946 23.282C70.4922 19.6187 64.7657 8.15855 51.1797 7.93589C47.093 7.86714 43.7414 9.12417 41.2235 11.6664C35.5852 17.3609 35.7899 27.664 35.7922 27.7664C35.7957 27.8981 35.7731 28.0293 35.7259 28.1524C35.6786 28.2755 35.6076 28.388 35.5168 28.4836C35.4261 28.5792 35.3174 28.656 35.1969 28.7096C35.0765 28.7633 34.9467 28.7926 34.8149 28.7961C34.6831 28.7995 34.5519 28.7769 34.4289 28.7297C34.3058 28.6824 34.1932 28.6114 34.0976 28.5206C34.002 28.4299 33.9252 28.3212 33.8716 28.2007C33.818 28.0803 33.7886 27.9505 33.7852 27.8187C33.7727 27.3617 33.5618 16.55 39.7969 10.2531C42.7149 7.30621 46.5555 5.85152 51.2125 5.9273C59.9063 6.07027 65.5008 10.489 68.6641 14.1718C72.111 18.1843 73.8016 22.6109 73.9407 24.0875C74.0446 25.1859 73.2563 25.4062 73.0969 25.4382L72.7352 25.4468C68.7235 24.8046 66.15 25.25 65.086 26.771C62.7961 30.0429 67.2289 37.9921 69.1219 41.3875C69.6055 42.2531 69.9539 42.8789 70.1133 43.2656C70.7352 44.7734 71.5461 45.7867 72.1977 46.6007C72.7704 47.3171 73.2672 47.9375 73.4454 48.6671C73.5274 48.8117 74.6977 50.5414 81.6391 49.1086C83.3789 48.75 84.4219 49.057 84.7407 50.0211C85.368 51.9187 81.8485 54.1312 79.9 55.0367C78.1516 55.8484 75.3649 56.3617 72.9532 56.3617ZM69.9993 53.832C70.2188 54.0546 71.3204 54.4375 73.6024 54.3398C75.6305 54.2523 77.7704 53.8109 79.0547 53.2156C80.6969 52.4531 81.7922 51.6007 82.3602 51.0187L82.0446 51.0765C77.6063 51.9929 74.4672 51.8711 72.7149 50.7132C72.5971 50.6353 72.4837 50.5511 72.375 50.4609C72.1852 50.5359 72.0094 50.5851 71.8844 50.6203C70.8899 50.8992 69.8618 51.1875 69.9993 53.832ZM41.3297 59.4406C40.2274 59.4406 39.0672 59.2914 37.8821 58.9937C36.6547 58.6867 34.5844 57.7625 34.6164 56.2445C34.6516 54.5406 37.1289 54.0296 38.0625 53.8375C41.4313 53.1437 41.6508 52.8656 42.7039 51.5289C43.011 51.139 43.393 50.6539 43.9133 50.0718C44.6868 49.207 45.5321 48.7679 46.4258 48.7679C47.0477 48.7679 47.5586 48.9796 47.8954 49.1187C48.9704 49.564 49.8672 50.6406 50.236 51.9296C50.5688 53.0921 50.4102 54.2109 49.7891 55.0796C47.7516 57.9336 44.8266 59.4406 41.3297 59.4406ZM36.7852 56.3312C37.0883 56.5648 37.6946 56.8773 38.3688 57.0468C39.3954 57.3031 40.3907 57.4336 41.3297 57.4336C44.1907 57.4336 46.4868 56.2484 48.1555 53.9132C48.5032 53.4257 48.3993 52.8078 48.3063 52.482C48.111 51.8007 47.6266 51.1812 47.1274 50.9734C46.8563 50.8609 46.6321 50.775 46.4258 50.775C46.3149 50.775 45.9782 50.775 45.4102 51.4101C44.9305 51.9461 44.586 52.3836 44.2805 52.7703C42.9696 54.4351 42.3688 55 38.4672 55.8039C37.5157 56.0007 37.0274 56.1992 36.7852 56.3312ZM44.5055 51.7C44.2659 51.6996 44.0342 51.6136 43.8524 51.4574C43.6706 51.3013 43.5506 51.0853 43.5141 50.8484C43.4884 50.6817 43.4717 50.5138 43.4641 50.3453C40.9063 50.2968 38.4391 49.2 36.5664 47.2453C34.1985 44.7742 33.1204 41.3507 33.6094 37.8531C34.1407 34.0546 33.9422 30.7015 33.8352 28.9C33.8086 28.5294 33.7922 28.1582 33.786 27.7867C33.7875 27.4695 33.7938 26.6265 36.6102 25.1992C37.6118 24.6914 39.6204 23.8054 41.8141 23.5781C45.45 23.2031 47.8461 24.8218 48.5633 28.1375C50.4993 37.0906 48.7164 41.0507 47.4149 43.9421C47.1719 44.4796 46.943 44.989 46.7602 45.4812L46.5985 45.9164C45.911 47.7601 45.3164 49.3531 45.4993 50.5437C45.5394 50.8069 45.4736 51.0753 45.3161 51.29C45.1587 51.5047 44.9225 51.6482 44.6594 51.689L44.5055 51.7ZM35.8 28.064L35.8399 28.7812C35.9508 30.6523 36.1571 34.1351 35.5977 38.132C35.1946 41.0164 36.0758 43.8328 38.0157 45.857C39.5485 47.457 41.5672 48.3398 43.6414 48.3398H43.6844C43.9172 47.3609 44.3024 46.3281 44.7172 45.2148L44.8782 44.7828C45.0852 44.2265 45.3274 43.6882 45.5836 43.1187C46.8368 40.3343 48.3961 36.8687 46.6 28.5617C46.2438 26.9171 45.3813 25.9648 43.9633 25.6507C41.0508 25.007 36.711 27.1976 35.8 28.064ZM41.8594 27.6382C41.8094 27.9929 42.5102 28.9406 43.4227 29.0671C44.3344 29.1945 45.1149 28.4539 45.1641 28.0992C45.2133 27.7445 44.5133 27.3531 43.6 27.2257C42.6883 27.0984 41.9079 27.2828 41.8594 27.6382ZM43.6329 29.4171L43.3766 29.3992C42.8102 29.3203 42.2375 28.9632 41.8461 28.4437C41.7086 28.2617 41.4836 27.907 41.5282 27.5914C41.5922 27.1281 42.1563 26.8515 43.0383 26.8515C43.2368 26.8515 43.4399 26.8658 43.6477 26.8945C44.129 26.9617 44.5766 27.1007 44.9071 27.2851C45.4797 27.6054 45.5219 27.9617 45.4961 28.1468C45.425 28.657 44.611 29.4171 43.6329 29.4171ZM42.1922 27.6976C42.2211 27.9164 42.7625 28.639 43.4688 28.7367L43.6321 28.7484C44.2836 28.7484 44.7711 28.2351 44.8282 28.0671C44.768 27.9531 44.3493 27.6679 43.5539 27.5586C43.3828 27.5346 43.2103 27.5221 43.0375 27.5211C42.5282 27.5203 42.2555 27.6351 42.1922 27.6976ZM69.6305 26.914C69.6797 27.2695 68.9805 28.2171 68.0672 28.3437C67.1547 28.4703 66.3743 27.7304 66.3243 27.375C66.2758 27.0203 66.9758 26.6289 67.8883 26.5023C68.8008 26.3742 69.5805 26.5601 69.6305 26.914ZM67.8571 28.525C66.9782 28.525 66.2211 27.8414 66.1586 27.3984C66.0868 26.8664 66.9625 26.4617 67.8657 26.3367C68.0651 26.3085 68.2602 26.2945 68.4508 26.2945C69.2297 26.2945 69.7454 26.5234 69.7969 26.8914C69.8305 27.1304 69.6477 27.4984 69.3321 27.8296C69.1243 28.0484 68.6868 28.4273 68.0914 28.5093L67.8571 28.525ZM68.45 26.6289C68.275 26.6289 68.0954 26.6416 67.911 26.6671C67.0032 26.7929 66.4633 27.1578 66.4891 27.3531C66.5196 27.5671 67.0985 28.1906 67.8563 28.1906L68.043 28.1773C68.5383 28.1078 68.9102 27.7851 69.0875 27.5984C69.3657 27.3054 69.4766 27.0304 69.4633 26.9359C69.4469 26.8132 69.1125 26.6289 68.45 26.6289ZM70.9454 47.2953C70.7635 47.2952 70.5851 47.2457 70.4292 47.1521C70.2733 47.0585 70.1458 46.9243 70.0602 46.7639C69.9746 46.6035 69.9342 46.4228 69.9433 46.2412C69.9523 46.0596 70.0106 45.8839 70.1118 45.7328C72.2493 42.5398 71.8579 39.2828 71.4797 36.1343C71.318 34.7921 71.1516 33.4054 71.1954 32.0734C71.2391 30.7039 71.4125 29.5742 71.5813 28.4804C71.7805 27.1859 71.9688 25.9617 71.8907 24.5101C71.8849 24.2492 71.9809 23.9964 72.1583 23.805C72.3357 23.6136 72.5806 23.4988 72.8412 23.4848C73.1017 23.4708 73.3575 23.5587 73.5544 23.7299C73.7513 23.9012 73.8739 24.1423 73.8961 24.4023C73.9852 26.0617 73.7719 27.4461 73.5657 28.7859C73.4063 29.8195 73.2414 30.8882 73.2016 32.1375C73.1633 33.3164 73.3141 34.5687 73.4735 35.8937C73.8766 39.2429 74.3321 43.039 71.7805 46.8492C71.5868 47.1382 71.2688 47.2953 70.9454 47.2953Z" fill="white"/>
<path d="M3.14453 80.6126C4.26614 80.4298 5.40111 80.3415 6.5375 80.3485C8.28359 80.3485 9.56406 80.7548 10.3766 81.486C11.1281 82.136 11.575 83.1313 11.575 84.3509C11.575 85.5899 11.2086 86.5649 10.518 87.2759C9.58359 88.2712 8.06016 88.779 6.33359 88.779C5.80547 88.779 5.31797 88.7587 4.9125 88.6571V94.1423H3.14453V80.6126ZM4.9125 87.2142C5.29844 87.3157 5.78594 87.3563 6.375 87.3563C8.50703 87.3563 9.80781 86.3204 9.80781 84.4313C9.80781 82.6235 8.52812 81.7501 6.57812 81.7501C5.80625 81.7501 5.21719 81.811 4.9125 81.8923V87.2142ZM22.2797 89.1438C22.2797 92.7798 19.7602 94.3649 17.3836 94.3649C14.7227 94.3649 12.6711 92.4149 12.6711 89.3063C12.6711 86.0157 14.8242 84.086 17.5461 84.086C20.3703 84.0853 22.2797 86.1376 22.2797 89.1438ZM14.4797 89.2454C14.4797 91.3985 15.7188 93.0235 17.4656 93.0235C19.1719 93.0235 20.4508 91.4188 20.4508 89.2048C20.4508 87.5392 19.6187 85.4267 17.5055 85.4267C15.3922 85.4267 14.4797 87.3767 14.4797 89.2454ZM24.2898 92.3126C24.818 92.6579 25.7523 93.0235 26.6461 93.0235C27.9461 93.0235 28.5555 92.3735 28.5555 91.561C28.5555 90.7079 28.0484 90.2407 26.7273 89.7532C24.9602 89.1235 24.1273 88.1485 24.1273 86.9704C24.1273 85.386 25.407 84.086 27.5195 84.086C28.5148 84.086 29.3891 84.3704 29.9375 84.6954L29.4906 85.9954C28.886 85.623 28.1898 85.4261 27.4797 85.4267C26.4234 85.4267 25.8344 86.036 25.8344 86.7673C25.8344 87.5798 26.4242 87.9454 27.7039 88.4329C29.4102 89.0829 30.2836 89.936 30.2836 91.3985C30.2836 93.1251 28.943 94.3438 26.607 94.3438C25.5305 94.3438 24.5352 94.0798 23.8445 93.6735L24.2898 92.3126ZM34.7313 81.4853V84.3087H37.2898V85.6696H34.7313V90.9712C34.7313 92.1899 35.0758 92.8806 36.0719 92.8806C36.4211 92.8864 36.7695 92.8454 37.1078 92.7587L37.1891 94.0993C36.8445 94.2415 36.2953 94.3431 35.6055 94.3431C34.7727 94.3431 34.1016 94.079 33.675 93.5915C33.168 93.0634 32.9844 92.1899 32.9844 91.0321V85.6696H31.4609V84.3087H32.9844V81.9524L34.7313 81.4853ZM47.65 84.3095C47.6086 85.0204 47.5688 85.8126 47.5688 87.011V92.7188C47.5688 94.9735 47.1219 96.3548 46.1672 97.2087C45.2125 98.1024 43.8312 98.3868 42.5922 98.3868C41.4141 98.3868 40.1141 98.1024 39.3211 97.5743L39.768 96.2134C40.418 96.6196 41.4336 96.9853 42.6523 96.9853C44.4805 96.9853 45.8211 96.0306 45.8211 93.5524V92.4556H45.7805C45.232 93.3696 44.1758 94.1009 42.6523 94.1009C40.2148 94.1009 38.468 92.029 38.468 89.3063C38.468 85.9751 40.6414 84.086 42.8961 84.086C44.6031 84.086 45.5375 84.9798 45.9641 85.7923H46.0047L46.0859 84.3095H47.65ZM45.8016 88.1892C45.8016 87.8845 45.7812 87.6204 45.7 87.3767C45.375 86.3407 44.5016 85.4876 43.2016 85.4876C41.4945 85.4876 40.2766 86.9298 40.2766 89.2048C40.2766 91.1345 41.2516 92.7392 43.1813 92.7392C44.2781 92.7392 45.2734 92.0485 45.6594 90.911C45.7609 90.6063 45.8023 90.261 45.8023 89.9563L45.8016 88.1892ZM50.4117 87.3767C50.4117 86.2188 50.3914 85.2235 50.3305 84.3095H51.8953L51.9555 86.2392H52.0367C52.4836 84.9188 53.5602 84.086 54.7586 84.086C54.9617 84.086 55.1031 84.1063 55.2656 84.147V85.8329C55.0658 85.7892 54.8616 85.7688 54.657 85.772C53.3977 85.772 52.5031 86.7267 52.2602 88.0673C52.2099 88.3421 52.1827 88.6207 52.1789 88.9001V94.1407H50.4117V87.3767ZM57.8469 89.5501C57.8875 91.9673 59.4305 92.9626 61.218 92.9626C62.4984 92.9626 63.2695 92.7392 63.9398 92.4548L64.2445 93.7345C63.6148 94.0188 62.5383 94.3438 60.9742 94.3438C57.9477 94.3438 56.1398 92.3532 56.1398 89.3876C56.1398 86.422 57.8867 84.0853 60.7508 84.0853C63.9602 84.0853 64.8133 86.9087 64.8133 88.7165C64.8133 89.0821 64.7727 89.3665 64.7523 89.5493L57.8469 89.5501ZM63.0875 88.2704C63.107 87.1329 62.6195 85.3657 60.6094 85.3657C58.8016 85.3657 58.0094 87.0313 57.8664 88.2704H63.0875Z" fill="#EBEBEB"/>
<path d="M66.8446 91.9875C67.802 92.5633 68.8962 92.8719 70.0134 92.8812C71.8212 92.8812 72.8774 91.9266 72.8774 90.5453C72.8774 89.2656 72.1462 88.5344 70.2978 87.8234C68.0634 87.0312 66.6821 85.8734 66.6821 83.9437C66.6821 81.8109 68.4493 80.2266 71.1103 80.2266C72.5118 80.2266 73.5274 80.5516 74.1368 80.8969L73.6493 82.3391C72.85 81.9101 71.9565 81.6867 71.0493 81.6891C69.1806 81.6891 68.4696 82.8063 68.4696 83.7406C68.4696 85.0203 69.3017 85.65 71.1915 86.3812C73.5071 87.2758 74.6853 88.3922 74.6853 90.4031C74.6853 92.5156 73.1212 94.3438 69.8915 94.3438C68.5712 94.3438 67.129 93.9578 66.397 93.4703L66.8446 91.9875ZM88.3962 96.1516C86.6304 95.6881 84.8824 95.1596 83.1556 94.5672C82.8712 94.4656 82.5868 94.3641 82.3228 94.3641C79.0728 94.2422 76.2899 91.8453 76.2899 87.4375C76.2899 83.05 78.9712 80.2266 82.6681 80.2266C86.3853 80.2266 88.8032 83.1109 88.8032 87.1531C88.8032 90.6672 87.1782 92.9219 84.9032 93.7141V93.7953C86.2642 94.1406 87.747 94.4656 88.9048 94.6687L88.3962 96.1516ZM86.9337 87.2344C86.9337 84.4922 85.5126 81.668 82.6071 81.668C79.6212 81.668 78.1587 84.4305 78.179 87.3969C78.1587 90.3016 79.7634 92.9219 82.5259 92.9219C85.3501 92.9219 86.9337 90.3625 86.9337 87.2344ZM91.097 80.45H92.8649V92.6578H98.7149V94.1406H91.097V80.45Z" fill="#336791"/>
</svg>
