<svg width="41" height="40" viewBox="0 0 41 40" fill="none" xmlns="http://www.w3.org/2000/svg">
<g clip-path="url(#clip0_64_1263)">
<path d="M25.7635 13.8081C25.1907 13.6228 24.8947 13.6853 24.2941 13.6178C23.3653 13.5137 22.9953 13.1403 22.8385 12.1794C22.7507 11.6428 22.8541 10.8575 22.63 10.3712C22.2013 9.44406 21.1975 9.02812 20.1894 9.26562C19.3382 9.46624 18.63 10.3412 18.5907 11.2397C18.546 12.265 19.1141 13.1403 20.0894 13.4422C20.5528 13.5859 21.0453 13.6584 21.5294 13.695C22.4169 13.7616 22.4853 14.2691 22.7253 14.6869C22.8766 14.9503 23.0235 15.2097 23.0235 15.995C23.0235 16.7803 22.8757 17.04 22.7253 17.3034C22.4853 17.72 22.1891 17.9931 21.3013 18.0606C20.8175 18.0975 20.3241 18.17 19.8616 18.3137C18.886 18.6166 18.3178 19.4906 18.3628 20.5162C18.4019 21.4144 19.1103 22.2894 19.9616 22.49C20.9697 22.7284 21.9732 22.3119 22.4022 21.3844C22.6272 20.8981 22.7507 20.3472 22.8385 19.8109C22.9963 18.85 23.3663 18.4766 24.2941 18.3722C24.895 18.3047 25.5166 18.3722 26.0797 18.0434C26.6744 17.5962 27.206 16.925 27.206 15.995C27.206 15.065 26.6332 14.09 25.7635 13.8081Z" fill="#F44250"/>
<path d="M16.2345 18.1747C15.0635 18.1747 14.1088 17.1903 14.1088 15.9841C14.1088 14.7775 15.0635 13.7934 16.2345 13.7934C17.4054 13.7934 18.3601 14.7775 18.3601 15.9841C18.3601 17.1897 17.4042 18.1747 16.2345 18.1747ZM12.3182 22.6266C11.1495 22.6238 10.1973 21.6359 10.2001 20.4281C10.2029 19.2228 11.1617 18.2416 12.3332 18.2453C13.5029 18.2484 14.4551 19.2363 14.4513 20.4438C14.4485 21.6484 13.4898 22.6297 12.3182 22.6266ZM28.1132 22.6266C26.9407 22.6334 25.9782 21.6559 25.9717 20.4525C25.9651 19.2441 26.9135 18.2522 28.081 18.2453C29.2538 18.2388 30.2163 19.2159 30.2229 20.4197C30.2292 21.6269 29.281 22.6197 28.1132 22.6266ZM4.64947 30.3163C4.50072 30.1559 4.47947 29.9609 4.41572 29.3056C4.36572 28.7966 4.09635 28.5388 3.63541 28.4481C4.18166 28.3784 4.58572 27.96 4.58572 27.3188C4.58572 26.4613 4.01135 25.9244 2.85541 25.9244H0.600098V30.3163H1.78447V28.8594H2.58572C2.9901 28.8594 3.2101 28.9709 3.24541 29.4728C3.28104 29.9259 3.3376 30.1978 3.42979 30.3166L4.64947 30.3163ZM1.78447 27.9463V26.8725H2.6426C3.15322 26.8725 3.40854 27.0606 3.40854 27.4163C3.40854 27.8206 3.15322 27.9463 2.6426 27.9463H1.78447ZM7.27979 29.2078C7.17354 29.4519 6.97478 29.5566 6.6626 29.5566C6.3151 29.5566 6.03135 29.3753 6.00322 28.9919H8.22291V28.6781C8.22291 27.8344 7.6626 27.1234 6.60604 27.1234C5.6201 27.1234 4.8826 27.8275 4.8826 28.8106C4.8826 29.8003 5.60604 30.4 6.6201 30.4C7.45697 30.4 8.03885 30.0025 8.20166 29.2916L7.27979 29.2078ZM6.01728 28.4481C6.05978 28.1553 6.22291 27.9322 6.59166 27.9322C6.93229 27.9322 7.11666 28.1691 7.13072 28.4478L6.01728 28.4481ZM10.5185 29.0197C10.5185 29.4241 10.256 29.6609 9.92978 29.6609C9.73853 29.6609 9.61103 29.5566 9.61103 29.3963C9.61103 29.1941 9.77385 29.1103 10.0504 29.0547L10.5185 28.9709V29.0197ZM11.6463 28.3434C11.6463 27.4791 11.0292 27.1234 10.1923 27.1234C9.24228 27.1234 8.72416 27.5975 8.6251 28.2806L9.68885 28.3506C9.73853 28.1203 9.86604 27.96 10.1213 27.96C10.3979 27.96 10.5185 28.1134 10.5185 28.3713V28.4203L9.63197 28.5666C8.94447 28.6853 8.50447 28.9431 8.50447 29.5425C8.50447 30.0725 8.90885 30.3863 9.52572 30.3863C10.0292 30.3863 10.391 30.1978 10.5754 29.8353C10.6817 30.1909 10.9867 30.3859 11.3767 30.3859C11.7029 30.3859 11.9298 30.2953 12.0929 30.1841V29.5841C12.0119 29.6173 11.9251 29.634 11.8376 29.6331C11.717 29.6331 11.6463 29.5634 11.6463 29.4031V28.3434ZM12.2238 28.7619C12.2238 29.7516 12.9545 30.4 13.9545 30.4C14.9045 30.4 15.4367 29.8003 15.5148 29.0475L14.5713 28.9778C14.4932 29.3613 14.302 29.5497 13.9685 29.5497C13.621 29.5497 13.3798 29.3194 13.3798 28.7619C13.3798 28.2044 13.621 27.9741 13.9685 27.9741C14.302 27.9741 14.4935 28.1553 14.5717 28.5388L15.5148 28.4759C15.4367 27.73 14.9048 27.1234 13.9545 27.1234C12.9545 27.1234 12.2238 27.7788 12.2238 28.7619ZM16.0676 29.4519C16.0676 30.1841 16.5707 30.4 17.1029 30.4C17.5354 30.4 17.8123 30.2953 18.0532 30.1213V29.3891C17.8617 29.4659 17.7057 29.4938 17.5638 29.4938C17.3298 29.4938 17.2023 29.3891 17.2023 29.1244V27.9875H18.0248V27.2069H17.2023V26.3494H16.4788L16.3726 26.7538C16.2945 27.0397 16.1951 27.2069 15.8757 27.2556L15.642 27.2906V27.9875H16.0673V29.4516L16.0676 29.4519ZM23.8479 30.3163C23.6992 30.1559 23.6776 29.9609 23.6138 29.3056C23.5642 28.7966 23.2948 28.5388 22.8338 28.4481C23.3798 28.3784 23.7838 27.96 23.7838 27.3188C23.7838 26.4613 23.2098 25.9244 22.0535 25.9244H19.7985V30.3163H20.9829V28.8594H21.7842C22.1885 28.8594 22.4082 28.9709 22.4435 29.4728C22.4792 29.9259 22.536 30.1978 22.6279 30.3166L23.8479 30.3163ZM20.9829 27.9463V26.8725H21.841C22.3517 26.8725 22.6067 27.0606 22.6067 27.4163C22.6067 27.8206 22.3517 27.9463 21.841 27.9463H20.9829ZM25.237 28.7619C25.237 28.2947 25.4073 27.9741 25.8113 27.9741C26.2085 27.9741 26.3857 28.2947 26.3857 28.7616C26.3857 29.2284 26.2085 29.5494 25.8113 29.5494C25.4073 29.5494 25.237 29.2288 25.237 28.7619ZM27.542 28.7619C27.542 27.7997 26.8398 27.1234 25.8113 27.1234C24.776 27.1234 24.081 27.7997 24.081 28.7619C24.081 29.7306 24.776 30.4 25.8113 30.4C26.8395 30.4 27.542 29.7306 27.542 28.7619ZM30.0826 28.7338C30.0826 29.2078 29.941 29.5147 29.5795 29.5147C29.2317 29.5147 29.1107 29.2847 29.1107 28.8663V27.2072H27.9626V29.1663C27.9626 29.8144 28.2251 30.4 29.0901 30.4C29.5651 30.4 29.9126 30.1978 30.0829 29.8494V30.3163H31.2317V27.2072H30.0829L30.0826 28.7338ZM31.9692 29.4519C31.9692 30.1841 32.4726 30.4 33.0045 30.4C33.437 30.4 33.7138 30.2953 33.9548 30.1213V29.3891C33.7632 29.4659 33.6073 29.4938 33.4654 29.4938C33.2317 29.4938 33.1035 29.3891 33.1035 29.1244V27.9875H33.9263V27.2069H33.1035V26.3494H32.3804L32.2742 26.7538C32.196 27.0397 32.0967 27.2069 31.7773 27.2556L31.5435 27.2906V27.9875H31.9692V29.4519ZM36.6242 29.2081C36.5179 29.4519 36.3195 29.5566 36.0073 29.5566C35.6598 29.5566 35.3763 29.3753 35.3476 28.9919H37.5676V28.6781C37.5676 27.8344 37.0073 27.1234 35.9504 27.1234C34.9648 27.1234 34.227 27.8275 34.227 28.8106C34.227 29.8003 34.9504 30.4 35.9648 30.4C36.8017 30.4 37.3832 30.0025 37.5463 29.2916L36.6242 29.2081ZM35.362 28.4481C35.4045 28.1553 35.5676 27.9322 35.9363 27.9322C36.277 27.9322 36.4613 28.1691 36.4751 28.4478L35.362 28.4481ZM40.487 27.2419C40.4088 27.1794 40.2388 27.1234 40.0473 27.1234C39.6288 27.1234 39.2957 27.4094 39.182 27.7578V27.2072H38.0332V30.3166H39.182V28.8944C39.182 28.3713 39.4445 28.1763 39.8698 28.1763C40.0898 28.1763 40.2601 28.2181 40.4163 28.3088L40.487 27.2419Z" fill="#EBEBEB"/>
</g>
<defs>
<clipPath id="clip0_64_1263">
<rect width="40" height="40" fill="white" transform="translate(0.600098)"/>
</clipPath>
</defs>
</svg>
