<svg width="41" height="40" viewBox="0 0 41 40" fill="none" xmlns="http://www.w3.org/2000/svg">
<g clip-path="url(#clip0_64_1266)">
<path d="M24.8842 24.7803L24.1171 26.2633C24.0035 26.4828 23.84 26.665 23.643 26.7918C23.446 26.9185 23.2225 26.9852 22.995 26.9852H17.1175C16.8899 26.9852 16.6664 26.9185 16.4694 26.7918C16.2724 26.665 16.1089 26.4828 15.9953 26.2633L15.228 24.7803H24.8842ZM27.0321 20.629L25.6794 23.2436H14.4331L13.0803 20.629H27.0321ZM25.729 16.5696L27.0343 19.0923H13.0781L14.3834 16.5696H25.729ZM22.9948 12.732C23.2224 12.732 23.4459 12.7987 23.6429 12.9254C23.84 13.0521 24.0035 13.2344 24.1171 13.4539L24.9339 15.0329H15.1785L15.9955 13.4539C16.1091 13.2345 16.2726 13.0522 16.4696 12.9254C16.6666 12.7987 16.8901 12.732 17.1176 12.732H22.9948Z" fill="#00435B"/>
<path d="M8.56372 12.0438C7.91266 8.52974 7.77283 5.83443 8.19374 3.87739C8.44404 2.71339 8.90152 1.76382 9.59742 1.07861C10.3321 0.355301 11.2608 0.000344767 12.3045 0.000344767C14.0259 0.000344767 15.8359 0.874258 17.7698 2.53426C18.5588 3.21148 19.3776 4.02765 20.2278 4.9833C20.2956 4.88643 20.372 4.79495 20.4573 4.71026C22.8613 2.32591 24.8852 0.844171 26.6164 0.27304C27.6457 -0.0667857 28.6121 -0.0991335 29.492 0.230606C30.4211 0.578432 31.1612 1.29791 31.6835 2.30539C32.5453 3.96817 32.7725 6.15304 32.4513 8.85095C32.3203 9.95061 32.0964 11.1483 31.78 12.4463C31.8994 12.4623 32.0191 12.4918 32.1375 12.5355C35.1875 13.6607 37.3474 14.8704 38.655 16.2532C39.4331 17.0758 39.941 17.9916 40.1248 19.0056C40.3185 20.0756 40.1295 21.1489 39.6079 22.1556C38.7477 23.8162 37.1659 25.1256 34.9125 26.1628C34.0079 26.5793 32.984 26.9565 31.8402 27.2958C31.8924 27.427 31.933 27.5663 31.96 27.7123C32.6111 31.2264 32.7508 33.9217 32.33 35.8788C32.0797 37.0428 31.6221 37.9923 30.9262 38.6776C30.1917 39.4009 29.2628 39.7558 28.2193 39.7558C26.4977 39.7558 24.6879 38.8819 22.7539 37.2219C21.9565 36.5374 21.1287 35.7111 20.2686 34.7423C20.1781 34.8998 20.0685 35.0427 19.943 35.167C17.539 37.5517 15.5151 39.033 13.7839 39.6043C12.7546 39.9442 11.7882 39.9765 10.9083 39.6468C9.97928 39.299 9.23916 38.5795 8.71684 37.572C7.85501 35.9092 7.62783 33.7243 7.94907 31.0264C8.08484 29.8871 8.3203 28.6423 8.65497 27.2899C8.52157 27.2748 8.39006 27.2435 8.2628 27.1965C5.2128 26.0713 3.05291 24.8616 1.74532 23.4788C0.967234 22.6562 0.459291 21.7403 0.27555 20.7264C0.0818103 19.6563 0.270863 18.583 0.792399 17.5762C1.65267 15.9158 3.23446 14.6063 5.48779 13.5692C6.41946 13.1402 7.47737 12.753 8.66262 12.4059C8.61972 12.2889 8.58661 12.1676 8.56372 12.0438Z" fill="#002B3B"/>
<path d="M29.8322 28.0579C29.9778 28.0292 30.1277 28.0639 30.2509 28.1549C30.3741 28.2459 30.4611 28.3862 30.4939 28.5466L30.4975 28.5661L30.5298 28.753C31.5782 34.888 30.8397 37.9557 28.3143 37.9557C25.8437 37.9557 22.6983 35.3381 18.8785 30.103C18.8107 30.0099 18.7676 29.8975 18.7543 29.7786C18.7409 29.6597 18.7578 29.539 18.803 29.4302C18.8482 29.3214 18.9199 29.2289 19.0099 29.1633C19.1 29.0976 19.2048 29.0613 19.3124 29.0586H19.3302L19.5315 29.0602C21.1389 29.0699 22.7015 29.0075 24.2194 28.873C26.011 28.7143 27.882 28.4426 29.8322 28.0579ZM12.4892 23.4203L12.4989 23.4386L12.5998 23.6346C13.4087 25.1998 14.2513 26.6854 15.1278 28.0915C16.1602 29.7471 17.3211 31.4233 18.6104 33.12C18.7061 33.2459 18.7545 33.4081 18.7455 33.5727C18.7365 33.7373 18.6708 33.8917 18.5621 34.0038L18.5476 34.0183L18.4179 34.1426C14.1514 38.2117 11.3784 39.024 10.099 36.5795C8.84639 34.187 9.30059 29.8363 11.4613 23.5278C11.4995 23.4161 11.5651 23.3184 11.6506 23.246C11.7362 23.1736 11.8382 23.1293 11.9452 23.1181C12.0522 23.107 12.1598 23.1293 12.256 23.1827C12.3521 23.2362 12.4329 23.3185 12.4892 23.4203ZM31.9971 14.3675L32.0146 14.3739L32.1752 14.4355C37.4413 16.4746 39.442 18.7155 38.1774 21.1581C36.9406 23.547 33.3448 25.2864 27.3903 26.3762C27.2824 26.3959 27.1716 26.3811 27.071 26.3333C26.9704 26.2855 26.8841 26.2068 26.8223 26.1064C26.7604 26.0061 26.7255 25.8881 26.7217 25.7664C26.7179 25.6448 26.7454 25.5244 26.8008 25.4195C27.6536 23.8045 28.4218 22.1979 29.1052 20.5991C29.8802 18.7861 30.6075 16.8398 31.2871 14.7609C31.3365 14.6098 31.4351 14.4848 31.5634 14.4109C31.6917 14.337 31.8402 14.3194 31.9796 14.3617L31.9971 14.3675ZM13.3954 13.3409C13.4606 13.3835 13.5175 13.44 13.5631 13.5071C13.6087 13.5742 13.6419 13.6507 13.6609 13.7321C13.6799 13.8135 13.6843 13.8983 13.6739 13.9817C13.6634 14.065 13.6384 14.1452 13.6001 14.2177C12.747 15.8325 11.9789 17.4393 11.2955 19.0381C10.5205 20.8511 9.79322 22.7972 9.11356 24.8763C9.0631 25.0307 8.96129 25.1576 8.82916 25.2309C8.69703 25.3041 8.54469 25.318 8.4036 25.2697L8.3861 25.2633L8.22548 25.2016C2.95935 23.1626 0.958666 20.9216 2.22329 18.4791C3.4601 16.0901 7.05586 14.3508 13.0104 13.261C13.1432 13.2367 13.2794 13.2649 13.3954 13.3409ZM30.3017 3.29774C31.5543 5.69043 31.1001 10.041 28.9394 16.3496C28.9012 16.4613 28.8356 16.5589 28.7501 16.6313C28.6645 16.7038 28.5625 16.7481 28.4555 16.7592C28.3485 16.7704 28.2409 16.748 28.1447 16.6946C28.0486 16.6412 27.9678 16.5589 27.9115 16.457L27.9018 16.4388L27.8009 16.2428C26.992 14.6776 26.1494 13.192 25.2729 11.7859C24.2405 10.1303 23.0796 8.45408 21.7903 6.75739C21.6946 6.63147 21.6462 6.46933 21.6552 6.3047C21.6642 6.14007 21.7298 5.98564 21.8385 5.87356L21.8531 5.85913L21.9828 5.73478C26.2493 1.66574 29.0222 0.853388 30.3017 3.29774ZM12.3023 1.84174C14.7731 1.84174 17.9184 4.45913 21.7381 9.69426C21.8059 9.7873 21.849 9.89967 21.8624 10.0186C21.8757 10.1375 21.8588 10.2582 21.8136 10.367C21.7684 10.4758 21.6968 10.5683 21.6067 10.634C21.5166 10.6996 21.4118 10.7359 21.3042 10.7386H21.2864L21.0851 10.7372C19.4779 10.7275 17.9151 10.7899 16.3974 10.9243C14.6056 11.0831 12.7346 11.3548 10.7844 11.7395C10.6389 11.7681 10.489 11.7334 10.3658 11.6424C10.2427 11.5514 10.1557 11.4112 10.1229 11.2508L10.1191 11.2311L10.0868 11.0443C9.03841 4.90921 9.77681 1.84174 12.3023 1.84174Z" fill="#FF4154"/>
<path d="M17.59 12.8122H22.5235C22.8779 12.8122 23.2261 12.9163 23.5329 13.114C23.8396 13.3117 24.094 13.596 24.2704 13.9383L26.7476 18.7428C26.9227 19.0824 27.0149 19.4672 27.0149 19.8588C27.0149 20.2504 26.9227 20.6351 26.7476 20.9748L24.2704 25.7793C24.094 26.1215 23.8396 26.4058 23.5328 26.6035C23.2261 26.8013 22.8779 26.9054 22.5235 26.9054H17.59C16.8684 26.9054 16.2021 26.4758 15.8429 25.7793L13.366 20.9748C13.1909 20.6351 13.0987 20.2504 13.0987 19.8588C13.0987 19.4672 13.1909 19.0824 13.366 18.7428L15.843 13.9383C16.0195 13.596 16.2739 13.3117 16.5807 13.114C16.8874 12.9163 17.2355 12.8122 17.59 12.8122ZM21.7716 14.2623C22.4935 14.2623 23.1603 14.6924 23.5192 15.3894L25.2466 18.7438C25.4214 19.0832 25.5133 19.4676 25.5133 19.8588C25.5133 20.25 25.4214 20.6344 25.2466 20.9737L23.5192 24.3282C23.3428 24.6706 23.0883 24.9552 22.7815 25.1531C22.4746 25.351 22.1263 25.4552 21.7716 25.4551H18.3421C17.6203 25.4551 16.9534 25.0252 16.5946 24.3282L14.8671 20.9737C14.6924 20.6344 14.6004 20.25 14.6004 19.8588C14.6004 19.4676 14.6924 19.0832 14.8671 18.7438L16.5946 15.3894C16.7709 15.047 17.0254 14.7624 17.3322 14.5645C17.639 14.3667 17.9874 14.2625 18.342 14.2624L21.7716 14.2623ZM20.9612 15.8484H19.1525C18.7982 15.8483 18.4502 15.9524 18.1435 16.1499C17.8368 16.3475 17.5824 16.6316 17.4059 16.9736L16.4932 18.7417C16.3177 19.0816 16.2254 19.4668 16.2254 19.8588C16.2254 20.2508 16.3177 20.6359 16.4932 20.9758L17.4059 22.7442C17.5824 23.0862 17.8368 23.3703 18.1435 23.5678C18.4502 23.7654 18.7982 23.8694 19.1525 23.8694H20.9612C21.6824 23.8694 22.3486 23.4402 22.7078 22.7442L23.6206 20.9758C23.7961 20.6359 23.8884 20.2508 23.8884 19.8588C23.8884 19.4668 23.7961 19.0816 23.6206 18.7417L22.7078 16.9734C22.5313 16.6314 22.2769 16.3473 21.9702 16.1498C21.6636 15.9522 21.3155 15.8483 20.9612 15.8484ZM20.1809 17.3663C20.9015 17.3663 21.5673 17.7948 21.9266 18.4897L22.0562 18.7402C22.2321 19.0804 22.3247 19.4661 22.3247 19.8586C22.3247 20.2512 22.2321 20.6368 22.0562 20.977L21.9266 21.2275C21.75 21.569 21.4956 21.8526 21.1892 22.0499C20.8827 22.2471 20.5349 22.351 20.1809 22.351H19.9328C19.5788 22.351 19.2311 22.2471 18.9246 22.0499C18.6181 21.8526 18.3637 21.569 18.1871 21.2275L18.0576 20.977C17.8817 20.6368 17.7891 20.2512 17.7891 19.8586C17.7891 19.4661 17.8817 19.0804 18.0576 18.7402L18.1871 18.4897C18.3637 18.1482 18.6181 17.8646 18.9246 17.6673C19.2311 17.4701 19.5788 17.3663 19.9328 17.3663H20.1809ZM20.0572 18.8617C19.8998 18.8617 19.7453 18.9077 19.6089 18.9952C19.4726 19.0827 19.3594 19.2086 19.2807 19.3602C19.202 19.5117 19.1606 19.6836 19.1606 19.8586C19.1606 20.0336 19.202 20.2055 19.2807 20.357C19.3594 20.5087 19.4725 20.6346 19.6088 20.7221C19.7451 20.8097 19.8996 20.8558 20.057 20.8558C20.2143 20.8558 20.3688 20.8097 20.5051 20.7221C20.6414 20.6346 20.7545 20.5087 20.8332 20.357C20.9119 20.2055 20.9533 20.0336 20.9533 19.8586C20.9533 19.6836 20.9119 19.5117 20.8332 19.3602C20.7546 19.2086 20.6414 19.0828 20.5052 18.9953C20.369 18.9078 20.2145 18.8617 20.0572 18.8617ZM12.7905 19.8586H14.4029H12.7905Z" fill="#FFD94C"/>
</g>
<defs>
<clipPath id="clip0_64_1266">
<rect width="40" height="40" fill="white" transform="translate(0.200195)"/>
</clipPath>
</defs>
</svg>
