<svg width="41" height="40" viewBox="0 0 41 40" fill="none" xmlns="http://www.w3.org/2000/svg">
<g clip-path="url(#clip0_64_1273)">
<path d="M34.818 23.0238C33.4265 23.0333 32.217 23.4802 31.2044 24.1408C30.8327 23.1596 30.4612 22.2854 30.3957 21.6442C30.3227 20.8962 30.2354 20.4396 30.3227 19.5458C30.4102 18.6521 30.8037 17.3794 30.7963 17.2823C30.7891 17.1852 30.7088 16.7285 29.9074 16.719C29.1061 16.7092 28.4139 16.9229 28.3338 17.2046C28.2536 17.4862 28.1007 18.1275 27.9986 18.7879C27.8602 19.7596 26.3959 23.2275 25.5581 25.0442C25.2885 24.3352 25.0553 23.7133 25.0043 23.2179C24.9314 22.47 24.844 22.0133 24.9314 21.1196C25.0189 20.2258 25.4124 18.9533 25.405 18.856C25.3977 18.759 25.3175 18.3023 24.5162 18.2927C23.7146 18.2829 23.0225 18.4967 22.9425 18.7783C22.8623 19.0602 22.7748 19.7206 22.6073 20.3619C22.4397 21.0031 20.4945 26.7931 19.9845 28.289C19.7784 28.8944 19.5622 29.4937 19.3361 30.0862C19.3361 30.0862 19.3288 30.1154 19.3069 30.164C19.2358 30.3498 19.163 30.5344 19.0885 30.7177V30.7273C18.9791 30.9898 18.8625 31.2325 18.8043 31.2325C18.7605 31.2325 18.6804 30.5331 18.8188 29.581C19.1102 27.5702 19.8023 24.4421 19.7951 24.3352C19.7951 24.2769 19.9262 23.7329 19.3434 23.451C18.775 23.1694 18.5711 23.6356 18.5201 23.6356C18.4691 23.6356 18.4326 23.8008 18.4326 23.8008C18.4326 23.8008 19.0666 20.2842 17.2232 20.2842C16.0722 20.2842 14.4838 21.9648 13.697 23.4802C12.8025 24.1293 11.9088 24.7802 11.0159 25.4329C10.5862 25.7535 10.1417 26.0742 9.72643 26.3752C9.69721 26.3365 9.66815 26.2877 9.63893 26.249C7.40951 23.0723 3.28597 20.8281 3.4608 16.5635C3.52643 15.0092 3.92703 10.929 11.3803 5.97458C17.5146 1.94292 22.3961 3.06 23.2412 5.53729C24.4505 9.07354 20.6257 15.6406 14.2871 16.5925C11.8684 16.9521 10.6006 15.7085 10.2802 15.2423C9.94501 14.7565 9.89392 14.7273 9.77002 14.8246C9.56612 14.9704 9.69721 15.4075 9.77002 15.66C9.95954 16.3204 10.739 17.4862 12.0577 18.0596C13.2234 18.5646 16.0575 18.8465 19.4891 17.0783C23.3286 15.0965 26.3303 9.58833 25.4488 4.97396C24.5671 0.291459 18.7386 -1.25312 13.2234 1.36C9.94501 2.91458 6.38956 5.3625 3.83235 8.54896C0.794219 12.3375 0.313306 15.6308 0.510014 17.0104C1.21685 21.9065 6.28035 25.0929 8.30572 27.4535C8.20369 27.5312 8.10885 27.5994 8.02886 27.6577C7.0161 28.3279 3.15473 31.0187 2.19306 33.8652C1.1003 37.0904 2.36805 39.4027 3.20582 39.7133C5.80678 40.6752 8.48055 38.946 9.91579 36.0898C11.351 33.2337 11.1762 29.5227 10.5133 27.8227C10.5059 27.8033 10.4987 27.7837 10.484 27.7644C10.7464 27.5604 11.0159 27.3467 11.2782 27.1427C11.7604 26.7627 12.2486 26.3966 12.7427 26.0448C12.4949 26.9483 12.3127 28.0267 12.2254 29.581C12.116 31.4075 12.6769 33.7777 13.4128 34.7102C13.7408 35.1185 14.1268 35.1281 14.3746 35.1281C15.2343 35.1281 15.6205 34.176 16.0503 33.0492C16.5748 31.6698 17.0484 30.0669 17.0484 30.0669C17.0484 30.0669 16.4583 34.3996 18.0612 34.3996C18.6439 34.3996 19.2341 33.3892 19.4964 32.8744V32.884C19.4964 32.884 19.5109 32.8548 19.5402 32.7869C19.5984 32.6606 19.6348 32.5827 19.6348 32.5827V32.5635C19.868 32.0194 20.3926 30.7856 21.1721 28.7358C22.1775 26.0935 23.1465 22.7906 23.1465 22.7906C23.1465 22.7906 23.234 23.5969 23.5326 24.9375C23.7076 25.7244 24.0716 26.589 24.3632 27.4244C24.1301 27.8617 23.9843 28.1044 23.9843 28.1044L23.9917 28.1142C23.8021 28.4444 23.5982 28.8037 23.3723 29.1537C22.5781 30.4165 21.6311 31.8642 21.4999 32.2817C21.3468 32.7771 21.3833 33.1367 21.6749 33.4281C21.8861 33.6419 22.2649 33.6708 22.6511 33.6419C23.3651 33.5737 23.8678 33.3406 24.1154 33.195C24.5016 33.0104 24.9533 32.7285 25.3758 32.3108C26.1555 31.5433 26.6289 30.4456 26.5853 28.9983C26.5634 28.2017 26.3667 27.405 26.1262 26.6569C26.1992 26.521 26.2647 26.385 26.3376 26.249C27.5688 23.8494 28.5233 21.2167 28.5233 21.2167C28.5233 21.2167 28.6108 22.0229 28.9094 23.3638C29.0551 24.0438 29.3539 24.7821 29.6161 25.5008C28.4577 26.7542 27.7437 28.2112 27.4887 29.1633C27.0298 30.9315 27.3866 31.7279 28.0643 31.9125C28.3702 32 28.8073 31.8056 29.128 31.621C29.5359 31.4462 30.0168 31.1452 30.4759 30.6981C31.2555 29.9308 32.0058 28.8621 31.962 27.4148C31.9402 26.7542 31.8091 26.1031 31.6269 25.4717C32.6104 24.9279 33.8782 24.6267 35.4955 24.8792C38.9636 25.4231 39.6484 28.3083 39.5171 29.5229C39.386 30.7371 38.6575 31.3977 38.4172 31.6017C38.1766 31.8058 38.0966 31.8737 38.1184 32.0194C38.1475 32.2331 38.2641 32.2235 38.4681 32.1846C38.7523 32.1167 40.2896 31.2033 40.3551 28.969C40.4644 26.1129 38.4244 22.9946 34.818 23.0238ZM8.06526 35.0504C6.91407 36.7212 5.31134 37.3527 4.61918 36.8185C3.8761 36.2452 4.16749 33.7777 5.58085 32.0098C6.4405 30.9315 7.54794 29.9306 8.28384 29.3187C8.45134 29.1827 8.69914 28.9885 8.99787 28.7456C9.04881 28.7067 9.07802 28.6873 9.07802 28.6873L9.25286 28.5415C9.77002 31.0673 9.27473 33.2921 8.06526 35.0504ZM16.4437 27.4535C16.043 28.7554 15.2052 32.0875 14.6952 31.9029C14.2581 31.7475 13.9884 29.2217 14.6077 26.725C14.921 25.4717 15.5839 23.9756 15.9702 23.3929C16.5967 22.4602 17.2889 22.1492 17.4564 22.5283C17.6677 23.0238 16.6914 26.6375 16.4437 27.4535ZM23.3578 31.864C23.1901 31.9806 23.03 32.0583 22.957 32C22.9061 31.961 23.03 31.8056 23.03 31.8056C23.03 31.8056 23.897 30.5623 24.2393 29.9987C24.4362 29.6685 24.6691 29.28 24.9169 28.8427V28.969C24.9169 30.4554 23.8385 31.456 23.3576 31.864M28.6906 30.2417C28.5667 30.125 28.5886 29.7365 29.0039 28.5221C29.1642 28.046 29.5429 27.2496 30.1915 26.4821C30.2643 26.7929 30.3154 27.0942 30.3081 27.3758C30.3007 29.2508 29.2954 29.9502 28.6906 30.2417Z" fill="#CD6799"/>
</g>
<defs>
<clipPath id="clip0_64_1273">
<rect width="40" height="40" fill="white" transform="translate(0.399902)"/>
</clipPath>
</defs>
</svg>
