<svg width="394" height="100" viewBox="0 0 394 100" fill="none" xmlns="http://www.w3.org/2000/svg">
<g clip-path="url(#clip0_22_2775)">
<path d="M125.843 78.3731L130.756 66.9615C136.065 70.9238 143.117 72.9846 150.091 72.9846C155.242 72.9846 158.491 71.0031 158.491 67.9923C158.412 59.5923 127.665 66.1692 127.427 45.09C127.348 34.3923 136.858 26.1508 150.329 26.1508C158.333 26.1508 166.336 28.1315 172.042 32.6484L167.446 44.2977C162.216 40.9692 155.718 38.5923 149.536 38.5923C145.337 38.5923 142.563 40.5731 142.563 43.1092C142.643 51.3508 173.627 46.8338 173.944 66.9615C173.944 77.8977 164.673 85.5846 151.36 85.5846C141.612 85.5846 132.657 83.2861 125.843 78.3731ZM314.366 62.8408L327.916 70.3692C322.845 79.4823 313.177 85.5846 302.003 85.5846C285.6 85.5846 272.286 72.2715 272.286 55.8677C272.286 39.4638 285.6 26.1508 302.003 26.1508C313.098 26.1508 322.845 32.3315 327.916 41.3661L314.366 48.8938C311.909 44.6146 307.313 41.6831 302.003 41.6831C294.158 41.6831 287.819 48.0223 287.819 55.8677C287.819 63.7131 294.158 70.0523 302.003 70.0523C307.313 70.0523 311.909 67.12 314.365 62.8408M180.759 1.50537H197.717V84.4746H180.759V1.50537ZM334.573 1.50537H351.531V50.2408L370.708 27.3392H391.47L367.776 54.9161L393.373 84.4746H371.66L351.531 59.5923V84.4746H334.573V1.50537ZM248.117 63V48.9731C245.66 44.8523 240.589 41.6831 234.883 41.6831C227.037 41.6831 220.699 48.0223 220.699 55.8677C220.699 63.7131 227.037 70.0523 234.883 70.0523C240.589 70.0523 245.66 67.0415 248.117 63ZM248.117 27.3392H265.076V84.3954H248.117V77.66C245.343 82.3354 238.449 85.5846 231.238 85.5846C216.34 85.5846 204.612 72.2715 204.612 55.7884C204.612 39.3054 216.34 26.1508 231.238 26.1508C238.449 26.1508 245.343 29.4 248.117 34.0754V27.3392Z" fill="#EBEBEB"/>
<path d="M21.002 62.92C21.002 68.7046 16.3266 73.3807 10.5412 73.3807C9.16712 73.382 7.80629 73.1124 6.53658 72.5871C5.26687 72.0619 4.11321 71.2914 3.14164 70.3197C2.17007 69.3481 1.39965 68.1944 0.874502 66.9246C0.349349 65.6549 0.0797656 64.294 0.0811823 62.92C0.0811823 57.1353 4.75657 52.46 10.5412 52.46H21.002V62.92ZM26.232 62.92C26.232 57.1353 30.9073 52.46 36.692 52.46C42.4766 52.46 47.1527 57.1353 47.1527 62.92V89.0707C47.1527 94.8553 42.4773 99.5315 36.692 99.5315C35.318 99.5327 33.9572 99.263 32.6876 98.7377C31.418 98.2124 30.2644 97.4419 29.2929 96.4702C28.3214 95.4986 27.5511 94.3449 27.026 93.0752C26.5009 91.8055 26.2313 90.4447 26.2327 89.0707L26.232 62.92Z" fill="#E01E5A"/>
<path d="M36.692 20.9208C35.318 20.922 33.9572 20.6522 32.6876 20.1269C31.418 19.6016 30.2644 18.8311 29.2929 17.8595C28.3214 16.8879 27.5511 15.7342 27.026 14.4645C26.5009 13.1948 26.2313 11.834 26.2327 10.46C26.232 4.67538 30.9073 0 36.692 0C42.4766 0 47.1527 4.67538 47.1527 10.46V20.9208H36.692ZM36.692 26.23C42.4766 26.23 47.1527 30.9054 47.1527 36.69C47.1527 42.4746 42.4773 47.1508 36.692 47.1508H10.462C9.0879 47.1521 7.72707 46.8824 6.45736 46.3572C5.18765 45.8319 4.03399 45.0614 3.06242 44.0898C2.09084 43.1181 1.32043 41.9644 0.795278 40.6947C0.270125 39.4249 0.000542012 38.0641 0.00195868 36.69C0.00195868 30.9054 4.67734 26.2308 10.462 26.2308L36.692 26.23Z" fill="#36C5F0"/>
<path d="M78.6127 36.69C78.6127 30.9054 83.2881 26.23 89.0727 26.23C94.8573 26.23 99.5335 30.9054 99.5335 36.69C99.5335 42.4746 94.8581 47.1508 89.0727 47.1508H78.6127V36.69ZM73.3819 36.69C73.3819 42.4746 68.7073 47.1508 62.9219 47.1508C61.5479 47.1521 60.187 46.8824 58.9173 46.3572C57.6476 45.8319 56.494 45.0614 55.5224 44.0898C54.5508 43.1181 53.7804 41.9644 53.2552 40.6947C52.7301 39.4249 52.4605 38.0641 52.4619 36.69V10.46C52.4619 4.67538 57.1373 0 62.9219 0C68.7065 0 73.3827 4.67538 73.3827 10.46L73.3819 36.69Z" fill="#2EB67D"/>
<path d="M62.9219 78.6107C68.7065 78.6107 73.3827 83.2861 73.3827 89.0707C73.3827 94.8553 68.7073 99.5315 62.9219 99.5315C61.5479 99.5328 60.187 99.2631 58.9173 98.7379C57.6476 98.2126 56.494 97.4421 55.5224 96.4705C54.5508 95.4989 53.7804 94.3451 53.2552 93.0754C52.7301 91.8056 52.4605 90.4448 52.4619 89.0707V78.6107H62.9219ZM62.9219 73.38C61.5479 73.3813 60.1872 73.1116 58.9175 72.5864C57.6478 72.0612 56.4942 71.2908 55.5227 70.3192C54.5511 69.3477 53.7807 68.194 53.2555 66.9244C52.7303 65.6547 52.4606 64.294 52.4619 62.92C52.4619 57.1353 57.1373 52.46 62.9219 52.46H89.1527C94.9373 52.46 99.6127 57.1353 99.6127 62.92C99.6127 68.7046 94.9373 73.3807 89.1519 73.3807L62.9219 73.38Z" fill="#ECB22E"/>
</g>
<defs>
<clipPath id="clip0_22_2775">
<rect width="393.85" height="100" fill="white"/>
</clipPath>
</defs>
</svg>
