<svg width="40" height="40" viewBox="0 0 40 40" fill="none" xmlns="http://www.w3.org/2000/svg">
<path d="M25.9188 6.8025L26.085 2.83625L29.485 2.62625L29.6375 6.66375C29.6396 6.72839 29.6188 6.79168 29.5788 6.8425C29.5569 6.86995 29.5296 6.89272 29.4988 6.90946C29.4679 6.92619 29.4339 6.93656 29.399 6.93994C29.364 6.94332 29.3287 6.93965 29.2952 6.92914C29.2616 6.91863 29.2306 6.90149 29.2038 6.87875L27.8913 5.85375L26.3375 7.02125C26.3099 7.04325 26.2781 7.05944 26.2441 7.06885C26.21 7.07826 26.1744 7.08071 26.1394 7.07604C26.1044 7.07137 26.0707 7.05969 26.0403 7.04168C26.0099 7.02367 25.9835 6.99972 25.9625 6.97125C25.9282 6.92207 25.9127 6.86218 25.9188 6.8025Z" fill="white"/>
<path d="M26.0851 2.83499L25.9189 6.8025C25.9156 6.86342 25.9347 6.92344 25.9726 6.97125C25.9936 6.99971 26.02 7.02367 26.0504 7.04167C26.0808 7.05968 26.1145 7.07137 26.1495 7.07604C26.1845 7.0807 26.2201 7.07826 26.2542 7.06884C26.2882 7.05943 26.32 7.04324 26.3476 7.02125L27.9014 5.85374L29.2139 6.87874C29.2407 6.90149 29.2717 6.91862 29.3053 6.92913C29.3388 6.93964 29.3741 6.94332 29.4091 6.93993C29.444 6.93655 29.478 6.92619 29.5089 6.90945C29.5397 6.89271 29.567 6.86994 29.5889 6.84249C29.6289 6.79167 29.6497 6.72838 29.6476 6.66374L29.4851 2.62499L31.4426 2.49999C31.6747 2.48456 31.9076 2.51504 32.1279 2.58971C32.3481 2.66438 32.5515 2.78177 32.7264 2.93515C32.9013 3.08853 33.0441 3.27489 33.1469 3.48356C33.2496 3.69224 33.3102 3.91913 33.3251 4.15124V35.74C33.3232 36.2077 33.1359 36.6555 32.8044 36.9854C32.4728 37.3153 32.0241 37.5003 31.5564 37.5H31.4739L7.78889 36.445C7.34529 36.4268 6.92477 36.2424 6.61094 35.9283C6.29712 35.6143 6.11298 35.1936 6.09514 34.75L5.00014 5.86249C4.98372 5.4016 5.1486 4.95263 5.4594 4.61191C5.77021 4.27119 6.20218 4.06587 6.66264 4.03999L26.0839 2.83624L26.0851 2.83499Z" fill="#FF4785"/>
<path d="M21.5664 15.6925C21.5664 16.3763 26.2164 16.0488 26.8414 15.5675C26.8414 10.905 24.3189 8.455 19.6989 8.455C15.0789 8.455 12.4914 10.9425 12.4914 14.675C12.4914 21.175 21.3377 21.3 21.3377 24.845C21.3668 25.059 21.3463 25.2768 21.2778 25.4817C21.2093 25.6865 21.0946 25.8728 20.9426 26.0263C20.7907 26.1797 20.6054 26.2961 20.4013 26.3666C20.1971 26.437 19.9795 26.4596 19.7652 26.4325C18.3564 26.4325 17.7989 25.7175 17.8652 23.2925C17.8652 22.7663 12.4902 22.6013 12.3277 23.2925C11.9102 29.1675 15.6039 30.8675 19.8277 30.8675C23.9227 30.8675 27.1339 28.7013 27.1339 24.7825C27.1339 17.8163 18.1564 18.0038 18.1564 14.5513C18.1377 14.3308 18.1688 14.1089 18.2474 13.902C18.326 13.6952 18.4502 13.5087 18.6107 13.3563C18.7712 13.204 18.9639 13.0897 19.1746 13.022C19.3853 12.9542 19.6085 12.9348 19.8277 12.965C20.4852 12.965 21.6652 13.08 21.5664 15.6925Z" fill="white"/>
</svg>
