<svg width="100" height="100" viewBox="0 0 100 100" fill="none" xmlns="http://www.w3.org/2000/svg">
<g clip-path="url(#clip0_22_2846)">
<path d="M76.5625 0H23.4375C10.4933 0 0 10.4933 0 23.4375V76.5625C0 89.5067 10.4933 100 23.4375 100H76.5625C89.5067 100 100 89.5067 100 76.5625V23.4375C100 10.4933 89.5067 0 76.5625 0Z" fill="url(#paint0_linear_22_2846)"/>
<path d="M4.48709 50.4216L24.1371 58.3841V63.9579L0.875366 53.1802V49.9099L4.48709 50.4216ZM24.1371 43.8813L4.5156 51.9571L0.875757 52.3556V49.0567L24.1367 38.3075L24.1371 43.8813ZM94.2855 51.5591L74.0668 43.6821V38.2505L98.3519 48.9997V52.3271L94.2855 51.5591ZM74.0668 58.4978L94.3426 50.4501L98.3519 49.8528V53.1517L74.0668 63.9294V58.4978Z" fill="white"/>
<path fill-rule="evenodd" clip-rule="evenodd" d="M68.7801 23.8667C68.6676 25.6503 67.8641 27.5128 68.0879 29.2468C69.4914 31.7289 72.5805 32.1246 75.1289 32.2949C76.8945 32.6105 76.8723 31.4414 76.7539 30.1281L76.7754 23.8296C74.1102 23.8394 71.4441 23.8035 68.7801 23.8667ZM47.7641 28.855C43.425 29.5918 39.0266 31.6652 35.4168 34.1613C32.5113 36.4226 37.9109 38.614 39.8699 38.9804C43.8113 39.0285 47.307 36.3699 49.8961 33.6105C50.7414 32.4503 51.7973 30.6742 50.7352 29.3293C49.9242 28.6261 48.7449 28.7964 47.7641 28.855ZM56.9973 35.166C53.4297 35.8457 50.0352 37.316 47.0316 39.3632C44.8297 40.0546 43.0148 42.4722 45.7434 43.6835C48.6086 45.9668 51.9293 45.4074 54.568 43.866C56.9844 42.4296 59.5945 40.6574 60.7125 37.9535C61.7684 34.9914 59.0441 34.8816 56.9973 35.166ZM67.118 46.6437C66.4535 49.4187 63.659 50.6804 62.1723 52.8792C60.9566 54.4832 61.5195 56.3726 62.9035 57.6351C63.5773 59.0324 64.7586 59.8132 66.0254 58.5996C69.2879 56.3816 70.1902 52.0613 70.0547 48.3179C70.2957 46.7718 68.5219 48.1695 67.118 46.6437ZM54.7027 51.8558C50.3703 52.5972 46.0371 54.7082 42.4258 57.2003C39.6223 59.4585 44.9023 61.5671 46.8773 61.9015C50.8918 61.9074 54.4727 59.3203 57.0109 56.382C57.8938 55.2152 58.9637 52.9492 57.2156 52.0214C56.434 51.6902 55.5266 51.7875 54.7027 51.8558Z" fill="#B956A6"/>
<path fill-rule="evenodd" clip-rule="evenodd" d="M35.4168 34.1612C32.0848 35.4944 28.8707 37.1132 25.6965 38.8085C25.1067 41.0019 25.5797 43.7179 25.427 46.123C25.4153 56.012 25.4207 65.9015 25.4192 75.7905H32.7707C34.2551 74.3929 36.1145 73.3698 37.727 72.1007C43.9356 67.648 50.1422 63.178 56.3426 58.7378C56.7989 58.9429 56.5067 56.0538 55.5059 58.0605C53.1344 60.2921 49.9867 62.1276 46.6551 61.9484C44.7645 61.3265 41.7168 60.2714 41.6977 57.9546C43.0285 56.3878 39.2422 58.7749 38.2063 59.1167C34.8383 60.7339 31.55 62.5398 28.175 64.1269C28.986 63.2558 30.5032 62.4437 31.5789 61.5796C39.2637 56.0632 46.9465 50.5253 54.6496 45.0132C56.1313 43.973 57.5625 42.8382 59.0899 41.8659C59.2293 42.4046 59.491 39.2905 58.3551 41.2077C56.0395 43.503 52.916 45.2116 49.6219 45.2351C47.7692 44.6726 43.8231 43.3276 44.7016 40.9355C45.1301 40.096 40.7219 42.7249 42.6696 41.2425C44.7426 39.7276 46.8321 38.2398 48.9211 36.7405C49.9762 36.6612 49.7516 32.7421 48.318 35.2702C45.9098 37.3862 42.7457 39.3222 39.4289 38.8632C37.5657 38.3269 35.3301 37.2882 34.6528 35.3398C34.4285 34.8718 35.9074 34.1425 35.4168 34.1612ZM49.2211 36.5804C49.0364 37.1089 49.5559 36.3874 49.2211 36.5804V36.5804Z" fill="#FCCC44"/>
<path fill-rule="evenodd" clip-rule="evenodd" d="M70.2731 31.5429C69.2328 36.5101 68.0957 41.7089 67.118 46.6433C69.9274 50.1839 70.1996 44.4066 70.691 42.773C71.4852 39.3585 72.4258 36.7804 72.5254 33.2452C72.7363 32.0386 71.3184 31.3081 70.2731 31.5429ZM73.4961 35.4378C73.4082 35.9468 73.6242 35.5335 73.4961 35.4378V35.4378ZM70.2188 46.5761C70.3539 46.2847 70.3539 46.8671 70.2188 46.5761V46.5761Z" fill="#62777F"/>
<path fill-rule="evenodd" clip-rule="evenodd" d="M72.1156 32.1055C72.9922 37.0281 70.0886 43.0086 69.139 47.65C71.2953 46.0633 72.9613 38.864 73.3871 36.0461C73.4969 35.7238 73.632 34.9129 73.6613 34.8836C73.7968 34.1996 75.0597 33.0406 75.1289 32.2949C75.864 31.7762 71.5156 31.693 72.1156 32.1055ZM70.3277 46.5762C70.1922 46.2847 70.1922 46.8672 70.3277 46.5762V46.5762Z" fill="#4E5E67"/>
<path fill-rule="evenodd" clip-rule="evenodd" d="M35.4898 34.2433C34.2742 35.4605 34.7304 35.1632 35.6351 34.1511L35.4898 34.2433ZM48.6383 34.846C47.2301 36.9621 42.1519 38.7316 41.5125 38.8687C44.5672 38.2964 47.4144 36.396 49.4179 34.1703C49.0996 34.3121 48.9105 34.6453 48.6383 34.846ZM34.6547 35.5332C35.4136 37.3582 38.1734 38.5707 39.5144 38.8535C37.6836 38.2636 35.5285 37.2175 34.6547 35.5332ZM49.1117 36.5886C48.7285 37.041 47.3636 37.7175 46.6441 38.3816C45.1008 39.5199 43.5043 40.5777 41.9785 41.7445C42.95 41.7027 45.7968 39.5761 44.3375 41.7339C45.5742 43.8624 48.2668 45.3425 50.7219 45.2074C53.964 44.6984 56.9539 42.9058 59.1031 40.4128C56.4941 42.9945 53.0449 45.4242 49.2281 45.0894C47.3808 44.6628 42.3332 42.0554 45.7097 40.2277C46.9004 39.2484 48.9531 38.7355 49.1855 37.0144C49.1367 36.7996 49.5371 36.5898 49.1117 36.5886ZM39.8699 38.9804C41.0984 38.8203 41.0984 39.141 39.8699 38.9804V38.9804ZM59.0117 41.9199C54.1371 45.316 49.3332 48.8449 44.5008 52.3019C39.0242 56.2214 33.5711 60.1554 28.0961 64.0718C30.1547 63.3777 32.2172 62.0222 34.2621 61.0859C37.0785 59.596 40.048 58.4191 42.6832 56.6093C47.8933 53.5421 53.4035 50.6199 57.4109 45.9273C58.2855 44.9015 59.1625 43.2503 59.2015 42.1398C59.0754 42.1753 59.1711 41.6957 59.0117 41.9199ZM42.4258 57.2C41.5488 58.191 41.1926 58.8992 42.1027 57.639C42.0867 57.7851 42.8414 56.8566 42.4258 57.2ZM55.7679 57.6742C53.4578 60.1101 50.041 61.8671 46.8351 61.9855C50.5414 62.0124 53.8851 59.8125 56.3961 57.2171C56.2312 57.0179 55.8972 57.6812 55.7679 57.6742ZM56.4738 58.4398C48.7125 64.0898 40.6832 69.9503 32.8957 75.58C34.1222 75.9648 36.7937 76.1453 38.0129 74.5746C40.6066 72.7847 43.5226 71.4687 46.125 69.6546C49.8933 67.2093 53.9281 64.5367 56.0683 60.4269C56.1703 59.8757 56.9277 58.8843 56.4738 58.4398ZM41.7031 58.7984C42.0633 60.3187 46.5656 62.0636 46.0773 61.7296C44.4172 61.1476 42.7703 60.2406 41.7031 58.7984Z" fill="#DC9624"/>
</g>
<defs>
<linearGradient id="paint0_linear_22_2846" x1="0" y1="100" x2="100" y2="0" gradientUnits="userSpaceOnUse">
<stop stop-color="#DB7093"/>
<stop offset="1" stop-color="#F3B661"/>
</linearGradient>
<clipPath id="clip0_22_2846">
<rect width="100" height="100" fill="white"/>
</clipPath>
</defs>
</svg>
