<svg width="41" height="40" viewBox="0 0 41 40" fill="none" xmlns="http://www.w3.org/2000/svg">
<g clip-path="url(#clip0_64_1271)">
<path d="M20.8013 8.00063C15.4678 8.00063 12.1356 10.6663 10.8013 15.9997C12.8006 13.3338 15.1347 12.3341 17.8006 13.0006C19.3228 13.38 20.4106 14.4838 21.6153 15.7069C23.576 17.6966 25.8453 20 30.8013 20C36.1344 20 39.4669 17.3341 40.8013 11.9994C38.8013 14.6667 36.468 15.6669 33.8016 15C32.2797 14.6203 31.1931 13.5169 29.9869 12.2938C28.0275 10.3041 25.7588 8.00063 20.8013 8.00063ZM10.8013 20C5.46814 20 2.13564 22.6659 0.80127 28.0006C2.80106 25.3333 5.13419 24.3331 7.80064 25C9.32283 25.3797 10.4106 26.4831 11.6153 27.7063C13.576 29.6959 15.8453 31.9994 20.8013 31.9994C26.1344 31.9994 29.4669 29.3338 30.8013 24.0003C28.8013 26.6664 26.468 27.666 23.8016 26.9994C22.2797 26.62 21.1931 25.5163 19.9869 24.2931C18.0275 22.3034 15.7588 20 10.8013 20Z" fill="#38BDF8"/>
</g>
<defs>
<clipPath id="clip0_64_1271">
<rect width="40" height="40" fill="white" transform="translate(0.799805)"/>
</clipPath>
</defs>
</svg>
