<svg width="100" height="100" viewBox="0 0 100 100" fill="none" xmlns="http://www.w3.org/2000/svg">
<g clip-path="url(#clip0_22_2790)">
<path d="M69.4453 39.8047V55.6406C69.4453 58.6812 71.1344 59.9664 73.818 59.9664C74.3722 59.9872 74.9267 59.9312 75.4656 59.8V56.2359C75.2628 56.2586 75.0587 56.268 74.8547 56.2641C74.1477 56.2641 73.5695 55.9516 73.5695 55.075V39.8047H69.4453ZM78.0445 39.8047V55.6406C78.0445 58.6812 79.7352 59.9664 82.4195 59.9664C82.9772 59.9881 83.5351 59.9321 84.0773 59.8V56.2359C83.8756 56.2585 83.6725 56.2679 83.4695 56.2641C82.75 56.2641 82.1672 55.9516 82.1672 55.075V39.8047H78.0445ZM27.9578 41.2734V45.1492H32.5492V59.8547H36.9797V45.1492H41.5719V41.2742L27.9578 41.2734ZM60.2148 45.0859C55.8047 45.0859 52.9805 48.2828 52.9805 52.7508C52.9805 57.3891 55.4156 60.1438 60.9219 60.1438C62.5553 60.1572 64.177 59.8674 65.7047 59.2891V55.8242C64.2906 56.2773 62.6992 56.7273 61.0664 56.7273C58.8742 56.7273 57.3477 56.007 56.975 53.9242C58.1219 54.0496 59.2744 54.1171 60.4281 54.1266C63.5648 54.1266 66.2117 53.2859 66.2117 50.2484C66.2117 47.3008 63.4898 45.0859 60.2148 45.0859ZM93.0547 45.0922C88.625 45.0922 86.0531 48.1492 86.0531 52.6172C86.0531 57.0562 88.6547 60.1953 93.0547 60.1953C97.4547 60.1953 100 57.0945 100 52.6172C100 48.1398 97.4844 45.0922 93.0547 45.0922ZM51.043 45.1805C49.0789 45.1984 47.9391 46.3328 47.2102 48.1617V45.3906H43.1156V59.8547H47.2094V52.275C47.2094 49.9578 48.5531 49.2508 51.4461 49.4758V45.1914C51.3119 45.1828 51.1774 45.1792 51.043 45.1805ZM60.1305 48.2414C61.2906 48.2414 62.2227 49.0305 62.2227 50.107C62.2227 51.4922 60.7609 51.9258 59.0766 51.9258C58.3597 51.9219 57.6442 51.8645 56.9359 51.7539C56.9889 51.0787 57.183 50.4221 57.5055 49.8266C57.7635 49.3541 58.1426 48.9589 58.604 48.6816C59.0653 48.4042 59.5922 48.2547 60.1305 48.2484V48.2414ZM93.0547 48.7586C95.1055 48.7586 95.9883 50.4414 95.9883 52.6172C95.9883 54.793 95.1281 56.5188 93.0547 56.5188C90.9813 56.5188 90.0687 54.793 90.0687 52.6172C90.0687 50.4375 91.0039 48.7586 93.0547 48.7586Z" fill="#EBEBEB"/>
<path d="M1.95937 39.8047H18.1039C18.3614 39.8039 18.6166 39.854 18.8547 39.9522C19.0928 40.0503 19.3091 40.1946 19.4912 40.3767C19.6733 40.5589 19.8176 40.7752 19.9158 41.0133C20.014 41.2514 20.0641 41.5065 20.0633 41.7641V57.9086C20.0641 58.1661 20.014 58.4213 19.9158 58.6594C19.8176 58.8975 19.6733 59.1138 19.4912 59.2959C19.3091 59.478 19.0928 59.6223 18.8547 59.7205C18.6166 59.8187 18.3614 59.8688 18.1039 59.868H1.95937C1.70183 59.8688 1.44667 59.8187 1.20857 59.7205C0.970479 59.6223 0.754151 59.478 0.572042 59.2959C0.389932 59.1138 0.245637 58.8975 0.147462 58.6594C0.0492866 58.4213 -0.000830681 58.1661 -5.22574e-06 57.9086V41.7641C-0.000830681 41.5065 0.0492866 41.2514 0.147462 41.0133C0.245637 40.7752 0.389932 40.5589 0.572042 40.3767C0.754151 40.1946 0.970479 40.0503 1.20857 39.9522C1.44667 39.854 1.70183 39.8039 1.95937 39.8047Z" fill="url(#paint0_linear_22_2790)"/>
<path d="M12.2766 42.4126H16.5148C17.0359 42.4126 17.4555 42.8329 17.4555 43.3532V50.2501C17.4559 50.3737 17.4318 50.4962 17.3847 50.6105C17.3376 50.7249 17.2683 50.8287 17.1809 50.9161C17.0935 51.0036 16.9896 51.0728 16.8753 51.12C16.761 51.1671 16.6385 51.1911 16.5148 51.1907H12.2766C12.1529 51.1911 12.0304 51.1671 11.9161 51.12C11.8018 51.0728 11.6979 51.0036 11.6105 50.9161C11.5231 50.8287 11.4538 50.7249 11.4067 50.6105C11.3596 50.4962 11.3355 50.3737 11.3359 50.2501V43.3532C11.3356 43.2296 11.3597 43.1072 11.4069 42.993C11.4541 42.8788 11.5234 42.775 11.6108 42.6877C11.6982 42.6003 11.802 42.5311 11.9163 42.4841C12.0305 42.437 12.153 42.413 12.2766 42.4134V42.4126ZM3.54843 42.4126H7.78672C8.30781 42.4126 8.72734 42.8329 8.72734 43.3532V55.2657C8.72775 55.3894 8.7037 55.5119 8.65658 55.6262C8.60946 55.7405 8.54019 55.8443 8.45276 55.9318C8.36533 56.0192 8.26147 56.0885 8.14716 56.1356C8.03286 56.1827 7.91036 56.2068 7.78672 56.2063H3.54843C3.42479 56.2068 3.30229 56.1827 3.18798 56.1356C3.07368 56.0885 2.96982 56.0192 2.88239 55.9318C2.79496 55.8443 2.72569 55.7405 2.67857 55.6262C2.63144 55.5119 2.6074 55.3894 2.60781 55.2657V43.3532C2.60781 42.8321 3.02734 42.4126 3.54843 42.4126Z" fill="white"/>
</g>
<defs>
<linearGradient id="paint0_linear_22_2790" x1="10.032" y1="39.8047" x2="10.032" y2="59.8687" gradientUnits="userSpaceOnUse">
<stop stop-color="#2684FF"/>
<stop offset="1" stop-color="#0052CC"/>
</linearGradient>
<clipPath id="clip0_22_2790">
<rect width="100" height="100" fill="white"/>
</clipPath>
</defs>
</svg>
