<svg width="41" height="40" viewBox="0 0 41 40" fill="none" xmlns="http://www.w3.org/2000/svg">
<g clip-path="url(#clip0_64_1242)">
<path d="M7.68457 14.6875H38.8314V37.7094H7.68457V14.6875Z" fill="white"/>
<path d="M1.06885 19.9719V39.5031H40.1313V0.440628H1.06885V19.9719ZM32.547 18.4094C33.4826 18.6265 34.3329 19.1158 34.9907 19.8156C35.3528 20.1927 35.6676 20.6124 35.9282 21.0656C35.9282 21.1156 34.2407 22.2563 33.2126 22.8938C33.1751 22.9188 33.0251 22.7563 32.8595 22.5094C32.6718 22.1855 32.4051 21.9145 32.0843 21.7216C31.7636 21.5287 31.3991 21.4202 31.0251 21.4063C29.8407 21.325 29.0782 21.9469 29.0845 22.9688C29.075 23.2231 29.1332 23.4755 29.2532 23.7C29.5126 24.2406 29.997 24.5625 31.5157 25.2188C34.3126 26.4219 35.5095 27.2156 36.2532 28.3438C37.0845 29.5938 37.2688 31.6125 36.7063 33.1063C36.0813 34.7313 34.5501 35.8344 32.3845 36.2C31.3954 36.3134 30.396 36.3029 29.4095 36.1688C27.8975 35.9195 26.5047 35.1936 25.4345 34.0969C25.0751 33.7 24.3751 32.6656 24.4188 32.5906C24.5327 32.5056 24.6528 32.4294 24.7782 32.3625L26.2251 31.5625L27.347 30.9125L27.5813 31.2594C27.977 31.8251 28.4804 32.3072 29.0626 32.6781C30.3126 33.3344 32.0188 33.2438 32.8626 32.4844C33.1459 32.2061 33.3226 31.8373 33.362 31.4422C33.4014 31.047 33.301 30.6506 33.0782 30.3219C32.7657 29.8875 32.1407 29.5219 30.3938 28.7594C28.3782 27.8906 27.5095 27.3531 26.7157 26.4969C26.2204 25.9317 25.8545 25.2651 25.6438 24.5438C25.4868 23.7195 25.4636 22.8754 25.5751 22.0438C25.9907 20.0969 27.4501 18.7375 29.5813 18.3344C30.5684 18.2124 31.5681 18.2398 32.547 18.4156V18.4094ZM23.3782 20.0469V21.6469H18.3063V36.0938H14.7095V21.6438H9.6251V20.0813C9.60915 19.5424 9.62167 19.0031 9.6626 18.4656C9.6876 18.4375 12.7876 18.4375 16.5376 18.4375H23.3595L23.3782 20.0469Z" fill="#007ACC"/>
</g>
<defs>
<clipPath id="clip0_64_1242">
<rect width="40" height="40" fill="white" transform="translate(0.600098)"/>
</clipPath>
</defs>
</svg>
