<svg width="100" height="100" viewBox="0 0 100 100" fill="none" xmlns="http://www.w3.org/2000/svg">
<path d="M90.6563 15.7187L72.6375 7.04373C71.6202 6.55218 70.4749 6.38976 69.361 6.57905C68.2471 6.76835 67.2198 7.29995 66.4219 8.09998L7.43753 61.875C6.72188 62.5244 6.29349 63.4314 6.2466 64.3967C6.19972 65.3619 6.53818 66.3062 7.18753 67.0219C7.26461 67.1052 7.34482 67.1854 7.42815 67.2625L12.2438 71.6375C12.873 72.2102 13.683 72.5444 14.533 72.5821C15.3831 72.6198 16.2194 72.3585 16.8969 71.8437L87.9438 17.9687C88.4804 17.5615 89.1201 17.3122 89.7907 17.2488C90.4614 17.1854 91.1364 17.3105 91.7399 17.6099C92.3433 17.9093 92.8512 18.3713 93.2063 18.9437C93.5614 19.5161 93.7497 20.1763 93.75 20.85V20.6406C93.7492 19.6123 93.4585 18.6051 92.9113 17.7345C92.3641 16.864 91.5825 16.1653 90.6563 15.7187Z" fill="#0065A9"/>
<path d="M90.6563 84.2812L72.6375 92.9593C71.6197 93.4486 70.475 93.6097 69.3616 93.4205C68.2482 93.2313 67.221 92.7011 66.4219 91.9031L7.43753 38.125C6.72188 37.4756 6.29349 36.5685 6.2466 35.6033C6.19972 34.6381 6.53818 33.6938 7.18753 32.9781C7.26461 32.8948 7.34482 32.8145 7.42815 32.7375L12.2438 28.3625C12.8737 27.7873 13.6855 27.4517 14.5376 27.414C15.3898 27.3763 16.2281 27.639 16.9063 28.1562L87.9438 82.0312C88.4804 82.4384 89.1201 82.6878 89.7907 82.7512C90.4614 82.8146 91.1364 82.6895 91.7399 82.3901C92.3433 82.0906 92.8512 81.6287 93.2063 81.0562C93.5614 80.4838 93.7497 79.8236 93.75 79.15V79.375C93.7463 80.4006 93.4542 81.4045 92.9072 82.272C92.3601 83.1396 91.5801 83.8358 90.6563 84.2812Z" fill="#007ACC"/>
<path d="M72.6375 92.9593C71.6196 93.4485 70.4749 93.6097 69.3616 93.4205C68.2482 93.2313 67.221 92.701 66.4219 91.903C66.8706 92.3459 67.4401 92.6465 68.059 92.7672C68.6779 92.8878 69.3186 92.8231 69.9009 92.5812C70.4831 92.3393 70.981 91.9309 71.3322 91.4072C71.6834 90.8836 71.8722 90.2679 71.875 89.6374V10.3624C71.8755 9.72892 71.688 9.10955 71.3362 8.58273C70.9844 8.05591 70.4842 7.64535 69.8989 7.40306C69.3136 7.16077 68.6696 7.09765 68.0483 7.22171C67.4271 7.34576 66.8567 7.65139 66.4094 8.0999C67.2069 7.29935 68.234 6.76716 69.3479 6.5773C70.4619 6.38744 71.6073 6.54935 72.625 7.04052L90.6406 15.703C91.5698 16.1474 92.3546 16.8451 92.9047 17.7158C93.4548 18.5866 93.7478 19.5949 93.75 20.6249V79.3749C93.7495 80.404 93.4586 81.4121 92.9108 82.2834C92.363 83.1546 91.5804 83.8535 90.6531 84.2999L72.6375 92.9593Z" fill="#1F9CF0"/>
</svg>
