<svg width="90" height="100" viewBox="0 0 90 100" fill="none" xmlns="http://www.w3.org/2000/svg">
<g clip-path="url(#clip0_22_2785)">
<path d="M45.0295 0.0166016L89.1675 24.9838V74.9345L45.0295 99.9018L0.891602 74.9345V24.9838L45.0295 0.0166016Z" fill="white"/>
<path d="M81.2894 73.2025L46.4956 92.9059V77.5828L68.1814 65.6407L81.2894 73.2025ZM83.6711 71.0538V29.8807L70.9463 37.2256V63.7083L83.6711 71.0538ZM8.63661 73.2021L43.4307 92.8897V77.5663L21.7449 65.6407L8.63661 73.2021ZM6.25488 71.0538V29.8807L18.9801 37.2256V63.7083L6.25488 71.0538ZM7.73764 27.2159L43.4307 7.02866V21.8528L20.5625 34.4276L20.379 34.5276L7.73764 27.2159ZM82.1721 27.2159L46.4956 7.02832V21.8525L69.3473 34.4438L69.5304 34.5438L82.1721 27.2159Z" fill="#8ED6FB"/>
<path d="M43.4306 74.0852L22.0444 62.3094V39.008L43.4306 51.35V74.0852ZM46.4955 74.0852L67.8817 62.3263V39.008L46.4955 51.35V74.0852ZM23.4768 36.3097L44.9631 24.5007L66.432 36.3097L44.9631 48.7018L23.4768 36.3097Z" fill="#1C78C0"/>
</g>
<defs>
<clipPath id="clip0_22_2785">
<rect width="88.28" height="100" fill="white" transform="translate(0.889648)"/>
</clipPath>
</defs>
</svg>
