<svg width="33" height="32" viewBox="0 0 33 32" fill="none" xmlns="http://www.w3.org/2000/svg">
<path d="M27.6441 26.4638L19.819 14.1663L27.5403 5.6725C27.7149 5.47565 27.8049 5.21791 27.7908 4.95515C27.7767 4.69239 27.6595 4.44579 27.4648 4.26882C27.27 4.09185 27.0134 3.99876 26.7505 4.00974C26.4876 4.02073 26.2396 4.1349 26.0603 4.3275L18.7053 12.4175L13.6441 4.46375C13.5538 4.32169 13.4292 4.20471 13.2817 4.12365C13.1342 4.04258 12.9686 4.00005 12.8003 4H6.8003C6.621 3.99991 6.44498 4.04803 6.29066 4.13932C6.13634 4.23062 6.00941 4.36172 5.92315 4.5189C5.83689 4.67609 5.79447 4.85357 5.80035 5.03278C5.80623 5.21198 5.86018 5.3863 5.95655 5.5375L13.7815 17.8337L6.0603 26.3337C5.97013 26.4306 5.90009 26.5444 5.85422 26.6685C5.80836 26.7927 5.78758 26.9247 5.79311 27.0569C5.79863 27.1891 5.83034 27.3189 5.8864 27.4388C5.94246 27.5586 6.02176 27.6662 6.11969 27.7552C6.21762 27.8442 6.33224 27.9129 6.45691 27.9572C6.58158 28.0016 6.71382 28.0208 6.84596 28.0137C6.9781 28.0066 7.10751 27.9733 7.2267 27.9158C7.34589 27.8583 7.45248 27.7777 7.5403 27.6787L14.8953 19.5888L19.9566 27.5425C20.0475 27.6834 20.1725 27.7991 20.32 27.8791C20.4674 27.959 20.6326 28.0006 20.8003 28H26.8003C26.9794 27.9999 27.1552 27.9518 27.3093 27.8606C27.4635 27.7693 27.5903 27.6384 27.6765 27.4814C27.7627 27.3244 27.8052 27.1472 27.7995 26.9681C27.7938 26.7891 27.7401 26.6149 27.6441 26.4638ZM21.3491 26L8.62155 6H12.2466L24.979 26H21.3491Z" fill="#EBEBEB"/>
</svg>
