<svg width="101" height="100" viewBox="0 0 101 100" fill="none" xmlns="http://www.w3.org/2000/svg">
<g clip-path="url(#clip0_22_2836)">
<path d="M23.0253 27.9063C18.6555 27.9059 14.3837 29.2015 10.7502 31.629C7.11669 34.0565 4.28464 37.5069 2.61218 41.544C0.939713 45.5811 0.501961 50.0234 1.35428 54.3093C2.20659 58.5952 4.31069 62.5321 7.4005 65.6221C10.4903 68.7121 14.427 70.8165 18.7128 71.6691C22.9987 72.5217 27.441 72.0843 31.4782 70.4121C35.5154 68.7399 38.9661 65.9081 41.3939 62.2748C43.8216 58.6415 45.1174 54.3698 45.1174 50C45.1174 44.1408 42.79 38.5215 38.6472 34.3782C34.5043 30.2349 28.8853 27.9069 23.026 27.9063H23.0253ZM24.6503 35.475C24.9239 35.5054 25.1862 35.601 25.4151 35.7539C25.6448 35.9102 25.9456 36.0977 26.8049 37.8812C27.135 37.7738 27.4905 37.7738 27.8206 37.8812C27.9964 37.9345 28.1595 38.0228 28.3003 38.1408C28.441 38.2588 28.5563 38.4041 28.6393 38.568C29.5143 40.2539 29.637 43.2648 29.2526 45.2039C28.9129 46.9184 28.2037 48.5382 27.1745 49.9508C28.0992 50.8948 28.8082 52.0282 29.2526 53.2727C29.6778 54.4593 29.8507 55.7216 29.7604 56.9789C30.1435 56.8002 30.5151 56.5977 30.8729 56.3727C32.2522 55.3817 33.8766 54.7876 35.5698 54.6547C36.1587 54.6245 36.7376 54.8162 37.192 55.192C37.6465 55.5677 37.9435 56.1003 38.0245 56.6844C38.1035 57.2421 37.972 57.8092 37.6555 58.2752C37.339 58.7412 36.8603 59.0725 36.3128 59.2047C35.0976 59.4804 33.9546 60.0103 32.9589 60.7594C31.227 61.8467 29.3629 62.7074 27.412 63.3203C27.0356 63.628 26.5926 63.8436 26.1182 63.95C24.0034 64.2652 21.8723 64.4595 19.7354 64.532H19.6549C19.1716 64.5746 18.6847 64.5158 18.2254 64.3594C17.7661 64.2029 17.3446 63.9522 16.9878 63.6234C16.3614 63.8823 15.6842 63.9947 15.0078 63.9522C14.3314 63.9097 13.6737 63.7133 13.0846 63.3781C12.8139 63.2424 12.5778 63.0465 12.3944 62.8055C12.2111 62.5645 12.0853 62.2846 12.0268 61.9875C11.9834 61.7433 11.9834 61.4934 12.0268 61.2492C11.923 61.1389 11.8301 61.0188 11.7495 60.8906C11.0985 59.8152 10.8116 58.5584 10.9315 57.307C11.1217 56.1072 11.6964 55.0015 12.569 54.1562C12.5072 52.7376 12.7435 51.3217 13.2628 50C13.8436 48.7704 14.6808 47.6793 15.7182 46.8C15.3163 46.2074 15.0531 45.5318 14.9481 44.8235C14.8431 44.1152 14.8992 43.3923 15.112 42.7086C15.5292 41.5953 15.8745 40.982 16.6276 40.7211C16.9545 40.6271 17.258 40.4652 17.5182 40.2461C18.6137 39.0496 20.1291 38.3227 21.7479 38.2172C21.8135 38.0453 21.8963 37.8734 21.9784 37.6938C22.3016 36.7721 22.9703 36.0122 23.8432 35.5742C24.1004 35.4771 24.3772 35.443 24.6503 35.475ZM24.6081 36.7898C23.6424 36.6211 22.6651 39.5836 22.6651 39.5836C21.8902 39.5116 21.1091 39.622 20.3845 39.9061C19.6599 40.1902 19.0119 40.64 18.4924 41.2195C18.1048 41.5965 17.6337 41.8768 17.1174 42.0375C16.9706 42.0867 16.7893 42.0781 16.3479 43.2734C15.6682 45.0977 17.5018 47.1281 17.5018 47.1281C16.2467 48.0315 15.2212 49.2169 14.5081 50.5891C13.9676 51.9068 13.754 53.3357 13.8854 54.7539C13.8854 54.7539 12.3307 56.1031 12.2479 57.4945C12.1558 58.4684 12.3775 59.4462 12.8807 60.2852C12.9193 60.3697 12.9746 60.4456 13.0433 60.5081C13.112 60.5707 13.1927 60.6187 13.2804 60.6492C13.3682 60.6798 13.4612 60.6922 13.5539 60.6857C13.6467 60.6793 13.7371 60.6541 13.8198 60.6117C13.8198 60.6117 12.7885 61.8148 13.7542 62.3305C14.7198 62.8461 16.119 63.0578 16.9049 62.2641C17.4776 61.6914 17.5846 60.425 17.7956 59.9008C17.8456 59.7781 18.0167 60.1039 18.1807 60.268C18.3318 60.4017 18.4938 60.5224 18.6651 60.6289C18.481 60.7023 18.3134 60.8116 18.1721 60.9506C18.0308 61.0895 17.9187 61.2553 17.8423 61.4381C17.7659 61.621 17.7268 61.8172 17.7272 62.0154C17.7276 62.2136 17.7676 62.4097 17.8448 62.5922C18.0331 63.0422 18.7042 63.3375 19.8089 63.3297C21.8496 63.2527 23.8849 63.0692 25.9065 62.7797C26.2695 62.7215 26.5999 62.5359 26.8385 62.2563C28.7811 61.6765 30.6365 60.8369 32.3542 59.7602C33.4682 58.9288 34.7445 58.3409 36.1003 58.0344C36.3758 57.9662 36.613 57.7914 36.7597 57.5483C36.9064 57.3052 36.9505 57.0139 36.8823 56.7383C36.8141 56.4627 36.6393 56.2255 36.3962 56.0788C36.1531 55.9322 35.8618 55.8881 35.5862 55.9562H35.5846C34.1238 56.0855 32.7261 56.6114 31.5424 57.4773C29.3987 58.8031 28.3354 58.7133 28.3354 58.7133V58.6555C28.187 58.4188 29.0151 56.275 28.0893 53.7469C27.0831 50.9562 25.4878 50.2859 25.6346 50.0727C26.8115 48.5649 27.6488 46.8207 28.0893 44.9594C28.4174 43.3227 28.3284 40.5812 27.6003 39.157C27.4612 38.8953 26.2495 39.5992 26.2495 39.5992C25.85 38.6466 25.3655 37.732 24.8018 36.8664C24.7427 36.8287 24.677 36.8027 24.6081 36.7898ZM76.212 39.8617C75.989 39.8484 75.7657 39.8808 75.5558 39.9571C75.3459 40.0333 75.1537 40.1516 74.9913 40.3049C74.8288 40.4581 74.6994 40.643 74.6111 40.8481C74.5227 41.0533 74.4773 41.2743 74.4776 41.4977C74.4954 41.9702 74.644 42.4286 74.9069 42.8217C75.1698 43.2149 75.5367 43.5273 75.9667 43.7242C75.9627 45.737 75.7705 47.7449 75.3924 49.7219C75.3652 49.8274 75.3539 49.9364 75.3589 50.0453C75.0385 51.5672 74.4089 53.6398 73.0698 53.6398V53.6492C72.2518 53.6492 71.8901 52.8297 71.8901 52.0117V46.2844C71.8779 46.057 71.8183 45.8348 71.7153 45.6318C71.6123 45.4287 71.4681 45.2495 71.2918 45.1053C71.1156 44.9612 70.9112 44.8555 70.6918 44.7948C70.4724 44.7342 70.2427 44.72 70.0174 44.7531C69.5346 44.7531 69.1167 44.9992 69.1167 45.3422C69.1908 45.7095 69.2373 46.0819 69.2557 46.4562V51.8078C68.8714 52.7813 68.2503 53.6156 67.3089 53.6156C66.0901 53.6156 65.3299 52.5766 65.3299 50.7687C65.3299 45.7687 68.4221 43.5109 71.0565 43.5109C71.4003 43.5109 71.7518 43.5758 72.0635 43.5758C72.3753 43.5758 72.5135 43.3711 72.5135 42.7578C72.518 42.5494 72.4772 42.3426 72.3939 42.1516C72.3106 41.9605 72.1869 41.7898 72.0312 41.6513C71.8755 41.5127 71.6915 41.4096 71.4921 41.3491C71.2927 41.2886 71.0825 41.2721 70.876 41.3008C66.637 41.3008 62.612 44.8445 62.612 50.6445C62.613 50.8638 62.6216 51.0792 62.6378 51.2906C62.0327 52.8073 61.1624 54.2042 60.0674 55.4156V43.2258C60.0537 43.0007 59.9937 42.7809 59.891 42.5801C59.7884 42.3794 59.6454 42.202 59.4709 42.0591C59.2965 41.9162 59.0944 41.8109 58.8774 41.7498C58.6603 41.6886 58.433 41.673 58.2096 41.7039C57.7268 41.7039 57.3096 41.9492 57.3096 42.293C57.3648 42.6612 57.3925 43.0331 57.3925 43.4055V48.9945C56.9753 51.4492 55.9346 53.682 54.5432 53.682C53.537 53.682 52.9073 52.6758 52.9073 50.8016C52.9108 48.4285 53.2501 46.0678 53.9151 43.7898C54.0542 43.2664 55.0604 41.8828 53.3581 41.8828C51.5174 41.8828 51.7206 42.5781 51.5159 43.1672C50.8256 45.7182 50.436 48.3413 50.3549 50.9828C50.3549 54.0023 51.6229 55.9812 53.9471 55.9812C55.4362 55.9812 56.5159 54.9758 57.351 53.5844V57.9945C55.0596 60.0063 53.0464 61.7836 53.0464 65.2844C53.0464 67.5109 54.4385 69.2781 56.3776 69.2781C58.1456 69.2781 59.9862 67.9937 59.9862 64.3695V58.3359C61.4124 57.1845 62.6168 55.7827 63.5401 54.1992C64.2331 55.2461 65.3073 55.8898 66.744 55.8898C67.3161 55.8887 67.8808 55.7604 68.3972 55.5142C68.9136 55.2681 69.3689 54.9101 69.7299 54.4664C70.0148 54.915 70.4111 55.282 70.8803 55.5315C71.3495 55.781 71.8753 55.9045 72.4065 55.8898C75.2034 55.8898 76.601 53.1492 77.251 50.9188C77.2854 50.8526 77.3154 50.7779 77.3409 50.6945C77.8931 48.5959 78.1978 46.4398 78.2487 44.2703H81.2674C80.243 46.7069 79.6559 49.305 79.5331 51.9453C79.5331 54.9969 81.4807 55.9062 83.1089 55.9062V55.9391C84.437 55.9391 85.4432 55.3187 86.2065 54.4297C86.1972 54.6411 86.2341 54.8521 86.3146 55.0478C86.3952 55.2436 86.5174 55.4194 86.6728 55.5631C86.8283 55.7068 87.0132 55.8148 87.2146 55.8798C87.4161 55.9447 87.6292 55.9649 87.8393 55.9391C88.8456 55.9391 88.8128 55.1203 88.8128 54.4492V49.3758C89.0581 46.6352 91.2112 43.6484 92.2167 43.6484C92.88 43.6484 92.9448 44.5484 92.9448 45.6289V52.6828C92.9448 54.4508 94.0253 55.9562 95.8667 55.9562C98.8534 55.9562 100.324 52.8305 100.921 50.5391C100.932 50.4574 100.932 50.3746 100.921 50.293C100.905 49.9545 100.776 49.6311 100.556 49.3735C100.335 49.1159 100.036 48.9386 99.7042 48.8695C99.3604 48.8695 99.0081 49.1805 98.8846 49.9086C98.5737 51.4383 97.862 53.6562 96.4706 53.6562C95.5721 53.6562 95.5721 52.3719 95.5721 52.0203V44.8594C95.5721 43.2234 95.0143 41.35 92.6909 41.35C90.9885 41.35 89.7378 42.8383 88.805 44.7867V43.2242C88.7927 42.9967 88.7332 42.7742 88.63 42.571C88.5268 42.3678 88.3824 42.1884 88.2059 42.0442C88.0294 41.9001 87.8247 41.7944 87.605 41.7339C87.3853 41.6734 87.1554 41.6595 86.93 41.693C86.4471 41.693 86.0315 41.9391 86.0315 42.2828C86.1053 42.6499 86.1516 43.0221 86.1698 43.3961V49.4234C86.1081 49.5741 86.0641 49.7314 86.0385 49.8922C85.7276 51.4219 85.1385 53.6391 83.5346 53.6391C82.5932 53.6391 82.144 52.7398 82.144 51.7656C82.144 48.2969 83.7065 44.1961 83.7065 43.7797C83.8464 42.9617 82.4542 41.832 82.0698 41.832H80.262C79.646 41.8287 79.031 41.7825 78.4214 41.6937C78.3329 41.1746 78.0615 40.7043 77.6562 40.3681C77.2508 40.0319 76.7385 39.8527 76.212 39.8617ZM57.3917 60.6359V64.3516C57.3917 65.0141 57.5315 67.0937 56.419 67.0937L56.4503 67.0766C55.894 67.0766 55.5503 66.2586 55.5503 65.1703C55.5253 64.328 55.6763 63.4897 55.9934 62.709C56.3106 61.9282 56.7863 61.2222 57.3917 60.6359Z" fill="#2C8EBB"/>
</g>
<defs>
<clipPath id="clip0_22_2836">
<rect width="100" height="100" fill="white" transform="translate(0.929932)"/>
</clipPath>
</defs>
</svg>
